<?xml version="1.0" encoding="UTF-8" standalone="no"?>
<!-- Created with Inkscape (http://www.inkscape.org/) -->

<svg
   xmlns:dc="http://purl.org/dc/elements/1.1/"
   xmlns:cc="http://creativecommons.org/ns#"
   xmlns:rdf="http://www.w3.org/1999/02/22-rdf-syntax-ns#"
   xmlns:svg="http://www.w3.org/2000/svg"
   xmlns="http://www.w3.org/2000/svg"
   xmlns:sodipodi="http://sodipodi.sourceforge.net/DTD/sodipodi-0.dtd"
   xmlns:inkscape="http://www.inkscape.org/namespaces/inkscape"
   width="190mm"
   height="200mm"
   viewBox="0 0 190 200"
   version="1.1"
   id="svg8"
   inkscape:version="0.92.5 (2060ec1f9f, 2020-04-08)"
   sodipodi:docname="eggcups_MAIN.svg">
  <defs
     id="defs2" />
  <sodipodi:namedview
     id="base"
     pagecolor="#ffffff"
     bordercolor="#666666"
     borderopacity="1.0"
     inkscape:pageopacity="0.0"
     inkscape:pageshadow="2"
     inkscape:zoom="0.35"
     inkscape:cx="-456.46638"
     inkscape:cy="181.98947"
     inkscape:document-units="mm"
     inkscape:current-layer="layer2"
     showgrid="false"
     inkscape:window-width="1920"
     inkscape:window-height="1017"
     inkscape:window-x="1912"
     inkscape:window-y="-8"
     inkscape:window-maximized="1" />
  <metadata
     id="metadata5">
    <rdf:RDF>
      <cc:Work
         rdf:about="">
        <dc:format>image/svg+xml</dc:format>
        <dc:type
           rdf:resource="http://purl.org/dc/dcmitype/StillImage" />
        <dc:title></dc:title>
      </cc:Work>
    </rdf:RDF>
  </metadata>
  <g
     inkscape:groupmode="layer"
     id="layer2"
     inkscape:label="BlackBG">
    <rect
       style="fill:#000000;fill-opacity:1;stroke:#ffffff;stroke-width:1.90891111;stroke-linecap:butt;stroke-linejoin:round;stroke-miterlimit:4;stroke-dasharray:none;stroke-opacity:1;paint-order:normal"
       id="rect828"
       width="224.48692"
       height="207.10002"
       x="-238.29851"
       y="-6.5485206" />
  </g>
  <g
     inkscape:label="Layer 1"
     inkscape:groupmode="layer"
     id="layer1"
     transform="translate(0,-97)">
    <path
       style="fill:none;stroke-width:0.26458335;stroke:#ffffff;stroke-opacity:1"
       d="m 87.592339,290.70903 c -3.79747,-0.0989 -7.667,-0.25288 -8.59896,-0.34214 -0.93195,-0.0893 -3.71852,-0.35438 -6.19237,-0.58914 -22.14398,-2.10139 -40.952228,-8.16908 -48.488938,-15.64291 -1.18556,-1.17567 -2.61203,-3.06378 -4.11262,-5.44357 -2.939391,-4.66159 -3.645721,-6.08047 -4.673071,-9.38728 -0.7424,-2.38962 -0.84235,-3.08517 -0.87353,-6.07856 -0.032,-3.06679 0.0911,-4.03022 1.3271,-10.39163 2.408871,-12.39785 4.094921,-25.31852 4.850891,-37.17396 0.53292,-8.35751 0.399,-26.19674 -0.26245,-34.95996 -0.84762,-11.22982 -2.397101,-23.23805 -4.126461,-31.97962 -0.9926,-5.01739 0.84313,-10.66696 4.885841,-15.03651 1.30664,-1.41228 5.03772,-4.44926 6.89094,-5.609 4.86888,-3.04694 14.25,-6.67271 22.489588,-8.69216 13.22555,-3.24145 26.72628,-4.70494 43.391655,-4.70368 22.518746,0.002 41.738116,3.01248 56.356256,8.82842 11.95374,4.75588 19.00507,10.90895 20.93779,18.27051 0.59766,2.27643 0.64495,5.74764 0.10877,7.98385 -1.23103,5.13415 -3.0415,19.23788 -3.89106,30.31169 -0.67572,8.80788 -0.81809,28.16662 -0.26756,36.38021 0.79144,11.8076 2.38498,23.87291 4.82702,36.54711 1.19371,6.19534 1.36589,7.50099 1.33953,10.15766 -0.0309,3.11676 -0.48147,5.48075 -1.62925,8.54846 -0.71584,1.91328 -5.44296,9.57758 -7.03888,11.41248 -7.56868,8.70207 -29.28771,15.39048 -55.79366,17.18174 -7.72742,0.52221 -13.128346,0.62491 -21.456571,0.40799 z m 21.985741,-0.92634 c 19.44801,-1.4319 36.45919,-5.40436 46.69896,-10.90517 4.60144,-2.47189 8.53532,-5.80392 9.81596,-8.31418 0.50768,-0.99513 0.50906,-1.0286 0.0319,-0.77325 -0.27429,0.14679 -0.64858,0.44748 -0.83174,0.66818 -0.50524,0.60877 -4.11963,2.86404 -6.52799,4.07326 -11.54788,5.79812 -28.33371,9.60311 -49.45171,11.20964 -5.55527,0.42261 -24.965221,0.4228 -30.427081,2.6e-4 -12.76152,-0.98717 -22.20779,-2.43185 -31.749998,-4.85572 -10.83766,-2.75294 -19.52364,-6.51629 -24.59409,-10.6558 -1.42229,-1.16115 -1.40949,-1.06922 0.18257,1.31115 8.53985,12.76846 48.162308,21.09028 86.853179,18.2416 z m -4.23333,-4.35345 c 25.46112,-1.33878 46.62924,-6.47396 57.69327,-13.99581 3.81932,-2.59656 4.0935,-2.89276 4.27116,-4.61414 0.20346,-1.97136 -0.75905,-5.46466 -1.50568,-5.46466 -0.13725,0 -1.05693,0.5207 -2.04373,1.15712 -17.94313,11.57196 -60.94829,16.91476 -98.102511,12.18788 -17.386858,-2.21201 -33.171098,-6.90167 -41.615698,-12.36446 l -1.85597,-1.20062 -0.66825,1.4991 c -0.68935,1.54646 -0.92976,3.52806 -0.60288,4.96938 0.13077,0.57662 0.68005,1.22148 1.82738,2.14537 10.38738,8.36444 32.366458,14.16823 59.319578,15.66391 5.54127,0.3075 17.590685,0.31626 23.283331,0.0169 z m 0.79375,-9.78591 c 25.79939,-1.48139 46.13451,-6.37045 58.00786,-13.94649 l 1.38702,-0.88503 -0.56987,-0.85306 c -0.86931,-1.30135 -3.80007,-3.76919 -6.30522,-5.30931 -20.94749,-12.87816 -71.036291,-16.79232 -106.891661,-8.35299 -13.388328,3.15123 -23.040558,7.58562 -27.813918,12.77818 l -1.48789,1.61854 1.48789,1.00759 c 9.4408,6.39326 28.862998,11.55882 50.435798,13.41399 9.09066,0.78176 23.238655,1.0173 31.749991,0.52858 z m 63.27019,-10.25987 c 0.87521,-1.36816 1.68502,-3.76991 1.68502,-4.99744 0,-0.32606 -0.12873,-1.19307 -0.28606,-1.92668 l -0.28605,-1.33383 -2.08695,1.909 c -1.90688,1.74427 -2.05784,1.95527 -1.74956,2.44529 0.6134,0.97498 1.29766,3.75493 1.19338,4.84837 -0.127,1.33168 0.20525,1.12657 1.53022,-0.94471 z m -148.259799,-3.1199 0.66658,-1.31544 -2.07216,-1.91709 c -1.1901,-1.10105 -2.145051,-1.79915 -2.243401,-1.64 -0.0942,0.1524 -0.23664,1.14158 -0.31655,2.19818 -0.17453,2.30775 0.44749,4.31257 1.984341,6.39563 l 0.97603,1.32292 0.16929,-1.86438 c 0.10816,-1.19125 0.40995,-2.33931 0.83587,-3.17982 z m -3.935841,-5.36567 c 0.0776,-0.12559 -0.19591,-0.75981 -0.60785,-1.40938 -0.41194,-0.64956 -0.89369,-1.61948 -1.07055,-2.15537 -0.17686,-0.53589 -0.38202,-0.97434 -0.45591,-0.97434 -0.2927,0 0.22956,4.22238 0.76773,6.20699 l 0.57109,2.10596 0.32718,-1.77275 c 0.17995,-0.97501 0.39069,-1.87551 0.46831,-2.00111 z m 151.75135,0.90825 1.17799,-1.21078 -0.55676,-1.1261 c -0.82522,-1.66905 -3.0008,-3.94965 -5.4643,-5.72809 -10.6336,-7.6765 -30.82387,-12.90482 -56.39533,-14.60372 -5.79344,-0.38489 -21.458641,-0.38489 -27.252081,0 -25.08444,1.66654 -44.432878,6.54186 -55.596138,14.00885 -2.56031,1.71256 -5.58432,4.69326 -6.41664,6.32475 l -0.509561,0.99882 0.966381,1.11107 c 0.53151,0.61109 1.43512,1.47672 2.00803,1.92361 l 1.04164,0.81254 1.86877,-1.82289 c 2.47328,-2.41256 4.50577,-3.89914 7.57901,-5.54337 17.58247,-9.40684 51.887528,-13.77245 83.454339,-10.62025 19.00629,1.89792 34.61633,6.10381 43.92083,11.8338 2.62048,1.61377 5.96329,4.42895 6.66047,5.60918 l 0.44661,0.75605 0.94438,-0.75634 c 0.51941,-0.41599 1.47447,-1.3012 2.12236,-1.96713 z m 3.39903,0.70422 c 0.29366,-1.12779 0.59387,-3.06255 0.66712,-4.29948 l 0.1332,-2.24896 -0.4577,1.19063 c -0.25173,0.65484 -0.76009,1.66746 -1.12969,2.25026 l -0.672,1.05963 0.41738,2.04922 c 0.22957,1.12707 0.43772,2.04922 0.46257,2.04922 0.0248,0 0.28545,-0.92273 0.57912,-2.05052 z M 18.806461,254.13691 c 5.88172,-8.81089 26.82646,-16.20436 53.333088,-18.82652 14.7066,-1.45484 33.623411,-1.2962 47.624991,0.39941 23.11152,2.79884 40.17679,8.65748 47.88958,16.44088 0.80037,0.80769 1.75287,1.95537 2.11667,2.5504 0.3638,0.59503 0.77102,1.04882 0.90492,1.00843 0.1339,-0.0404 0.59189,-0.73872 1.01773,-1.55184 3.32748,-6.3535 -1.18591,-13.26606 -12.2414,-18.74855 -11.46438,-5.68527 -28.24971,-9.44372 -49.74167,-11.1378 -5.74213,-0.45261 -25.442901,-0.45816 -31.088531,-0.009 -25.12781,2.00025 -43.855978,6.7349 -54.768748,13.84604 -2.65172,1.72795 -6.457551,5.48007 -7.342351,7.23873 -0.87674,1.74265 -1.3339,4.04439 -1.11527,5.61528 0.19139,1.37511 1.9474,5.26146 2.22135,4.91623 0.0929,-0.11702 0.6282,-0.90088 1.189641,-1.74193 z M 171.11031,240.16082 c -1.8339,-9.39473 -3.41703,-21.73113 -4.1559,-32.38432 -0.65137,-9.39169 -0.58618,-28.04725 0.13083,-37.43854 0.73294,-9.60001 1.99263,-20.20988 3.12564,-26.32603 0.14364,-0.77539 0.1305,-0.76927 -0.56811,0.26458 -3.09152,4.57502 -10.15568,9.03622 -19.32289,12.20291 l -2.84203,0.98174 -0.6437,1.47746 c -9.83746,22.57974 -19.96326,38.84829 -30.10297,48.36474 -11.53686,10.82773 -24.121256,13.18523 -36.124971,6.76747 -10.40775,-5.56449 -21.39732,-19.01689 -31.511548,-38.57349 -1.73543,-3.35559 -6.67795,-13.93307 -7.98059,-17.07928 -0.31512,-0.76108 -0.60954,-1.00547 -1.54898,-1.28576 -1.98048,-0.59088 -7.40132,-2.80553 -9.75888,-3.98691 -4.66282,-2.33656 -8.53807,-5.25646 -10.74039,-8.09262 -0.64122,-0.82576 -1.165831,-1.39777 -1.165801,-1.27112 4e-5,0.12665 0.23684,1.65903 0.526231,3.40528 0.79415,4.79212 2.04721,15.71462 2.51935,21.96041 0.89678,11.86306 0.95989,28.99099 0.14771,40.08437 -0.65341,8.92457 -2.34616,21.83991 -3.991891,30.45715 -0.93565,4.8992 -0.94502,5.10023 -0.18969,4.07098 6.668871,-9.08733 25.927721,-16.16051 51.808929,-19.02782 9.82793,-1.0888 14.6053,-1.33836 25.511595,-1.33265 21.018236,0.011 38.374646,2.27944 53.974996,7.05439 10.51348,3.21796 19.54256,8.35035 22.64385,12.87143 0.49724,0.72488 0.9379,1.22606 0.97926,1.11375 0.0414,-0.11232 -0.28267,-2.03747 -0.72005,-4.27812 z M 98.169424,216.7475 c 6.479356,-1.02056 12.464316,-4.32453 18.646836,-10.29391 9.19931,-8.88218 18.10758,-22.63597 26.56225,-41.01042 1.33891,-2.90984 3.37353,-7.55395 3.37353,-7.70023 0,-0.0239 -0.97717,0.24072 -2.1715,0.58794 -8.71215,2.53287 -19.75196,4.44963 -31.95975,5.54891 -6.33144,0.57013 -23.850586,0.7938 -30.890731,0.39438 -14.18485,-0.80476 -27.62003,-2.87415 -37.702488,-5.80723 -1.41883,-0.41275 -2.57969,-0.72496 -2.57969,-0.69381 0,0.19944 1.88419,4.47583 3.96232,8.99296 9.791298,21.28284 21.142068,37.23366 31.756428,44.62616 4.01385,2.79549 7.92634,4.46709 12.303135,5.25647 3.35357,0.60484 5.34329,0.62744 8.69966,0.0988 z m 9.027406,-53.04692 c 11.97251,-0.63148 23.37375,-2.28591 33.60484,-4.87638 6.82696,-1.72855 5.9902,-1.0444 8.43916,-6.89999 4.23674,-10.1303 5.43879,-13.19397 4.89377,-12.4729 -0.30391,0.40208 -1.2261,1.24881 -2.04933,1.88162 -8.70138,6.6887 -24.97211,11.1503 -45.94677,12.59908 -5.15689,0.3562 -19.009111,0.35708 -24.077081,0.002 -21.68088,-1.52114 -38.270138,-6.17389 -46.466218,-13.03234 -1.00113,-0.83775 -1.82024,-1.47123 -1.82024,-1.40774 0,0.49449 7.23654,17.28562 7.54984,17.51809 0.22215,0.16482 1.91829,0.71932 3.76922,1.23222 17.195128,4.76479 38.961508,6.67733 62.102809,5.45675 z m -66.807279,-6.9652 c 0,-0.0598 -0.60398,-1.51837 -1.34216,-3.24114 -0.73819,-1.72278 -2.59395,-6.15854 -4.12392,-9.85726 -1.52997,-3.69873 -2.96259,-7.00094 -3.18361,-7.33826 -0.27578,-0.42089 -0.40504,-1.30686 -0.41202,-2.82397 -0.009,-2.00622 0.071,-2.363 0.86772,-3.85775 2.34541,-4.40044 9.28923,-8.84691 18.04651,-11.55608 2.711068,-0.8387 1.417598,-0.68604 -2.47782,0.29245 -11.74539,2.9503 -21.06117,7.18746 -26.04522,11.84633 -2.46073,2.30018 -3.601571,4.05696 -4.231611,6.51626 -0.55484,2.16575 -0.32589,3.76385 0.886361,6.187 2.30363,4.60469 8.84766,9.12087 18.44389,12.72856 3.14668,1.18299 3.57188,1.31439 3.57188,1.10386 z m 115.887489,-3.17971 c 8.04074,-3.65577 13.43932,-8.46278 14.43251,-12.85104 1.77457,-7.84062 -7.55375,-15.62362 -25.01584,-20.87173 -3.23238,-0.97147 -8.95517,-2.42533 -9.45668,-2.40245 -0.11034,0.005 1.10907,0.4597 2.7098,1.01037 6.6508,2.28793 11.31586,4.86177 14.44109,7.96752 1.16562,1.15836 2.26989,2.54725 2.63652,3.31608 0.74648,1.5654 0.98331,4.12545 0.51769,5.59623 -0.33429,1.05597 -4.80697,11.99892 -7.30379,17.86963 -0.78538,1.84665 -1.42797,3.42021 -1.42797,3.49682 0,0.25948 5.40678,-1.74024 8.46667,-3.13143 z m -48.13959,-0.29707 c 19.30253,-1.48461 35.13136,-5.85906 43.11251,-11.91456 0.80036,-0.60725 1.69333,-1.37873 1.98437,-1.71439 0.49064,-0.56585 0.46174,-0.56057 -0.39687,0.0725 -2.03421,1.49986 -8.46183,4.67454 -10.31875,5.09656 -0.21828,0.0496 -1.82563,0.52621 -3.57188,1.0591 -7.8286,2.38903 -17.43929,4.12135 -28.70729,5.17449 -4.94189,0.46188 -22.073611,0.63194 -27.842101,0.27637 -19.37239,-1.19409 -36.835858,-5.25293 -45.579768,-10.59361 -1.58257,-0.96662 -1.75583,-1.02614 -1.19062,-0.40906 1.39082,1.51848 5.43227,3.90828 9.525,5.63235 14.881508,6.26885 39.482028,9.12796 62.985399,7.32025 z m -1.60208,-2.52987 c 20.21194,-1.18945 38.65269,-5.891 46.61689,-11.8852 2.24896,-1.69266 2.88451,-2.70976 3.0601,-4.8972 0.18313,-2.28146 -0.24784,-3.65064 -1.80256,-5.72667 -3.4758,-4.64125 -11.63965,-8.65249 -23.62074,-11.60586 -10.86832,-2.67906 -30.12039,-3.96998 -47.140141,-3.16091 -16.77362,0.79738 -27.89087,2.76391 -37.520538,6.63702 -6.91935,2.783 -11.78576,6.30744 -13.58327,9.83749 -0.99552,1.95507 -1.00835,4.64974 -0.03,6.31312 0.82932,1.41007 1.391,1.93448 3.77344,3.5231 4.04717,2.69866 10.05857,5.01185 18.256248,7.02502 15.25453,3.74618 32.75234,5.07224 51.990621,3.94009 z M 18.823011,132.62212 c 4.41128,-6.40499 17.05001,-12.35891 33.605078,-15.83087 21.88191,-4.58911 40.681395,-5.74753 60.324991,-3.71722 4.29289,0.4437 16.27365,2.34445 21.58147,3.42391 19.89036,4.04513 33.83399,11.24248 36.40639,18.79207 0.54945,1.61253 0.83793,1.68784 0.70597,0.1843 -0.21628,-2.4644 -0.6809,-4.4455 -1.43008,-6.09777 -5.78974,-12.76901 -28.56554,-21.48562 -62.42312,-23.89021 -5.68071,-0.40344 -21.085581,-0.40249 -26.987501,0.002 -20.35856,1.39415 -36.132228,4.99144 -48.286458,11.01206 -9.79875,4.85382 -15.134581,11.2409 -15.614871,18.69123 l -0.15927,2.47064 0.62924,-1.7802 c 0.34609,-0.9791 1.08776,-2.44593 1.648161,-3.25961 z m 68.732158,-19.88499 c -0.32543,-0.0628 -0.92074,-0.0644 -1.32292,-0.004 -0.40218,0.0608 -0.13593,0.1122 0.59167,0.11419 0.72761,0.002 1.05667,-0.0478 0.73125,-0.11058 z m 14.283851,-4.7e-4 c -0.32742,-0.0631 -0.86321,-0.0631 -1.19063,0 -0.32742,0.0631 -0.0595,0.11466 0.59532,0.11466 0.65484,0 0.92273,-0.0516 0.59531,-0.11466 z"
       id="path931"
       inkscape:connector-curvature="0" />
  </g>
</svg>
