<?xml version="1.0" encoding="UTF-8" standalone="no"?>
<!-- Created with Inkscape (http://www.inkscape.org/) -->

<svg
   xmlns:dc="http://purl.org/dc/elements/1.1/"
   xmlns:cc="http://creativecommons.org/ns#"
   xmlns:rdf="http://www.w3.org/1999/02/22-rdf-syntax-ns#"
   xmlns:svg="http://www.w3.org/2000/svg"
   xmlns="http://www.w3.org/2000/svg"
   xmlns:sodipodi="http://sodipodi.sourceforge.net/DTD/sodipodi-0.dtd"
   xmlns:inkscape="http://www.inkscape.org/namespaces/inkscape"
   width="210mm"
   height="297mm"
   viewBox="0 0 210 297"
   version="1.1"
   id="svg866"
   inkscape:version="0.92.5 (2060ec1f9f, 2020-04-08)"
   sodipodi:docname="diagram1.svg">
  <defs
     id="defs860">
    <marker
       inkscape:isstock="true"
       style="overflow:visible"
       id="marker4855"
       refX="0.0"
       refY="0.0"
       orient="auto"
       inkscape:stockid="DotM">
      <path
         transform="scale(0.4) translate(7.4, 1)"
         style="fill-rule:evenodd;stroke:#000000;stroke-width:1pt;stroke-opacity:1;fill:#000000;fill-opacity:1"
         d="M -2.5,-1.0 C -2.5,1.7600000 -4.7400000,4.0 -7.5,4.0 C -10.260000,4.0 -12.5,1.7600000 -12.5,-1.0 C -12.5,-3.7600000 -10.260000,-6.0 -7.5,-6.0 C -4.7400000,-6.0 -2.5,-3.7600000 -2.5,-1.0 z "
         id="path4853" />
    </marker>
    <marker
       inkscape:stockid="DotM"
       orient="auto"
       refY="0.0"
       refX="0.0"
       id="marker4779"
       style="overflow:visible"
       inkscape:isstock="true"
       inkscape:collect="always">
      <path
         id="path4777"
         d="M -2.5,-1.0 C -2.5,1.7600000 -4.7400000,4.0 -7.5,4.0 C -10.260000,4.0 -12.5,1.7600000 -12.5,-1.0 C -12.5,-3.7600000 -10.260000,-6.0 -7.5,-6.0 C -4.7400000,-6.0 -2.5,-3.7600000 -2.5,-1.0 z "
         style="fill-rule:evenodd;stroke:#000000;stroke-width:1pt;stroke-opacity:1;fill:#000000;fill-opacity:1"
         transform="scale(0.4) translate(7.4, 1)" />
    </marker>
    <marker
       inkscape:isstock="true"
       style="overflow:visible"
       id="marker4709"
       refX="0.0"
       refY="0.0"
       orient="auto"
       inkscape:stockid="DotM"
       inkscape:collect="always">
      <path
         transform="scale(0.4) translate(7.4, 1)"
         style="fill-rule:evenodd;stroke:#000000;stroke-width:1pt;stroke-opacity:1;fill:#000000;fill-opacity:1"
         d="M -2.5,-1.0 C -2.5,1.7600000 -4.7400000,4.0 -7.5,4.0 C -10.260000,4.0 -12.5,1.7600000 -12.5,-1.0 C -12.5,-3.7600000 -10.260000,-6.0 -7.5,-6.0 C -4.7400000,-6.0 -2.5,-3.7600000 -2.5,-1.0 z "
         id="path4707" />
    </marker>
    <marker
       inkscape:isstock="true"
       style="overflow:visible"
       id="marker4645"
       refX="0.0"
       refY="0.0"
       orient="auto"
       inkscape:stockid="DotM">
      <path
         transform="scale(0.4) translate(7.4, 1)"
         style="fill-rule:evenodd;stroke:#000000;stroke-width:1pt;stroke-opacity:1;fill:#000000;fill-opacity:1"
         d="M -2.5,-1.0 C -2.5,1.7600000 -4.7400000,4.0 -7.5,4.0 C -10.260000,4.0 -12.5,1.7600000 -12.5,-1.0 C -12.5,-3.7600000 -10.260000,-6.0 -7.5,-6.0 C -4.7400000,-6.0 -2.5,-3.7600000 -2.5,-1.0 z "
         id="path4643" />
    </marker>
    <marker
       inkscape:stockid="DotM"
       orient="auto"
       refY="0.0"
       refX="0.0"
       id="marker4515"
       style="overflow:visible"
       inkscape:isstock="true"
       inkscape:collect="always">
      <path
         id="path4513"
         d="M -2.5,-1.0 C -2.5,1.7600000 -4.7400000,4.0 -7.5,4.0 C -10.260000,4.0 -12.5,1.7600000 -12.5,-1.0 C -12.5,-3.7600000 -10.260000,-6.0 -7.5,-6.0 C -4.7400000,-6.0 -2.5,-3.7600000 -2.5,-1.0 z "
         style="fill-rule:evenodd;stroke:#000000;stroke-width:1pt;stroke-opacity:1;fill:#000000;fill-opacity:1"
         transform="scale(0.4) translate(7.4, 1)" />
    </marker>
    <marker
       inkscape:stockid="DotM"
       orient="auto"
       refY="0.0"
       refX="0.0"
       id="marker4301"
       style="overflow:visible"
       inkscape:isstock="true">
      <path
         id="path4299"
         d="M -2.5,-1.0 C -2.5,1.7600000 -4.7400000,4.0 -7.5,4.0 C -10.260000,4.0 -12.5,1.7600000 -12.5,-1.0 C -12.5,-3.7600000 -10.260000,-6.0 -7.5,-6.0 C -4.7400000,-6.0 -2.5,-3.7600000 -2.5,-1.0 z "
         style="fill-rule:evenodd;stroke:#000000;stroke-width:1pt;stroke-opacity:1;fill:#000000;fill-opacity:1"
         transform="scale(0.4) translate(7.4, 1)" />
    </marker>
    <marker
       inkscape:isstock="true"
       style="overflow:visible"
       id="marker2999"
       refX="0.0"
       refY="0.0"
       orient="auto"
       inkscape:stockid="DotM"
       inkscape:collect="always">
      <path
         transform="scale(0.4) translate(7.4, 1)"
         style="fill-rule:evenodd;stroke:#000000;stroke-width:1pt;stroke-opacity:1;fill:#000000;fill-opacity:1"
         d="M -2.5,-1.0 C -2.5,1.7600000 -4.7400000,4.0 -7.5,4.0 C -10.260000,4.0 -12.5,1.7600000 -12.5,-1.0 C -12.5,-3.7600000 -10.260000,-6.0 -7.5,-6.0 C -4.7400000,-6.0 -2.5,-3.7600000 -2.5,-1.0 z "
         id="path2997" />
    </marker>
    <marker
       inkscape:stockid="EmptyDiamondL"
       orient="auto"
       refY="0.0"
       refX="0.0"
       id="EmptyDiamondL"
       style="overflow:visible"
       inkscape:isstock="true">
      <path
         id="path2173"
         d="M 0,-7.0710768 L -7.0710894,0 L 0,7.0710589 L 7.0710462,0 L 0,-7.0710768 z "
         style="fill-rule:evenodd;fill:#ffffff;stroke:#000000;stroke-width:1pt;stroke-opacity:1"
         transform="scale(0.8)" />
    </marker>
    <marker
       inkscape:stockid="DotL"
       orient="auto"
       refY="0.0"
       refX="0.0"
       id="DotL"
       style="overflow:visible"
       inkscape:isstock="true">
      <path
         id="path2128"
         d="M -2.5,-1.0 C -2.5,1.7600000 -4.7400000,4.0 -7.5,4.0 C -10.260000,4.0 -12.5,1.7600000 -12.5,-1.0 C -12.5,-3.7600000 -10.260000,-6.0 -7.5,-6.0 C -4.7400000,-6.0 -2.5,-3.7600000 -2.5,-1.0 z "
         style="fill-rule:evenodd;stroke:#000000;stroke-width:1pt;stroke-opacity:1;fill:#000000;fill-opacity:1"
         transform="scale(0.8) translate(7.4, 1)" />
    </marker>
    <inkscape:perspective
       sodipodi:type="inkscape:persp3d"
       inkscape:vp_x="0 : 148.5 : 1"
       inkscape:vp_y="0 : 1000 : 0"
       inkscape:vp_z="210 : 148.5 : 1"
       inkscape:persp3d-origin="105 : 99 : 1"
       id="perspective2353" />
    <marker
       inkscape:stockid="Arrow1Lstart"
       orient="auto"
       refY="0.0"
       refX="0.0"
       id="Arrow1Lstart"
       style="overflow:visible"
       inkscape:isstock="true">
      <path
         id="path2067"
         d="M 0.0,0.0 L 5.0,-5.0 L -12.5,0.0 L 5.0,5.0 L 0.0,0.0 z "
         style="fill-rule:evenodd;stroke:#000000;stroke-width:1pt;stroke-opacity:1;fill:#000000;fill-opacity:1"
         transform="scale(0.8) translate(12.5,0)" />
    </marker>
  </defs>
  <sodipodi:namedview
     id="base"
     pagecolor="#ffffff"
     bordercolor="#666666"
     borderopacity="1.0"
     inkscape:pageopacity="0.0"
     inkscape:pageshadow="2"
     inkscape:zoom="0.24748737"
     inkscape:cx="-1776.7588"
     inkscape:cy="318.20244"
     inkscape:document-units="mm"
     inkscape:current-layer="layer1"
     showgrid="false"
     inkscape:window-width="1920"
     inkscape:window-height="1017"
     inkscape:window-x="-8"
     inkscape:window-y="-8"
     inkscape:window-maximized="1" />
  <metadata
     id="metadata863">
    <rdf:RDF>
      <cc:Work
         rdf:about="">
        <dc:format>image/svg+xml</dc:format>
        <dc:type
           rdf:resource="http://purl.org/dc/dcmitype/StillImage" />
        <dc:title />
      </cc:Work>
    </rdf:RDF>
  </metadata>
  <g
     inkscape:label="Layer 1"
     inkscape:groupmode="layer"
     id="layer1">
    <path
       style="fill:#000000;fill-opacity:1;stroke-width:0.37675685"
       d="m 216.34795,322.999 c -22.4869,-1.70891 -40.82289,-6.09603 -51.53369,-12.33006 -4.41607,-2.57029 -7.58896,-5.56814 -9.41006,-8.8909 -1.4008,-2.55584 -1.67687,-3.76383 -2.16837,-9.48746 -0.23134,-2.6938 -0.67617,-6.08461 -0.98853,-7.53514 -0.71398,-3.31551 -0.40043,-7.17629 0.80009,-9.85142 0.92989,-2.0721 4.4032,-5.82191 6.9596,-7.51366 1.13115,-0.74855 1.52388,-1.26137 1.5269,-1.99378 0.006,-1.21104 0.85418,-4.07657 1.68301,-5.67935 3.4614,-6.69362 17.23123,-12.94944 35.63794,-16.1908 29.29238,-5.15832 66.04854,-2.44229 86.25612,6.37374 6.63397,2.89421 12.53276,7.5832 13.55386,10.77403 0.25976,0.8117 0.62133,1.63691 0.80353,1.83375 0.18218,0.19687 0.33124,1.13344 0.33124,2.08128 0,1.67586 0.0635,1.76961 2.30391,3.40112 2.82185,2.05492 5.05812,4.53125 6.12366,6.78105 0.44164,0.93245 0.91972,1.78374 1.06242,1.89172 0.32967,0.24947 0.48419,7.85103 0.16606,8.16917 -0.13044,0.13043 -0.23713,1.46934 -0.23713,2.97538 0,3.47837 -0.74018,7.15835 -2.65283,13.18918 -0.67103,2.11583 -4.77118,6.33553 -8.49402,8.74173 -4.75722,3.07475 -13.25038,6.43309 -21.54367,8.51877 -8.04388,2.02293 -21.5577,4.18224 -21.56823,3.44629 -0.004,-0.26178 -0.10263,-0.25216 -0.28258,0.0275 -0.15251,0.23707 -2.307,0.63084 -4.79788,0.87689 -5.6203,0.55518 -27.94522,0.81548 -33.53135,0.39095 z m 24.86595,-0.77035 c 22.30944,-1.20607 40.31216,-4.93624 51.83903,-10.74109 1.38189,-0.6959 2.61748,-1.16029 2.7458,-1.03198 0.12829,0.12831 0.23327,0.0515 0.23327,-0.17046 0,-0.42157 3.38619,-2.58313 3.83881,-2.4505 0.14278,0.0418 0.36613,-0.25956 0.49634,-0.6698 0.13015,-0.41022 0.3574,-0.74585 0.5049,-0.74585 0.45955,0 2.84976,-2.50009 3.5641,-3.72796 0.65633,-1.12811 0.65633,-1.16979 0,-1.1673 -0.37434,0.001 -1.10062,0.61915 -1.61396,1.37274 -1.4648,2.15038 -4.93467,5.50723 -6.85737,6.63402 -2.61322,1.53144 -5.07825,1.9566 -7.6083,1.31222 l -2.06897,-0.52695 -1.81519,1.43891 c -0.99837,0.79141 -2.32383,1.70195 -2.94548,2.02344 -0.62165,0.32147 -1.7021,0.92463 -2.401,1.34035 -2.01817,1.20041 -6.41066,2.52631 -9.27847,2.80074 -2.71465,0.25977 -6.17799,-0.18641 -9.07095,-1.16858 -1.54853,-0.52575 -1.62185,-0.50942 -5.10386,1.13648 -8.89803,4.20596 -17.01783,4.61815 -25.62048,1.30062 -1.65979,-0.64007 -3.30296,-1.07479 -3.65152,-0.966 -0.34856,0.10882 -1.87226,0.63182 -3.38603,1.16234 -3.94083,1.38113 -8.7619,1.89639 -12.76245,1.36403 -3.77096,-0.50183 -9.47389,-2.45032 -12.57032,-4.29487 l -2.19222,-1.30589 -2.31993,0.72206 c -2.90647,0.90458 -8.06725,0.96395 -10.94401,0.12587 -3.40584,-0.99219 -9.78886,-4.88042 -11.60575,-7.06964 -0.37677,-0.45397 -0.70264,-0.49852 -1.48127,-0.20248 -1.56766,0.59603 -4.24953,0.30488 -6.10177,-0.66243 l -1.69541,-0.8854 1.13028,0.95328 c 1.91539,1.61548 10.67809,5.68773 15.63541,7.2662 17.20516,5.47829 40.83944,8.03766 63.10677,6.83388 z m 7.55836,-2.64877 c 1.64496,-0.42849 4.55908,-1.51975 6.47583,-2.42502 l 3.48499,-1.64595 v -1.95635 -1.95636 l -2.54309,0.22674 c -1.39871,0.12473 -8.05319,0.49657 -14.78772,0.82637 -6.73453,0.32979 -12.63513,0.67903 -13.11245,0.77608 -0.77796,0.15814 -0.85599,0.35829 -0.75351,1.93257 l 0.11439,1.75614 2.26054,0.90835 c 6.17963,2.48316 13.11031,3.05546 18.86107,1.55743 z m -29.59864,-0.0307 c 0.31082,-0.1463 1.41284,-0.5228 2.44892,-0.83665 1.03609,-0.31385 2.51957,-0.83698 3.29662,-1.16251 1.35125,-0.56608 1.41284,-0.66989 1.41284,-2.38148 v -1.7896 l -15.25866,-1.31528 -15.25866,-1.31529 v 1.78656 c 0,1.69111 0.0856,1.84093 1.60123,2.80387 2.16512,1.37556 6.14155,3.02316 9.43479,3.90921 2.0951,0.5637 3.74869,0.71198 7.23671,0.6489 2.48659,-0.0449 4.77538,-0.20144 5.08621,-0.34773 z m 55.62358,-3.66856 c 3.0151,-0.98035 5.91904,-2.51546 8.9895,-4.75211 2.00451,-1.46015 2.06891,-1.56266 2.07086,-3.29662 0.001,-1.14143 -0.16166,-1.78959 -0.44989,-1.78959 -0.47445,0 -24.10691,5.14773 -25.2811,5.50685 -0.54854,0.16778 -0.65691,0.53881 -0.56513,1.93506 0.11117,1.69139 0.15038,1.73993 1.8765,2.32318 0.96963,0.32764 1.86252,0.69744 1.98421,0.82173 0.1217,0.12432 2.12579,0.20351 4.45353,0.17596 3.30421,-0.0391 4.822,-0.24179 6.92152,-0.92446 z m -81.90237,-1.06896 2.16635,-0.58 v -1.80875 c 0,-1.39677 -0.15018,-1.8534 -0.65931,-2.00479 -1.55098,-0.46118 -23.43208,-6.25961 -23.6214,-6.25961 -0.11464,0 -0.20848,0.81181 -0.20848,1.80401 0,1.66316 0.12501,1.90754 1.60121,3.13017 7.23916,5.99569 13.36911,7.68751 20.72163,5.71897 z m 30.35916,-3.31579 c -5.28344,-2.7514 -11.68259,-4.18732 -16.82841,-3.77615 -2.73546,0.21857 -7.41149,1.32924 -8.53873,2.02817 -0.27786,0.17228 22.47038,2.42963 26.56137,2.63572 0.31081,0.0156 -0.22658,-0.38381 -1.19423,-0.88774 z m 8.662,-1.44127 c 4.95984,-2.01442 7.85179,-2.60107 12.8771,-2.61212 5.08476,-0.0111 8.04551,0.51989 12.11361,2.1729 l 2.34522,0.95295 2.58461,-1.7341 c 5.2693,-3.5353 9.8015,-5.4237 14.44211,-6.01742 2.23496,-0.28596 6.77165,0.33988 8.53653,1.17759 l 1.2328,0.58517 4.00516,-3.93739 c 5.59203,-5.4974 9.25374,-7.17847 12.56261,-5.76741 l 1.12072,0.47792 1.73776,-4.35668 c 0.95577,-2.39618 2.03218,-4.92345 2.39205,-5.61616 0.35986,-0.69271 0.57075,-1.343 0.46865,-1.44511 -0.10214,-0.10213 -0.39516,0.20587 -0.65125,0.68439 -0.789,1.47427 -4.19706,4.86569 -6.3886,6.35742 -11.10811,7.56104 -31.33069,12.7175 -56.3136,14.35911 -8.23874,0.54137 -29.45171,0.2038 -36.54542,-0.58156 -28.73336,-3.18109 -48.20713,-10.24629 -54.57408,-19.79983 -0.88598,-1.32943 -0.79407,-0.42206 0.40954,4.04215 0.82638,3.06503 1.15868,3.81465 1.60696,3.62492 2.70297,-1.14399 4.98139,-0.13784 9.04216,3.99325 1.76135,1.79181 3.6263,3.88839 4.14433,4.65906 0.72555,1.07938 1.11496,1.34734 1.6954,1.16664 4.71856,-1.46897 7.29805,-1.64701 10.73758,-0.74111 2.87972,0.75844 7.76042,3.29349 10.98354,5.70486 1.49166,1.11599 2.85732,2.02908 3.03477,2.02908 0.17745,0 0.95298,-0.26996 1.72338,-0.59988 8.05586,-3.44999 17.76826,-2.64961 27.20859,2.2422 2.4479,1.26845 2.44945,1.26871 3.76756,0.60771 0.72526,-0.3637 2.39035,-1.09654 3.70021,-1.62855 z m 13.81899,1.44109 c 5.59484,-0.30484 10.42673,-0.56121 10.73756,-0.56967 0.97186,-0.0265 -1.94096,-1.14169 -4.97064,-1.90313 -5.51324,-1.3856 -12.25791,-0.80787 -18.38827,1.57509 -4.33012,1.68319 -4.4363,1.91834 -0.75352,1.66891 1.76134,-0.11935 7.78004,-0.46634 13.37487,-0.7712 z m 27.56262,-3.76786 c 6.16018,-1.35236 11.26949,-2.52799 11.35404,-2.61254 0.44294,-0.44293 -3.57705,-1.10537 -6.70396,-1.1047 -4.26213,7.6e-4 -6.74583,0.66471 -11.3027,3.02082 -3.01439,1.55858 -5.41701,3.12816 -4.81696,3.14683 0.14812,0.004 5.30942,-1.09809 11.46958,-2.45041 z m 21.60877,1.13781 c 2.3833,-1.20771 4.75321,-3.35114 6.97884,-6.31187 1.39769,-1.85935 1.68194,-2.51769 1.68194,-3.89555 0,-0.91195 -0.0799,-1.65808 -0.17758,-1.65808 -0.0977,0 -3.75032,1.8703 -8.11697,4.15625 -4.36666,2.28593 -8.05902,4.08181 -8.20524,3.99084 -0.14625,-0.091 -0.20849,0.83518 -0.13827,2.05811 0.12194,2.12581 0.17989,2.23959 1.31866,2.58937 1.79144,0.55025 4.47954,0.17519 6.65869,-0.92907 z m -103.236,-0.94648 c -1.66729,-1.41217 -8.31236,-4.69489 -10.5492,-5.2114 -0.93246,-0.2153 -2.62787,-0.40912 -3.76757,-0.43073 -2.21193,-0.0418 -5.86183,0.66626 -5.46729,1.0608 0.22924,0.22926 19.96318,5.63475 20.72595,5.67723 0.20722,0.0111 -0.21664,-0.48162 -0.94189,-1.0959 z m -23.26474,-0.1572 c 0.9696,-0.21246 1.03597,-0.3535 1.03436,-2.19783 l -0.001,-1.97078 -6.87409,-4.4553 -6.8741,-4.45531 -0.11761,1.57258 c -0.0927,1.23893 0.14711,2.01699 1.13028,3.66718 1.55349,2.60746 4.94367,6.34107 6.48902,7.14638 1.24464,0.64858 3.1831,1.16516 3.80109,1.01291 0.20722,-0.051 0.84298,-0.19497 1.41284,-0.31983 z m -8.64745,-2.19065 c -0.64127,-0.67345 -1.86131,-2.22741 -2.7112,-3.45326 -1.64625,-2.37447 -2.10644,-2.47013 -0.69564,-0.14463 0.85937,1.41657 3.92764,4.82235 4.34446,4.82235 0.12558,0 -0.29635,-0.551 -0.93762,-1.22446 z m 81.54075,-1.22082 c 28.29413,-0.87337 54.8684,-8.33585 63.39849,-17.8033 3.47639,-3.85842 3.27032,-3.40039 3.47611,-7.72585 0.0567,-1.19162 -0.0111,-2.16649 -0.15027,-2.16635 -0.13926,1.2e-4 -0.45431,-0.60871 -0.69993,-1.35296 -0.44172,-1.33839 -5.17862,-6.46041 -6.75479,-7.30394 -0.72482,-0.38792 -0.76895,-0.30699 -0.76895,1.41015 0,1.00193 -0.18538,2.00706 -0.41195,2.23364 -0.46612,0.46612 -0.50288,2.09667 -0.13571,6.0223 0.23102,2.47025 0.16228,2.88962 -0.7941,4.84439 -4.50074,9.19918 -22.67632,16.17654 -49.04234,18.8267 -14.25043,1.43237 -34.19987,0.9416 -47.00749,-1.1564 -11.93394,-1.9549 -20.63832,-4.38161 -27.58007,-7.68909 -4.21459,-2.00809 -8.18377,-4.66349 -9.7649,-6.53279 -2.40104,-2.83863 -3.8145,-8.31042 -2.78731,-10.79029 0.3943,-0.95195 0.37159,-1.45321 -0.13627,-3.00599 -0.33525,-1.02496 -0.60953,-2.47903 -0.60953,-3.23127 v -1.3677 l -1.22447,0.86197 c -2.25363,1.58646 -5.09452,4.69627 -6.09655,6.67367 -7.19614,14.20091 24.17926,27.86144 67.53948,29.40595 4.28239,0.15254 8.97293,0.22563 10.42346,0.16242 1.4505,-0.0633 5.55775,-0.20508 9.12719,-0.31526 z m 60.00769,-7.35997 c 1.48171,-0.74801 1.60042,-0.89298 0.94189,-1.15019 -2.71045,-1.05861 -6.24895,0.51283 -10.52917,4.67598 l -3.03408,2.95108 5.46298,-2.81048 c 3.00463,-1.54576 6.22591,-3.19563 7.15838,-3.66639 z m -134.44031,3.11782 c -1.39065,-1.73612 -4.32149,-4.52761 -6.09001,-5.80042 -1.32314,-0.95229 -3.80207,-1.2742 -4.09703,-0.53203 -0.1051,0.26448 10.47703,7.56112 11.19288,7.71774 0.0692,0.0151 -0.3834,-0.60823 -1.00584,-1.38529 z m 78.68029,0.88548 c 0.51804,-0.0869 2.21344,-0.26341 3.76756,-0.39232 12.3741,-1.0264 26.79324,-4.43936 35.98028,-8.51644 5.25247,-2.33096 10.21084,-6.12767 11.8429,-9.06825 l 0.91693,-1.65213 -1.97692,2.15114 c -7.33781,7.98448 -24.56996,13.47396 -49.58887,15.79706 -6.41432,0.59561 -25.42646,0.59385 -31.64757,-0.002 -25.34587,-2.43128 -42.28974,-7.81968 -49.54237,-15.75521 -1.92609,-2.10746 -1.92864,-2.10875 -1.1291,-0.57479 3.53122,6.77479 18.28316,13.07426 38.61526,16.48973 3.6194,0.608 10.79459,1.3785 15.44702,1.65875 5.26538,0.31718 25.20675,0.21889 27.31488,-0.13456 z m 61.10345,-3.99373 c 2.70931,-8.5843 2.51172,-11.12629 -0.37641,-4.84243 -1.59614,3.47281 -1.96468,4.65452 -1.95943,6.2829 0.006,1.70345 0.10585,1.98725 0.66579,1.88377 0.46313,-0.0855 0.96008,-1.07472 1.67005,-3.32424 z m -59.40804,1.14111 c 16.35921,-1.49541 29.47608,-4.54402 38.88107,-9.03669 8.27562,-3.95318 12.38333,-8.58594 11.8309,-13.34312 -0.0817,-0.70408 -1.14255,0.64868 -2.10859,2.68901 -0.55743,1.17731 -1.50083,2.75584 -2.09645,3.50789 -1.20011,1.51524 -6.52065,5.35899 -6.89701,4.98262 -0.13142,-0.13144 -0.23883,-0.0643 -0.23883,0.14926 0,0.72502 -7.03631,3.57708 -12.87769,5.21975 -24.16578,6.79578 -58.57415,7.09873 -83.28283,0.73329 -13.74556,-3.54113 -21.8682,-8.18038 -24.75434,-14.13847 -0.57224,-1.18132 -1.30955,-2.53207 -1.63846,-3.00167 -0.58847,-0.84016 -0.59991,-0.82745 -0.71629,0.79688 -0.15983,2.23065 1.28502,4.77359 4.3199,7.60319 2.64037,2.46175 9.85878,6.24399 15.15319,7.93983 10.56213,3.38313 23.92748,5.60437 38.61757,6.41801 4.13729,0.22915 21.42356,-0.11909 25.80786,-0.51978 z m -3.39082,-1.8851 c 3.10824,-0.22215 7.55791,-0.66003 9.88814,-0.97305 2.33023,-0.31301 4.87335,-0.64628 5.65136,-0.74059 7.54294,-0.91438 19.46413,-4.52096 25.90375,-7.83682 2.07217,-1.06699 3.90733,-1.89568 4.07815,-1.84154 0.17081,0.0541 0.20319,-0.0753 0.0719,-0.28765 -0.13128,-0.21234 -0.10139,-0.38704 0.0662,-0.38819 0.45166,-0.002 3.59167,-3.06107 4.36904,-4.25487 0.66222,-1.01698 0.64607,-1.0133 -0.9708,0.22088 -2.23916,1.70918 -7.72679,4.48818 -11.38209,5.764 -1.65773,0.57859 -3.10292,1.17984 -3.21149,1.33613 -0.1087,0.15626 -0.95629,0.46266 -1.8838,0.68087 -0.92749,0.21819 -3.80561,0.8999 -6.39581,1.51489 -4.18723,0.99418 -12.42346,2.54178 -13.93999,2.61935 -0.31083,0.016 -2.51486,0.28156 -4.89784,0.59037 -11.38469,1.4753 -27.82662,1.46956 -41.44325,-0.0145 -5.3501,-0.5831 -11.47807,-1.53648 -12.43298,-1.93433 -0.31083,-0.12943 -0.70314,-0.2049 -0.87181,-0.1676 -0.16866,0.0373 -0.96444,-0.10919 -1.76841,-0.32576 -0.80395,-0.21648 -2.10856,-0.44844 -2.89912,-0.51546 -1.87578,-0.15904 -8.80324,-2.0994 -9.53095,-2.6696 -0.31082,-0.24355 -1.83668,-0.92347 -3.3908,-1.51094 -3.90762,-1.47709 -6.9323,-3.01801 -9.69602,-4.9396 -1.29207,-0.89837 -2.30932,-1.44609 -2.26054,-1.21714 0.0489,0.22894 1.30245,1.55419 2.78589,2.94502 7.16216,6.715 21.21261,11.15013 43.07879,13.59818 3.37039,0.37733 23.94258,1.0584 25.05433,0.82945 0.20722,-0.0427 2.91986,-0.25933 6.0281,-0.48149 z m -89.47267,-3.41381 -0.4051,-0.92842 0.19387,0.9419 c 0.10659,0.51804 0.2258,1.62005 0.26482,2.44891 l 0.0709,1.50704 0.14027,-1.52051 c 0.0771,-0.83626 -0.042,-1.93828 -0.26484,-2.44892 z m 93.05186,-0.86802 c 0.51805,-0.10151 2.12869,-0.29605 3.57919,-0.43225 1.45051,-0.13628 4.67178,-0.56821 7.15839,-0.96 19.19617,-3.02458 33.34593,-8.66487 38.42502,-15.31677 0.67185,-0.87988 1.29276,-1.52855 1.37983,-1.44149 0.087,0.087 0.18245,-0.13029 0.21202,-0.48311 0.0295,-0.35275 0.15158,-1.74339 0.27115,-3.09029 0.11959,-1.3469 0.10535,-2.19462 -0.0314,-1.88379 -0.13684,0.31084 -0.83848,1.28825 -1.55911,2.17204 -4.65698,5.71146 -16.54608,10.85142 -31.91582,13.79804 -10.859,2.08185 -20.51234,2.9698 -32.77784,3.01505 -16.69518,0.0615 -29.54064,-1.30009 -42.38515,-4.49295 -6.72363,-1.67136 -13.43531,-3.99603 -14.02843,-4.85894 -0.15224,-0.22148 -0.27939,-0.27309 -0.28257,-0.11476 -0.009,0.44633 -4.18466,-1.76914 -6.84454,-3.63144 -2.63159,-1.84248 -3.49909,-2.69391 -5.0386,-4.9452 l -1.03054,-1.50703 0.23676,2.40332 c 0.47111,4.78196 4.31467,8.7601 12.01395,12.43465 9.06837,4.32792 23.84728,7.89417 37.57937,9.06811 2.5902,0.22144 5.30285,0.46977 6.02811,0.55186 1.78902,0.20252 27.82818,-0.0534 29.01026,-0.2851 z m 1.31864,-6.44058 c 22.44726,-2.20417 39.0439,-7.45686 46.21304,-14.62602 3.02495,-3.02495 3.91993,-5.94929 2.88149,-9.41529 -0.51927,-1.73319 -4.87116,-6.37259 -7.27451,-7.7551 -12.03196,-6.92134 -30.25728,-10.96656 -52.74595,-11.70729 -35.8898,-1.18213 -66.57536,6.41164 -73.69099,18.23631 -1.19291,1.98239 -1.27335,5.82196 -0.15786,7.53514 1.72816,2.65414 3.16576,4.12567 5.65063,5.78394 10.00119,6.6743 27.68337,11.12629 49.54875,12.47532 7.17761,0.44284 22.47443,0.17026 29.5754,-0.52701 z m -24.11242,-1.02332 c -15.50987,-0.43875 -28.45401,-2.56737 -38.99435,-6.41246 -21.84876,-7.97037 -21.34119,-20.54086 1.14543,-28.36795 12.96042,-4.5112 28.94418,-6.54422 47.97834,-6.10249 20.04987,0.46533 35.8052,3.48491 46.61058,8.93314 8.1362,4.10239 11.39193,8.54138 10.09371,13.76218 -0.71168,2.86204 -4.63676,6.57581 -9.60286,9.08585 -8.75271,4.42392 -22.32125,7.61435 -37.26273,8.76176 -7.44465,0.57168 -10.14917,0.61774 -19.96812,0.33997 z m 12.2446,-1.30125 c -3.8735,-1.68907 -17.05807,-6.95224 -17.16012,-6.85019 -0.0655,0.0655 0.0812,1.63505 0.32606,3.48788 0.40997,3.10284 0.51948,3.38943 1.38701,3.63024 0.51805,0.14379 4.50226,0.27171 8.8538,0.28425 7.40715,0.0214 7.82777,-0.0142 6.59325,-0.55218 z m -17.58873,-3.23434 c -0.28188,-1.90412 -0.5511,-3.49736 -0.59824,-3.54054 -0.0472,-0.0432 -1.54972,1.21806 -3.339,2.80273 -2.40091,2.12637 -3.11594,2.96051 -2.7291,3.18384 0.76973,0.44442 3.47077,0.92749 5.45034,0.97477 l 1.7285,0.0412 z m 23.9622,3.32297 c -0.0863,-0.0765 -5.2856,-2.21944 -11.55388,-4.76204 -6.2683,-2.5426 -11.3969,-4.73717 -11.3969,-4.87681 0,-0.38042 5.90964,-5.42929 6.66507,-5.69428 0.42914,-0.15054 0.0893,-0.31987 -0.98775,-0.49209 -0.90313,-0.14442 -2.12613,-0.60727 -2.71779,-1.02856 -1.9977,-1.42249 -1.12186,-2.93137 2.28959,-3.94447 1.09097,-0.32398 1.92447,-0.6431 1.85223,-0.70915 -0.0722,-0.0661 -7.13057,-2.96244 -15.68518,-6.43638 l -15.55381,-6.3163 -2.15376,0.5281 -2.15374,0.5281 2.07217,0.1134 c 1.53732,0.0841 3.89783,0.85489 9.14553,2.9865 3.89034,1.58025 7.01293,3.05514 6.93907,3.2775 -0.0869,0.26162 -6.40293,0.745 -17.89721,1.36968 -9.76963,0.53096 -17.87954,1.08197 -18.02202,1.22446 -0.37051,0.37051 -0.65983,0.38113 20.11959,-0.73841 l 18.93443,-1.02015 5.46057,2.21344 c 3.00333,1.21741 5.46059,2.41592 5.46059,2.66338 0,0.24747 -0.44087,0.56059 -0.97971,0.69582 -0.53881,0.13528 -1.4289,0.55894 -1.97797,0.94154 -0.89391,0.62293 -3.44029,0.82062 -24.35721,1.89097 -12.84741,0.65744 -23.74038,1.2726 -24.20662,1.36704 -1.04522,0.2117 -1.06292,0.54742 -0.0881,1.67137 l 0.7596,0.87583 1.10915,-1.06262 1.10914,-1.06263 8.58626,-0.4748 c 13.62823,-0.75361 14.16372,-0.76503 14.31702,-0.30515 0.077,0.23108 -2.41006,2.66644 -5.52684,5.41194 -3.11679,2.74549 -5.66689,5.13725 -5.66689,5.31502 0,0.17776 0.43324,0.43196 0.96275,0.56485 0.67572,0.16959 1.20928,0.0222 1.78959,-0.49449 0.45476,-0.40485 3.59138,-3.1655 6.97025,-6.13476 l 6.14339,-5.39866 8.36174,-0.46536 c 6.76207,-0.37634 8.46987,-0.37344 8.92689,0.0151 0.31082,0.26429 1.11614,0.75962 1.78959,1.10077 0.67347,0.34113 1.22447,0.77336 1.22447,0.96051 0,0.18713 -3.62659,3.53121 -8.05909,7.43126 l -8.0591,7.09103 1.465,0.30457 c 1.28777,0.26772 1.56762,0.19154 2.31354,-0.62985 2.25115,-2.4789 7.92173,-7.03903 8.51087,-6.8442 0.34449,0.11389 5.11917,2.05744 10.61041,4.31894 7.27254,2.9951 10.43595,4.11961 11.64806,4.14049 0.9152,0.0159 1.59336,-0.0339 1.50703,-0.1103 z m 10.20383,-0.98871 c 6.75846,-0.98231 7.90327,-1.19076 8.07611,-1.47042 0.11489,-0.18606 -12.14896,-5.31788 -26.35179,-11.02687 l -1.55981,-0.62697 -1.67366,2.32238 c -1.5207,2.11015 -1.65364,2.46807 -1.45474,3.91662 0.12033,0.8768 0.29267,1.65357 0.38288,1.72613 0.0901,0.0727 3.30047,1.41944 7.13397,2.99303 7.95149,3.26398 7.92195,3.25985 15.44704,2.1661 z m -44.71831,-2.89858 c 1.58565,-1.38564 2.80943,-2.59293 2.71951,-2.68285 -0.09,-0.09 -1.06136,-0.0509 -2.15872,0.0868 -1.73536,0.2177 -2.32559,0.53937 -4.53208,2.47006 -2.46017,2.15264 -2.50574,2.22449 -1.50702,2.37612 2.34097,0.35541 2.63479,0.23473 5.47831,-2.2501 z m -5.03901,-0.57727 c 1.46448,-1.28872 2.66271,-2.50391 2.66271,-2.70043 0,-0.19652 -0.71614,-2.27394 -1.59143,-4.6165 l -1.59143,-4.25922 -0.95168,0.87017 c -0.52343,0.47858 -3.32524,2.96007 -6.22627,5.51437 -2.90104,2.55433 -5.32204,4.75873 -5.38001,4.89869 -0.0579,0.13998 1.72219,0.69534 3.95594,1.23418 4.83449,1.16622 5.43135,1.301 6.01393,1.35816 0.24505,0.024 1.64377,-1.0107 3.10824,-2.29942 z m 61.78648,1.35012 1.19743,-0.23949 -1.80964,-0.63629 c -3.89144,-1.36826 -13.6775,-5.48 -13.6775,-5.74677 0,-0.52356 1.6546,-0.66408 18.58507,-1.57857 9.28931,-0.50177 16.98927,-1.01194 17.11104,-1.1337 0.36103,-0.36103 -1.85403,-0.28072 -20.73699,0.75186 l -18.00709,0.98466 -5.43959,-2.20341 c -2.99179,-1.21187 -5.43396,-2.37294 -5.4271,-2.58016 0.007,-0.20722 0.97883,-0.83096 2.15993,-1.38612 2.14537,-1.0084 2.17033,-1.01063 25.99951,-2.31415 13.11865,-0.71764 23.93937,-1.39207 24.04604,-1.49873 0.10671,-0.1066 -0.0822,-0.72778 -0.41951,-1.38024 l -0.61346,-1.18628 -1.2718,1.11667 c -1.4468,1.2703 -1.63512,1.29625 -14.13415,1.9467 -4.04072,0.21027 -7.92661,0.42004 -8.63532,0.46614 -0.70871,0.0462 -1.34794,-0.0942 -1.42052,-0.31204 -0.0727,-0.21773 2.65238,-2.84384 6.05544,-5.8358 l 6.18741,-5.43993 -1.18429,-0.40924 c -1.16814,-0.40364 -1.26587,-0.33685 -7.16598,4.89785 -3.28995,2.91888 -6.54993,5.78134 -7.24442,6.36104 -1.25584,1.04823 -1.30941,1.05659 -9.84549,1.5355 -8.25927,0.4634 -8.60899,0.45475 -9.27829,-0.22934 -0.38253,-0.39099 -1.10307,-0.86585 -1.60121,-1.05524 -0.49815,-0.18941 -0.90572,-0.49492 -0.90572,-0.67895 0,-0.18402 3.83126,-3.70619 8.51389,-7.82703 l 8.5139,-7.49243 -1.63808,-0.25465 c -0.90094,-0.14011 -2.23148,-0.25647 -2.95673,-0.25869 -1.15828,-0.002 -1.21555,0.0374 -0.47095,0.3367 0.46623,0.1874 0.8477,0.49278 0.8477,0.67862 0,0.18582 -1.86418,1.98613 -4.14262,4.00068 l -4.14262,3.66282 -11.70023,-4.76368 c -9.07825,-3.69615 -12.01258,-4.73772 -13.09402,-4.64787 -1.19106,0.0989 0.34512,0.82155 10.56298,4.96864 6.57618,2.66907 12.13135,5.06325 12.34477,5.32042 0.28761,0.34655 -0.35181,1.11542 -2.47041,2.97053 -1.57217,1.37661 -3.04216,2.38944 -3.26665,2.25068 -0.24333,-0.15036 -0.2996,-0.0766 -0.13926,0.18271 0.14956,0.24201 0.05,0.44626 -0.22437,0.4604 -0.27124,0.0142 0.31225,0.24212 1.29666,0.50696 1.99309,0.5362 3.29638,1.51739 3.29638,2.48167 0,1.13102 -1.2359,1.86386 -4.89783,2.90427 -0.43583,0.12389 28.7845,12.39022 29.81088,12.51429 0.12944,0.0157 0.7743,-0.0794 1.43289,-0.21101 z m 9.26933,-2.77801 c 3.52101,-1.21887 8.24294,-3.46533 9.59556,-4.56509 l 0.94189,-0.76582 -3.20243,0.20077 c -1.76134,0.11031 -8.83647,0.49438 -15.72252,0.85325 -6.88604,0.35889 -12.48087,0.68993 -12.43297,0.73566 0.0478,0.0457 2.79139,1.18543 6.09661,2.53266 5.95554,2.42751 6.03505,2.44773 8.85379,2.25274 1.66038,-0.11476 4.10373,-0.63272 5.87007,-1.24417 z m -83.64547,-5.15921 c 2.98618,-2.63223 5.38495,-4.83036 5.33061,-4.8847 -0.12759,-0.12759 -19.56481,0.97913 -19.70774,1.12206 -0.0594,0.0594 0.34647,1.32081 0.90188,2.80321 l 1.0098,2.69528 3.21552,1.51248 c 1.76855,0.83184 3.35165,1.51811 3.51803,1.52501 0.16637,0.007 2.74573,-2.1411 5.7319,-4.77334 z m 38.6113,3.24589 c 0,-1.30289 -2.51403,-6.09902 -3.09538,-5.90523 -0.64872,0.21623 -4.79054,3.86095 -4.5147,3.97285 0.14482,0.0587 1.78917,0.76539 3.65412,1.5704 1.86495,0.80498 3.51798,1.47747 3.67338,1.49441 0.15541,0.017 0.28258,-0.49264 0.28258,-1.13243 z m -13.4038,-2.69851 3.58648,-3.10824 -0.21281,-1.69541 c -0.11699,-0.93247 -0.2723,-1.75664 -0.345,-1.83146 -0.15971,-0.16434 -14.95201,0.66 -15.13547,0.84348 -0.12744,0.12745 1.51747,4.76891 2.65491,7.49121 l 0.58859,1.40866 h 2.63841 2.63843 z m -39.75597,-1.88378 c -0.42875,-1.08789 -0.82121,-2.0197 -0.8721,-2.07068 -0.0509,-0.051 -0.4707,0.30978 -0.93284,0.80173 l -0.84029,0.89444 1.42698,1.17623 c 0.78485,0.64695 1.55542,1.17624 1.7124,1.17624 0.15698,0 -0.0654,-0.89008 -0.49415,-1.97796 z m 55.7934,-1.50703 c 0.001,-0.15541 -1.03172,-0.28258 -2.29719,-0.28258 -2.56033,0 -2.61201,0.12987 -0.99544,2.50281 l 0.80671,1.18414 1.24113,-1.56089 c 0.68262,-0.85851 1.24278,-1.68807 1.24479,-1.84348 z m 33.91178,1.23216 c 8.59947,-0.42466 16.8222,-0.87472 18.2727,-1.00015 l 2.6373,-0.22801 1.23216,-2.6473 c 0.67768,-1.45602 1.15219,-2.72726 1.05445,-2.825 -0.0977,-0.0977 -10.72408,0.3896 -23.6141,1.08299 -24.73784,1.33071 -24.6342,1.31756 -24.37434,3.09366 0.0869,0.59362 0.88196,1.08646 3.31669,2.05585 1.76134,0.70128 3.3435,1.41083 3.51595,1.57676 0.17243,0.16594 0.76582,0.15808 1.31864,-0.0176 0.55283,-0.17555 8.04108,-0.66663 16.64055,-1.0913 z m -44.89936,-2.37795 c 0.29981,-0.36126 0.21471,-0.60453 -0.33062,-0.94509 -0.6547,-0.40886 -0.73436,-0.35608 -0.73436,0.48647 0,1.03286 0.43349,1.21952 1.06498,0.45862 z m 68.75758,-1.14918 c 0.13984,0.13983 0.25653,-0.0708 0.25937,-0.46792 0.002,-0.39715 0.0959,-1.14596 0.20699,-1.66401 0.11105,-0.51804 -0.30714,-0.01 -0.92926,1.13027 -1.25024,2.29037 -1.55012,3.41472 -0.4765,1.78655 0.37685,-0.5715 0.7996,-0.92471 0.9394,-0.78489 z m -49.47769,0.70558 c 0,-0.33611 -0.221,-0.4685 -0.56296,-0.33729 -0.30965,0.11873 -0.46917,0.36781 -0.35453,0.55331 0.32876,0.53197 0.91749,0.39334 0.91749,-0.21602 z m -4.40249,-1.5637 c 0.9977,-0.32839 1.71972,-0.69135 1.60449,-0.80658 -0.11514,-0.11526 -0.0442,-0.4088 0.15798,-0.65234 0.24728,-0.29794 0.21539,-0.45431 -0.0974,-0.47793 -0.25574,-0.0193 -1.2279,-0.31734 -2.16036,-0.66226 -2.04796,-0.75755 -9.33416,-0.6332 -11.02014,0.18805 -1.20383,0.5864 -1.35537,1.69338 -0.30854,2.25364 2.22475,1.19064 8.43383,1.27331 11.82403,0.15742 z m -61.90672,-0.47163 c 0,-0.18044 -0.53892,-1.5482 -1.1976,-3.03947 -1.14411,-2.5903 -1.2188,-2.67241 -1.67227,-1.83827 -0.64114,1.17929 -1.01373,3.4932 -0.71435,4.43643 0.19749,0.62226 0.56357,0.7694 1.9142,0.7694 0.91852,0 1.67002,-0.14764 1.67002,-0.32809 z m 19.77974,-0.84537 c 9.11752,-0.45389 16.72165,-0.95222 16.89809,-1.1074 0.31033,-0.27298 1.48922,-5.27486 1.28652,-5.45853 -0.16357,-0.14823 -38.78353,2.02813 -38.95037,2.19496 -0.0842,0.0842 0.37914,1.35747 1.02942,2.8297 1.08388,2.45394 1.2646,2.66389 2.17068,2.52165 0.54359,-0.0853 8.44813,-0.5265 17.56566,-0.98038 z m 26.89718,-2.13739 1.16718,-0.7098 -4.04811,-1.60776 c -2.22649,-0.88428 -4.23495,-1.68352 -4.46327,-1.77614 -0.37357,-0.15152 -1.28028,3.1761 -1.28028,4.69862 0,0.85805 7.0296,0.36499 8.62448,-0.60492 z m 33.57229,-1.89589 c 1.55412,-1.35602 3.06062,-2.67564 3.34778,-2.93249 0.44183,-0.39522 0.33399,-1.22342 -0.70179,-5.38908 l -1.22387,-4.92208 -1.74713,1.54634 c -0.96093,0.85049 -4.67014,4.11174 -8.24269,7.24722 -5.73869,5.03663 -6.41913,5.75398 -5.83974,6.15647 0.36071,0.25057 0.82536,0.62826 1.03258,0.83933 0.24178,0.24625 2.19892,0.30063 5.46297,0.15177 l 5.08621,-0.23198 z m 5.46296,0.16534 2.26055,-2.026 -1.46582,-0.4065 c -1.67715,-0.46512 -1.63468,-0.48642 -4.95143,2.48187 l -2.21018,1.97798 2.05318,-7.5e-4 c 1.95122,-7.6e-4 2.16542,-0.10127 4.3137,-2.02667 z m 13.02491,1.05774 3.98273,-0.22398 -0.50446,-4.20686 c -0.27745,-2.31377 -0.54871,-4.34873 -0.60282,-4.52215 -0.0541,-0.17341 -2.55181,1.8417 -5.55043,4.478 -2.99864,2.6363 -5.52311,4.85545 -5.60994,4.93143 -0.0869,0.076 0.84565,0.0549 2.07217,-0.0472 1.22651,-0.10202 4.02224,-0.28611 6.21275,-0.4093 z m -41.55984,-0.41952 c -0.3602,-0.0942 -1.03836,-0.0977 -1.50701,-0.007 -0.46866,0.0901 -0.17394,0.16727 0.65492,0.17147 0.82887,0.004 1.21232,-0.0697 0.85209,-0.16387 z m 55.37102,-1.57164 c 1.53149,-1.27836 1.56805,-1.35816 0.94188,-2.05609 -1.11221,-1.23966 -4.93045,-3.66928 -8.12954,-5.173 -1.68285,-0.79102 -3.08588,-1.40737 -3.11785,-1.36971 -0.0529,0.0623 1.24239,10.12872 1.3285,10.325 0.0204,0.0463 1.6899,-0.0239 3.71026,-0.15606 3.49694,-0.22862 3.74993,-0.30405 5.26675,-1.57014 z m -49.71505,-1.56031 2.31276,-2.07217 -12.2901,-4.99282 c -6.75956,-2.74607 -12.37195,-4.91099 -12.472,-4.81095 -0.19213,0.19214 -1.61707,8.22107 -1.47335,8.30173 0.0462,0.0259 3.13556,1.27805 6.86544,2.78257 3.7299,1.50453 6.89954,2.84916 7.04368,2.98803 0.14413,0.13884 1.93577,0.16776 3.98143,0.0643 l 3.71938,-0.18838 z m 30.85322,-4.48859 4.58344,-4.08182 -5.52532,-1.35266 c -5.54553,-1.35761 -10.21917,-2.28262 -10.42136,-2.06264 -0.0596,0.0647 0.48942,2.51453 1.21999,5.44379 l 1.32832,5.32593 1.55061,0.37438 c 0.85284,0.2059 1.80493,0.38796 2.11576,0.4046 0.31081,0.0167 2.62767,-1.80659 5.14856,-4.05158 z m -85.44852,3.36961 c 2.97671,-0.19214 5.48486,-0.42199 5.57365,-0.51078 0.0888,-0.0888 -0.15751,-1.41142 -0.54734,-2.93921 -0.67127,-2.6309 -0.76262,-2.77392 -1.72785,-2.70467 -1.49414,0.10721 -8.52442,3.66307 -10.24404,5.18139 l -1.48071,1.30736 1.50704,0.007 c 0.82886,0.004 3.94253,-0.14959 6.91925,-0.34172 z m 10.86501,-0.859 c 0.3584,-0.47235 1.24195,-4.03116 1.24195,-5.00243 0,-0.41702 -0.64288,-0.47472 -3.29662,-0.29584 -1.81314,0.12219 -3.3321,0.24833 -3.37545,0.28026 -0.077,0.0567 0.8975,4.08467 1.21409,5.01801 0.0987,0.29112 0.86599,0.47095 2.00921,0.47095 1.03784,0 2.0063,-0.20667 2.20682,-0.47095 z m 11.35997,-0.28257 c 1.25384,0 1.94582,-0.13569 1.73099,-0.33961 -0.40953,-0.38858 -9.33621,-4.10723 -10.23925,-4.26543 -0.43919,-0.0769 -0.72519,0.44084 -1.08693,1.96774 -0.79609,3.36041 -1.03866,3.16013 3.49173,2.88294 2.20802,-0.13513 4.95456,-0.24564 6.10346,-0.24564 z m 7.76504,-2.73148 c 0.55787,-2.49111 1.34256,-7.93228 1.16898,-8.10586 -0.41101,-0.411 -16.41013,2.03884 -16.96518,2.59776 -0.13657,0.13756 14.7978,6.31562 15.33097,6.34211 0.15146,0.007 0.36082,-0.36777 0.46523,-0.83401 z m 30.91065,-4.49515 c 1.18659,-3.99205 1.18984,-4.02575 0.40785,-4.21793 -1.56071,-0.38355 -16.69756,-0.63835 -20.53648,-0.3457 l -3.92439,0.29919 11.27116,4.58924 c 7.34295,2.9898 11.32596,4.43417 11.42843,4.14432 0.0865,-0.24471 0.69556,-2.25582 1.35343,-4.46912 z m 3.48824,0.84466 2.36167,-2.05274 -1.98491,-0.80692 -1.98491,-0.80693 -1.03029,3.2347 c -0.56665,1.77907 -1.03289,3.29782 -1.03607,3.375 -0.009,0.1944 0.92005,-0.54895 3.67451,-2.94311 z m -26.85086,-14.59866 c -8.66994,-0.44697 -21.01045,-2.21315 -28.77609,-4.11848 -8.00539,-1.96413 -16.55405,-5.40374 -20.954,-8.43099 -7.24267,-4.9831 -9.72829,-11.35124 -6.71208,-17.1964 2.95703,-5.73046 10.68072,-10.55594 22.73714,-14.20533 17.92663,-5.42625 44.59945,-7.18033 66.62154,-4.38124 23.39437,2.9735 38.6643,9.11687 44.26997,17.81061 1.34687,2.08883 1.46207,2.48059 1.50702,5.12439 0.0618,3.63602 -0.15181,4.44613 -1.84534,6.99757 -6.33649,9.54632 -26.84033,16.45321 -54.24275,18.27209 -5.17825,0.34372 -17.1085,0.41116 -22.60541,0.12774 z m 23.17055,-1.25851 c 28.35932,-1.97158 48.30606,-9.00604 53.71446,-18.94305 1.34469,-2.47063 1.42236,-5.94935 0.19511,-8.73809 -1.53873,-3.49654 -7.23845,-8.06965 -13.4082,-10.75799 -4.49105,-1.95687 -15.0338,-5.11643 -19.21462,-5.75843 -0.62164,-0.0954 -2.65612,-0.44011 -4.52109,-0.76587 -29.11842,-5.0864 -65.85431,-1.73724 -84.77028,7.72839 -8.06633,4.03644 -11.93205,8.45531 -11.98589,13.70093 -0.0969,9.44391 13.47228,17.32537 36.90498,21.43568 4.65028,0.81573 13.86653,1.88759 19.16147,2.22857 4.57543,0.2946 18.93808,0.21649 23.92406,-0.13016 z m -25.99622,-4.17552 c -22.74534,-1.63175 -41.24406,-7.23779 -47.8929,-14.51396 -0.54266,-0.59388 -1.28122,-1.87191 -1.64122,-2.84008 -0.61526,-1.65464 -0.61673,-1.8742 -0.0245,-3.6574 1.69006,-5.08824 10.89495,-10.33998 23.78887,-13.57242 31.35396,-7.8603 75.06021,-4.91201 94.90902,6.40227 3.80386,2.16828 5.91302,4.12473 6.97957,6.4742 0.95404,2.10165 0.92329,2.77126 -0.234,5.0936 -4.13273,8.29333 -23.99955,14.87988 -50.20121,16.64349 -6.59142,0.44365 -19.29013,0.42898 -25.68368,-0.0296 z m 26.56135,-1.09958 c 22.24036,-1.62204 39.88845,-6.69015 46.70831,-13.41352 1.92365,-1.89645 2.68274,-3.89793 2.28936,-6.0363 -0.20043,-1.08945 -0.80061,-1.96357 -2.41781,-3.52135 -2.60826,-2.51244 -5.15942,-4.05589 -9.91369,-5.99774 -27.09136,-11.06535 -79.04834,-10.25904 -103.16376,1.60101 -4.4748,2.20074 -8.36636,5.61228 -8.96334,7.85777 -1.85896,6.9923 13.28323,14.71573 35.27121,17.99043 4.26043,0.63453 8.69659,1.10381 15.70053,1.66091 3.75172,0.29842 19.72408,0.20633 24.48919,-0.14126 z m -29.01028,-53.49958 c -28.0641,-2.0113 -51.82729,-9.90361 -57.82045,-19.2035 -2.32056,-3.60092 -2.35324,-3.9008 -2.19155,-20.11579 0.16842,-16.89344 0.0707,-16.35712 3.70839,-20.33741 19.13321,-20.934774 103.38211,-24.386637 137.04835,-5.61516 6.14295,3.42516 10.61879,8.5025 10.61879,12.04583 0,0.68457 0.16956,1.24469 0.37678,1.24469 0.48257,0 0.51665,26.49193 0.0353,27.41418 -0.18782,0.3598 -0.52437,1.34364 -0.74792,2.18627 -0.60628,2.28543 -3.16278,5.58466 -6.00031,7.74356 -2.72058,2.06994 -9.84045,5.67977 -14.38541,7.29351 -8.42295,2.99066 -19.92791,5.35804 -33.15462,6.82222 -6.36121,0.70418 -30.29341,1.03717 -37.4873,0.5216 z m 27.93242,-0.74756 c 13.39003,-0.75991 24.32054,-2.47645 35.82785,-5.62645 13.13132,-3.59457 22.44588,-8.87717 25.77025,-14.61522 l 1.25734,-2.17021 0.12914,-10.92595 c 0.0711,-6.00928 0.0733,-11.68888 0.006,-12.62136 l -0.12387,-1.6954 -0.80863,1.5096 c -1.00786,1.88157 -4.22359,4.9532 -7.136,6.81624 -8.89323,5.68894 -24.28485,10.12097 -42.35242,12.19541 -9.67474,1.11082 -13.93882,1.3285 -13.94576,0.71196 -0.004,-0.42309 -0.0608,-0.42481 -0.32374,-0.01 -0.47938,0.7562 -11.85729,1.00443 -21.33402,0.46545 -32.2998,-1.83705 -55.93031,-9.31477 -63.18119,-19.99325 -0.60815,-0.8956 -0.64055,-0.3569 -0.65933,10.96393 -0.0127,7.93899 0.12294,12.3325 0.40841,13.18648 1.00035,2.99203 4.83972,6.82539 9.67301,9.65788 9.15561,5.36556 29.43823,10.46409 46.78911,11.76158 10.93657,0.81785 20.31067,0.93948 30.00456,0.38933 z m -0.0524,-27.12548 c 6.99109,-0.4078 11.3457,-0.83733 17.70758,-1.74664 2.27937,-0.32579 4.65293,-0.66055 5.27458,-0.74389 3.23895,-0.43427 12.50783,-2.73202 17.51921,-4.34301 4.34271,-1.39603 6.37197,-2.24485 10.54918,-4.41259 22.7156,-11.78816 10.28878,-27.58584 -27.1265,-34.48477 -11.42018,-2.105743 -21.97916,-2.977422 -36.16865,-2.985838 -11.33016,-0.0072 -16.8082,0.327725 -27.05998,1.652068 -28.47845,3.67886 -47.193,12.78201 -47.15285,22.93615 0.0111,2.87095 1.02902,4.90162 3.84842,7.67936 2.82587,2.78409 7.36485,5.51847 12.63611,7.61222 2.12929,0.84575 3.79644,1.61274 3.70477,1.70441 -0.0917,0.0917 0.20068,0.18374 0.64964,0.2046 0.44898,0.0208 3.02034,0.66076 5.71415,1.42203 16.471,4.65462 38.99988,6.72529 59.90434,5.5059 z m -25.57385,-1.16804 c -5.99317,-0.38205 -15.80849,-1.6265 -20.57886,-2.60912 -1.96856,-0.4055 -4.01968,-0.81129 -4.55807,-0.90176 -4.32278,-0.72645 -13.02775,-3.58422 -17.98152,-5.9032 -10.8159,-5.06317 -14.98018,-11.1108 -11.98225,-17.40137 7.49768,-15.7324 57.71846,-24.345038 100.26589,-17.19514 18.90001,3.17605 33.58823,9.85167 36.93004,16.78426 1.06834,2.21628 1.18195,5.68912 0.25468,7.78536 -5.76709,13.03749 -43.40701,21.92343 -82.34991,19.44097 z m 22.17154,-0.72069 c 8.36047,-0.39077 15.30743,-1.08632 22.42853,-2.24563 5.94266,-0.96747 15.79294,-3.38443 18.83785,-4.62225 0.72525,-0.29483 2.15469,-0.84361 3.17655,-1.2195 l 1.85789,-0.68344 -2.79979,-1.08553 c -7.96974,-3.09002 -19.52972,-5.58471 -32.94034,-7.10868 -5.59542,-0.63586 -26.04681,-0.87634 -32.77785,-0.38543 -7.66041,0.5587 -16.1662,1.65978 -22.10578,2.8616 -8.14085,1.64723 -19.23629,5.15547 -18.51496,5.85421 0.45108,0.43696 8.82658,3.26757 12.26922,4.14655 10.94749,2.79514 23.0766,4.21184 41.16126,4.80771 0.82886,0.0273 5.0622,-0.11648 9.40742,-0.31961 z m -61.92263,-10.5671 c 17.32399,-7.20303 48.96124,-9.98192 76.90285,-6.75485 12.38916,1.43087 21.93184,3.59908 29.60932,6.72759 3.1452,1.28165 3.5043,1.2206 7.37074,-1.25272 1.11381,-0.71251 2.15748,-1.17614 2.31925,-1.03032 0.16178,0.14582 0.2024,0.0955 0.0902,-0.11165 -0.11204,-0.20721 0.43485,-0.88538 1.21551,-1.50702 0.78067,-0.62166 1.98239,-1.94822 2.67051,-2.94794 1.68112,-2.44237 1.97261,-5.76334 0.73102,-8.32814 -3.82245,-7.8961 -20.70096,-14.69103 -43.52831,-17.52357 -36.98891,-4.589766 -77.8511,2.05703 -89.53365,14.56387 -2.35681,2.52311 -2.96015,3.81081 -2.96015,6.31769 0,4.28125 3.04879,7.9417 9.77494,11.736 1.15109,0.64935 2.19672,1.20035 2.32364,1.22447 0.12688,0.0241 1.48324,-0.47693 3.01405,-1.11342 z m 36.28114,-44.977943 c -22.32357,-2.126337 -39.01745,-7.218675 -46.69742,-14.244675 -2.38939,-2.185927 -4.31961,-5.279463 -4.31961,-6.922956 0,-0.465126 -0.16954,-0.950463 -0.37675,-1.07853 -0.20722,-0.128072 -0.37677,-0.548095 -0.37677,-0.9334 0,-0.394461 -0.57718,-1.057264 -1.321,-1.51697 -0.72655,-0.449031 -1.22636,-0.969539 -1.11069,-1.156685 0.11563,-0.187143 -0.0281,-0.24881 -0.31931,-0.137042 -0.52788,0.202571 -5.91441,-5.188648 -5.91441,-5.919574 0,-0.196233 -0.33908,-1.058607 -0.7535,-1.916385 -0.42184,-0.873085 -0.75024,-2.316191 -0.74606,-3.278421 0.0111,-2.563257 0.71505,-6.975434 1.13586,-7.119793 0.20262,-0.0695 0.29686,-0.242115 0.20943,-0.383588 -0.13471,-0.21802 0.17286,-5.058795 0.68585,-10.792749 0.13926,-1.556494 0.81333,-3.604212 1.29974,-3.948279 0.15243,-0.107822 0.67773,-0.789439 1.16731,-1.514696 3.67867,-5.449393 11.62583,-10.023982 23.81808,-13.710273 27.62549,-8.3524953 71.54111,-8.5442683 99.71339,-0.435438 12.77113,3.675917 20.84769,8.14966 25.23673,13.979072 1.68494,2.237884 1.9702,2.922961 3.02013,7.252898 0.74153,3.05807 1.19164,5.961413 1.24873,8.054817 0.0491,1.800274 0.22562,3.188981 0.39224,3.086006 0.1666,-0.102966 0.30293,1.179107 0.30293,2.849066 0,1.773022 -0.15677,3.036291 -0.37676,3.036291 -0.20722,0 -0.37675,0.514258 -0.37675,1.142794 0,3.10517 -4.0491,8.157751 -9.13636,11.400616 -0.8416,0.536473 -1.03608,0.937537 -1.03608,2.136559 0,0.811858 -0.15076,1.569279 -0.33502,1.683157 -0.18426,0.113872 -0.44719,0.653962 -0.58428,1.200182 -0.78134,3.113089 -6.03988,7.589499 -12.19489,10.381068 -7.96725,3.613497 -20.57559,6.849504 -31.34312,8.044388 -1.13969,0.126461 -3.34371,0.398103 -4.89785,0.603625 -4.7365,0.626368 -29.93866,0.737576 -36.01379,0.15891 z m 34.50678,-0.964323 c 12.56163,-1.150197 25.75115,-4.067751 34.09648,-7.542208 2.07217,-0.862718 4.06426,-1.588359 4.4269,-1.612539 0.36264,-0.02419 0.65933,-0.15785 0.65933,-0.297047 0,-0.139192 1.14813,-0.935182 2.55141,-1.768854 2.79643,-1.661325 6.16871,-4.766407 7.07049,-6.510249 0.31638,-0.61179 0.72457,-1.915338 0.9071,-2.896778 l 0.3319,-1.784434 -2.13383,2.312888 c -2.49949,2.709228 -4.76101,4.447502 -5.32931,4.096273 -0.22132,-0.136771 -0.35579,-0.04998 -0.29887,0.192874 0.17037,0.726621 -6.69895,3.999334 -12.14105,5.784306 -13.57982,4.45408 -27.92739,6.387746 -47.47137,6.39787 -14.12984,0.0073 -22.76858,-0.712319 -33.90812,-2.824669 -9.05899,-1.717827 -20.92987,-5.449759 -21.94031,-6.897533 -0.15225,-0.218131 -0.27939,-0.267995 -0.28257,-0.110814 -0.009,0.433067 -4.0595,-1.912482 -6.48557,-3.75541 -1.1809,-0.89705 -2.622,-2.300572 -3.20244,-3.118936 -1.45778,-2.055341 -1.99659,-2.196549 -1.72978,-0.45333 0.88405,5.776083 8.94366,11.479394 21.83709,15.4528 17.41148,5.365741 40.9539,7.358324 63.04252,5.33579 z m 1.31864,-5.432239 c 16.45013,-1.74024 27.35867,-4.393423 36.54543,-8.888602 4.01554,-1.964855 9.19084,-5.430878 8.75695,-5.864759 -0.0885,-0.08855 -1.2474,0.329888 -2.5752,0.929878 -1.3278,0.599985 -3.77052,1.526257 -5.42825,2.058381 -1.65772,0.532123 -4.2856,1.497027 -5.83973,2.14424 -6.57841,2.739553 -16.81726,5.134893 -27.6113,6.45957 -5.36829,0.658813 -8.9833,0.813652 -20.99033,0.899073 -13.76818,0.09795 -16.41141,-0.0073 -24.86596,-0.990282 -9.08798,-1.056609 -19.2538,-3.358433 -25.61946,-5.800959 -1.96856,-0.755337 -5.23554,-1.961305 -7.25996,-2.679923 -2.02444,-0.718623 -4.63599,-1.729021 -5.80347,-2.245333 -1.16748,-0.516314 -2.19174,-0.86967 -2.27619,-0.785244 -0.31436,0.31437 4.52543,3.727946 7.52446,5.307112 9.69879,5.106986 25.70555,8.757086 43.79544,9.986893 6.731,0.457589 25.24233,0.147556 31.64757,-0.530045 z m -1.88378,-3.608317 c 7.18468,-0.652573 20.83467,-2.834896 20.40697,-3.262613 -0.0898,-0.08977 -1.66633,0.09347 -3.50347,0.40718 -11.37329,1.942109 -22.3245,2.629074 -37.76591,2.369039 -13.6968,-0.230653 -18.55539,-0.633033 -32.44869,-2.687353 -0.72525,-0.107237 -0.38618,0.05041 0.75352,0.35032 3.0032,0.790308 13.37044,2.351338 18.83785,2.836477 11.49428,1.019926 22.39331,1.015707 33.71973,-0.0131 z m -4.70946,-1.508245 c 29.56427,-1.615446 54.04623,-8.887618 62.56402,-18.584153 1.44763,-1.647952 3.01019,-4.402101 2.96505,-5.226174 -0.0146,-0.267275 -0.34179,0.222862 -0.72699,1.0892 -0.38521,0.866336 -1.14767,1.868231 -1.69437,2.226438 -1.06172,0.695669 -3.1498,0.787929 -4.26955,0.188649 -0.55665,-0.297906 -0.80872,-0.143915 -1.36906,0.836365 -4.41667,7.726674 -10.86887,10.569956 -17.79288,7.840763 l -1.89786,-0.748066 -1.4614,1.496587 c -3.48622,3.570235 -9.09804,6.183778 -14.15128,6.590582 -3.24086,0.260896 -7.20865,-0.465543 -10.74552,-1.967334 l -2.33147,-0.98997 -1.9194,1.181019 c -1.05567,0.649563 -2.12576,1.221554 -2.37799,1.271094 -0.25223,0.04955 -0.54337,0.183772 -0.64698,0.298295 -0.48421,0.535228 -4.37045,1.921983 -6.85174,2.44496 -5.86487,1.236131 -13.00534,-0.0415 -18.5654,-3.321873 -1.71184,-1.009958 -2.00844,-1.074209 -3.028,-0.655938 -4.85555,1.991978 -7.7367,2.762694 -10.97095,2.934766 -6.06398,0.32262 -11.34908,-1.428082 -16.48763,-5.461576 -2.12404,-1.667258 -2.26458,-1.719323 -3.39081,-1.256156 -2.89276,1.189651 -5.03034,1.570993 -8.02757,1.432112 -2.6237,-0.121572 -3.5004,-0.348228 -5.86256,-1.515668 -2.67778,-1.323432 -5.60976,-3.929816 -7.67028,-6.818467 -0.70495,-0.988274 -0.85283,-1.040943 -1.67994,-0.598287 -0.49881,0.266959 -1.87053,0.498472 -3.04825,0.514474 -1.8528,0.02516 -2.33569,-0.127545 -3.5841,-1.133568 -1.54622,-1.246002 -3.34801,-4.461968 -4.05699,-7.241229 -0.5162,-2.023486 -1.2811,-2.547791 -1.07153,-0.734487 0.30378,2.628655 1.04408,4.691685 2.26101,6.300905 3.57307,4.724917 10.4378,8.742905 20.90591,12.236405 2.84043,0.947932 5.43594,1.723512 5.76777,1.723512 0.36014,0 0.49498,0.175348 0.33454,0.434969 -0.16978,0.274695 -0.10301,0.332481 0.18122,0.156821 0.53345,-0.329703 7.6138,1.306446 7.36882,1.702821 -0.0926,0.149829 0.14952,0.18929 0.53802,0.08769 0.38851,-0.101603 2.55038,0.164824 4.80418,0.592051 13.7329,2.603193 31.32685,3.582965 47.98996,2.672464 z m 27.02446,-2.106877 c -0.12517,-0.125194 -0.45016,-0.138579 -0.72212,-0.02971 -0.30055,0.120272 -0.21129,0.209542 0.22762,0.22762 0.39715,0.01634 0.61968,-0.0727 0.4945,-0.19788 z m -28.84449,-1.265661 c 1.5892,-0.400512 4.21708,-1.372767 5.83974,-2.160565 l 2.95029,-1.432367 -5.27459,-0.09204 c -2.90102,-0.05062 -9.25881,0.03647 -14.12839,0.193577 l -8.85378,0.285632 1.88378,0.978784 c 5.48956,2.852278 11.88684,3.662535 17.58295,2.226986 z m -27.56701,-1.8544 c 2.49367,-0.80772 3.69886,-1.396326 3.37991,-1.650731 -0.0977,-0.07785 -5.51801,-0.782742 -12.04531,-1.566417 -6.52731,-0.783675 -12.37647,-1.516148 -12.99811,-1.627716 l -1.13027,-0.202854 1.50702,1.222425 c 5.80394,4.707874 14.00953,6.182444 21.28676,3.825293 z m 56.70192,-1.191261 c 2.52475,-0.941278 6.7592,-3.552595 7.91189,-4.879152 l 0.75351,-0.867163 -0.94191,0.222235 c -0.51803,0.122228 -5.94333,1.086731 -12.0562,2.143346 -6.11289,1.056611 -11.28387,1.971908 -11.4911,2.033989 -0.53292,0.159667 2.0685,1.471971 3.20245,1.615478 0.51804,0.06555 1.45051,0.287179 2.07215,0.492485 1.90743,0.629945 7.9962,0.190586 10.54921,-0.761218 z m -51.42732,-3.12814 v -2.01574 l -3.28912,-1.846019 c -1.80902,-1.015313 -3.37728,-1.856751 -3.48501,-1.869863 -0.10771,-0.0131 -1.3096,-0.379594 -2.67084,-0.8144 -6.25216,-1.997065 -11.8152,-1.831552 -18.34085,0.545683 -1.58438,0.577176 -1.60121,0.602581 -1.60121,2.415908 0,1.00793 0.0425,1.841162 0.0942,1.851628 0.0519,0.01052 6.53674,0.837523 14.41094,1.83791 7.87422,1.000384 14.44392,1.839526 14.59934,1.864754 0.1554,0.02524 0.28256,-0.86121 0.28256,-1.969861 z m 25.14853,1.40114 7.62931,-0.221813 v -1.807177 -1.807179 l -2.73148,-1.133764 c -4.7693,-1.9796 -7.19888,-2.468852 -12.33879,-2.4847 -5.52219,-0.01703 -8.24189,0.579678 -13.37487,2.934473 l -3.3908,1.555565 0.11575,1.814111 0.11588,1.814114 8.17281,-0.220912 c 4.49504,-0.121486 11.60602,-0.320725 15.80215,-0.442718 z m 22.79378,-2.837514 13.46905,-2.348092 v -1.818685 c 0,-1.636997 -0.1035,-1.858183 -1.03608,-2.214068 -4.23785,-1.617228 -10.53021,-2.013114 -14.59933,-0.918518 -2.99086,0.804548 -6.4738,2.451843 -9.65371,4.565849 -2.55324,1.697378 -2.59087,1.746621 -2.59087,3.388881 0,1.075005 0.16714,1.671129 0.47094,1.679594 0.25901,0.0073 6.53202,-1.043515 13.94,-2.334961 z m -80.72015,0.697854 c 0.90876,-0.399874 1.14298,-0.644539 0.7535,-0.787109 -2.93996,-1.076209 -19.35617,-6.238328 -19.47159,-6.122897 -0.28951,0.289507 3.81884,4.488214 5.32818,5.445372 3.10149,1.966829 4.62486,2.360902 8.49206,2.196774 2.07499,-0.08807 4.13338,-0.395755 4.89785,-0.73214 z m 1.05887,-6.176533 c -1.88657,-1.951498 -4.81374,-4.112816 -7.20108,-5.317015 -1.17723,-0.593809 -2.07274,-1.148945 -1.99,-1.23363 0.0827,-0.08468 -0.55439,-0.230856 -1.41585,-0.324824 -3.07622,-0.335555 -6.86969,-0.197538 -8.63047,0.314 l -1.78959,0.51991 v 1.818869 1.818865 l 2.54311,0.772223 c 1.3987,0.424723 6.35777,2.020495 11.02013,3.546164 l 8.47705,2.77394 0.11699,-1.699159 c 0.10263,-1.491097 -0.0358,-1.857138 -1.13027,-2.989343 z m 104.97675,3.870032 c 1.16775,-0.51644 2.84086,-1.707311 3.83326,-2.728423 1.77397,-1.825279 3.77278,-4.557313 3.49587,-4.778264 -0.21153,-0.168792 -17.25109,7.072146 -17.07348,7.255351 0.0805,0.08298 0.95434,0.368239 1.94197,0.633896 2.88679,0.776501 5.46768,0.649957 7.80238,-0.38256 z m -70.51129,-0.646315 c 2.62805,-1.340745 7.6497,-2.894736 10.88099,-3.367212 5.25389,-0.768223 12.08862,0.279392 17.08947,2.619444 l 2.27181,1.063046 1.87252,-1.295649 c 2.75199,-1.904189 8.30043,-4.513867 11.09334,-5.217694 3.36771,-0.848678 10.21416,-0.560945 13.38864,0.562679 l 2.26462,0.801573 3.44841,-3.399542 c 4.6782,-4.611907 7.23998,-5.865833 11.8021,-5.776837 1.76135,0.03435 3.59305,0.119133 4.07046,0.188376 0.77433,0.112325 0.99945,-0.221663 2.08579,-3.094351 1.6591,-4.387244 2.99087,-6.559795 4.37178,-7.131785 0.62585,-0.259235 1.35288,-0.388844 1.61561,-0.28802 0.30307,0.116298 0.47771,-0.143503 0.47771,-0.710607 0,-0.49166 -0.12715,-0.893925 -0.28256,-0.893925 -0.15542,0 -0.29448,-0.466236 -0.30904,-1.036081 -0.0145,-0.569845 -0.16591,-1.375163 -0.33632,-1.789595 l -0.30984,-0.753514 -0.25838,0.753514 c -1.43108,4.173554 -4.06023,7.339262 -8.43619,10.157869 -20.91233,13.469871 -71.49591,17.901289 -109.68796,9.609312 -10.17936,-2.21007 -20.11477,-5.968877 -25.92496,-9.808036 -4.27505,-2.824813 -7.86506,-7.223749 -8.04062,-9.852432 -0.0785,-1.175452 -0.59745,3.575565 -0.65201,5.969305 l -0.0439,1.931695 1.63297,-0.184059 c 2.03522,-0.229401 3.35636,0.416038 5.40841,2.642251 1.49639,1.623393 2.61065,3.285721 2.20241,3.285721 -0.11092,0 0.14364,0.345262 0.56563,0.767253 0.422,0.421993 0.66629,0.930615 0.5429,1.13027 -0.12343,0.199659 -0.0558,0.363017 0.15025,0.363017 0.20602,0 0.58291,0.576064 0.83751,1.280144 l 0.4629,1.280144 1.53947,-0.590762 c 2.4364,-0.934967 8.16948,-0.811738 10.82491,0.232681 2.76004,1.085553 5.9925,3.196723 8.71256,5.690298 l 2.17426,1.993211 3.10034,-1.023857 c 4.46616,-1.474894 10.85035,-1.728876 15.34494,-0.610474 3.03941,0.756305 9.11225,3.410678 10.73756,4.693271 1.00192,0.790636 1.43733,0.76557 3.31165,-0.190642 z m 69.09482,-4.50018 c 4.93516,-2.09131 9.18495,-3.889626 9.44398,-3.996256 0.28396,-0.116893 0.47094,-0.908346 0.47094,-1.993406 0,-1.535751 -0.12431,-1.838742 -0.84771,-2.067038 -1.20146,-0.379138 -7.02414,-0.81381 -6.83657,-0.510359 0.0856,0.138552 -0.34613,0.362136 -0.95951,0.496856 -1.80105,0.395576 -5.29395,2.898839 -8.0277,5.753194 -2.38579,2.49106 -2.54311,2.762461 -2.54311,4.387356 0,0.952622 0.0734,1.732038 0.16331,1.732038 0.0899,0 4.20118,-1.711072 9.13637,-3.802385 z m -127.09149,-0.458393 1.07496,-0.459224 -5.03092,-4.192755 c -2.76699,-2.306015 -5.08492,-4.142825 -5.15096,-4.081794 -0.0661,0.06103 0.29143,1.294216 0.79437,2.740412 1.85116,5.322991 4.83902,7.477245 8.31255,5.993361 z m 85.01397,-1.561175 c 30.76069,-2.904918 52.03065,-10.643595 56.41675,-20.526175 1.62075,-3.65183 0.80031,-7.035302 -2.61108,-10.767895 -6.81265,-7.454132 -24.54596,-13.553193 -47.02405,-16.173097 -17.44113,-2.0328313 -39.38398,-1.6720863 -56.13909,0.922933 -34.14764,5.28877 -51.52695,18.185185 -40.17508,29.812183 9.36532,9.592294 34.21337,16.213669 65.23174,17.382599 3.39336,0.127872 21.06841,-0.345294 24.30081,-0.650548 z m -36.58322,-7.12463 c -12.51579,-2.048332 -22.86521,-3.896122 -22.9987,-4.106189 -0.13343,-0.210074 -0.34276,-1.007459 -0.465,-1.771975 l -0.22228,-1.390021 -4.56574,-0.700262 c -2.96201,-0.454295 -4.63448,-0.879358 -4.76141,-1.210134 -0.10771,-0.280428 -0.90948,-4.151141 -1.78194,-8.601583 -1.10765,-5.65006 -1.46324,-8.18453 -1.17847,-8.39931 0.2243,-0.16918 9.76212,-2.388859 21.19514,-4.932621 l 20.78734,-4.625019 4.60937,0.780115 4.60936,0.780115 4.39398,-0.972724 4.39398,-0.972725 22.57854,3.679293 c 12.41818,2.023611 22.70512,3.789698 22.85986,3.924637 0.20351,0.17747 3.6746,16.443914 3.6746,17.220152 0,0.135789 -2.13765,0.679155 -5.72928,1.456305 -2.82968,0.612282 -2.89854,0.653788 -2.70429,1.630157 0.37841,1.901968 0.33129,2.420924 -0.23183,2.553603 -0.31083,0.07324 -9.82212,2.214241 -21.1362,4.757795 l -20.57105,4.624637 z m 43.21405,-1.803622 20.75924,-4.611695 -0.33555,-1.493355 c -0.18454,-0.821345 -0.19476,-1.634139 -0.0227,-1.806207 0.17207,-0.172071 2.08632,-0.71657 4.25389,-1.210001 2.16756,-0.49343 3.91956,-1.046204 3.8933,-1.228385 -0.16349,-1.134245 -2.92792,-15.425321 -3.00407,-15.529923 -0.0514,-0.07063 -10.12112,-1.78007 -22.37711,-3.798767 l -22.28362,-3.670358 -4.38116,0.980846 -4.38115,0.980847 -4.56927,-0.792061 -4.56926,-0.792062 -19.91122,4.433442 c -10.95118,2.438393 -20.28173,4.526432 -20.73457,4.640086 l -0.82334,0.206644 1.46394,7.446926 c 0.80516,4.095808 1.60319,7.697795 1.77342,8.004415 0.20282,0.365354 1.85517,0.819818 4.79434,1.318648 l 4.48483,0.76116 0.3308,1.709715 0.33078,1.70971 21.89787,3.619327 c 12.04382,1.990629 22.0674,3.644843 22.27462,3.676035 0.20723,0.0312 9.71842,-2.018549 21.13598,-4.554987 z m -41.78982,0.429447 c -10.94519,-1.822731 -19.94937,-3.372814 -20.00931,-3.444624 -0.32509,-0.389554 -0.55056,-2.183698 -0.29432,-2.342064 0.1651,-0.102024 7.33777,0.970684 15.93929,2.383812 l 15.63911,2.569328 4.31279,-0.961153 4.31278,-0.96115 4.68938,0.757506 4.68939,0.757507 14.27136,-3.174436 c 7.84926,-1.745943 14.51276,-3.081811 14.80779,-2.968599 0.29503,0.113216 0.5364,0.68248 0.5364,1.265037 v 1.059191 l -18.93203,4.230189 c -10.4126,2.326605 -19.18634,4.210691 -19.49716,4.186853 -0.31082,-0.02386 -9.52029,-1.534663 -20.46547,-3.357397 z m 40.3394,-1.922383 c 11.07581,-2.44768 17.425,-4.014352 17.425,-4.299636 0,-0.298288 -4.70702,0.61946 -14.03419,2.736306 l -14.0342,3.185133 -4.88591,-0.768896 -4.88592,-0.768902 -4.34463,0.970311 -4.34462,0.970312 -15.06352,-2.47341 c -8.28493,-1.36037 -15.1372,-2.399718 -15.22725,-2.309662 -0.0901,0.09007 -0.0666,0.260863 0.0521,0.379563 0.11872,0.1187 8.92068,1.642552 19.55997,3.386341 10.63926,1.743785 19.59844,3.225147 19.90927,3.29192 0.31081,0.06677 0.98898,-0.0068 1.50702,-0.163581 0.51805,-0.156741 8.78316,-2.017853 18.36689,-4.135799 z m -45.24324,-2.231361 c -8.46188,-1.40971 -15.49782,-2.674386 -15.63541,-2.810392 -0.13755,-0.136003 -0.77877,-2.875037 -1.42485,-6.08674 l -1.17469,-5.83946 0.98632,-0.37628 c 0.54247,-0.206955 1.75296,-0.46759 2.68996,-0.579189 l 1.70364,-0.202909 1.08064,5.599462 c 0.59437,3.079705 1.13601,5.664466 1.20369,5.743912 0.0676,0.07944 6.99087,1.276148 15.38487,2.659335 8.39401,1.383186 15.37906,2.632125 15.52236,2.775417 0.14328,0.143292 0.16439,0.356669 0.0468,0.474167 -0.20913,0.209137 -4.43828,1.29608 -4.80977,1.236169 -0.10362,-0.01669 -7.11174,-1.18378 -15.57364,-2.593492 z m 16.70391,1.185583 c -0.31084,-0.171572 -6.6686,-1.298746 -14.12839,-2.504828 -7.45979,-1.206081 -13.6889,-2.296701 -13.84248,-2.423596 -0.15358,-0.126889 -0.76753,-2.646114 -1.36433,-5.598264 -0.5968,-2.952153 -1.15476,-5.437237 -1.23994,-5.522412 -0.0852,-0.08518 -0.84397,0.02005 -1.68622,0.233835 l -1.53136,0.388699 1.07271,5.306351 c 0.59,2.918491 1.11503,5.347769 1.16677,5.398394 0.0517,0.05062 6.70612,1.195854 14.78755,2.544953 14.15636,2.36323 18.00971,2.863552 16.76569,2.176868 z m 14.41095,0.604921 c -1.55071,-0.247096 -2.35473,-0.550224 -2.35473,-0.887772 0,-0.281908 0.11823,-0.512559 0.26259,-0.512559 0.6727,0 27.83652,-6.158705 28.06063,-6.362035 0.14011,-0.12716 -0.24231,-2.680078 -0.84991,-5.67314 -0.60762,-2.993063 -0.9766,-5.563505 -0.81998,-5.712094 0.39124,-0.371169 4.70724,0.394954 5.22458,0.927405 0.39234,0.403799 2.30249,9.705773 2.33252,11.358872 0.0128,0.689086 -1.25031,1.034225 -14.36687,3.92657 -7.90932,1.74409 -14.55013,3.202325 -14.75734,3.240516 -0.20722,0.03819 -1.4364,-0.09941 -2.73149,-0.305763 z m 16.67148,-3.716765 c 7.66701,-1.701551 14.00598,-3.143334 14.08663,-3.203964 0.3132,-0.235468 -1.97975,-10.75473 -2.37002,-10.872886 -0.22765,-0.06892 -1.02665,-0.22665 -1.77556,-0.350512 l -1.36166,-0.225202 1.11067,5.514224 c 0.61086,3.032822 0.9693,5.637615 0.79652,5.788426 -0.17277,0.15081 -6.03579,1.529818 -13.02889,3.064465 -11.23861,2.466326 -14.31856,3.326496 -12.05701,3.367291 0.36263,0.0066 6.93232,-1.380287 14.59932,-3.081842 z M 217.62701,44.178 c -8.41402,-1.385904 -15.52954,-2.596932 -15.81225,-2.69117 -0.33133,-0.110443 -0.93468,-2.275866 -1.69756,-6.092522 -1.0673,-5.339516 -1.12394,-5.951931 -0.57666,-6.234213 0.33378,-0.172169 6.96832,-1.717738 14.74342,-3.4346 l 14.13656,-3.121567 15.79931,2.605373 15.79932,2.605372 1.2043,6.024448 c 0.73327,3.668042 1.06228,6.11234 0.8412,6.249156 -0.19971,0.12359 -5.90531,1.453271 -12.6791,2.954848 -6.77379,1.501576 -13.24844,2.938169 -14.38814,3.192426 -1.94038,0.432884 -3.0451,0.302027 -17.3704,-2.057547 z m 29.23824,-1.553854 c 7.667,-1.694329 14.01626,-3.141367 14.10947,-3.215641 0.0931,-0.07427 -0.30084,-2.545381 -0.87562,-5.49135 l -1.04509,-5.356311 -15.32492,-2.507322 -15.32493,-2.507324 -13.93999,3.103069 c -10.26403,2.284791 -13.96857,3.250369 -14.04832,3.661653 -0.10053,0.518795 1.65239,10.104362 1.88658,10.316099 0.11265,0.101789 29.10461,4.95567 30.05769,5.032296 0.31081,0.02497 6.83814,-1.340837 14.50513,-3.035169 z m -61.56357,-0.442192 -2.03599,-0.434618 -1.49819,-7.642945 c -0.82399,-4.203621 -1.39606,-7.745063 -1.27125,-7.869872 0.12474,-0.12481 8.41205,-2.075312 18.41607,-4.334452 16.80409,-3.794751 18.40301,-4.091882 20.99769,-3.902071 2.56202,0.187422 3.85928,0.629799 3.34754,1.141538 -0.10919,0.109204 -6.3709,1.562891 -13.91488,3.230422 -7.54399,1.667534 -13.91279,3.095614 -14.15287,3.173512 -0.31495,0.102198 -0.33755,0.582138 -0.0812,1.72342 0.19547,0.869981 0.2799,1.657273 0.18765,1.74954 -0.0922,0.09226 -1.99319,0.580336 -4.22424,1.084603 -2.23106,0.504265 -4.11123,0.971577 -4.17813,1.03847 -0.067,0.0669 0.37208,2.56381 0.97549,5.548701 0.60342,2.984892 1.01731,5.556215 0.91975,5.714052 -0.22613,0.36591 -0.95793,0.319685 -3.48753,-0.2203 z m 1.41726,-5.970737 c -0.59459,-2.941256 -0.93859,-5.490235 -0.76444,-5.664396 0.26728,-0.267278 1.97032,-0.719629 7.46639,-1.983186 0.72583,-0.16687 0.77576,-0.330821 0.48766,-1.601373 -0.22378,-0.98688 -0.18342,-1.544256 0.13329,-1.840804 0.24981,-0.233932 6.09145,-1.671802 12.9814,-3.195264 10.98942,-2.429917 14.22655,-3.344077 11.86783,-3.351469 -1.0318,-0.0033 -36.79012,7.98446 -37.13917,8.296149 -0.17117,0.152835 0.31776,3.426335 1.08649,7.274446 1.36293,6.822485 1.42225,7.000347 2.38336,7.148651 2.8428,0.438645 2.70674,0.900534 1.49719,-5.082754 z m 87.238,-0.882331 c -0.58728,-3.012108 -1.16129,-5.627852 -1.27557,-5.812765 -0.11427,-0.184913 -1.81591,-0.606929 -3.78141,-0.937812 -6.04838,-1.018223 -5.57615,-0.802823 -5.85632,-2.671162 -0.225,-1.500451 -0.36593,-1.682324 -1.463,-1.888136 -0.66772,-0.125266 -7.63046,-1.279713 -15.47279,-2.565444 -8.06142,-1.321653 -14.31906,-2.518565 -14.39747,-2.753844 -0.15994,-0.479808 3.27016,-1.39193 4.97282,-1.322361 1.92389,0.0786 40.30175,6.488591 40.54941,6.77268 0.40255,0.461765 3.08159,14.705575 2.86973,15.257663 -0.16,0.416989 -3.53452,1.397741 -4.80923,1.397741 -0.14761,0 -0.74889,-2.464452 -1.33617,-5.47656 z m 4.86269,3.604198 c 0.23654,-0.220459 -2.16673,-13.891342 -2.49344,-14.183723 -0.1578,-0.141228 -39.67534,-6.555863 -40.36804,-6.552691 -0.43988,0.002 -0.59107,0.134921 -0.37676,0.331215 0.19685,0.180317 6.46137,1.307213 13.92116,2.504211 14.02299,2.250132 14.49803,2.384872 14.51091,4.11576 0.01,1.405821 0.53349,1.665277 4.82788,2.394893 2.33855,0.39732 4.40994,0.880445 4.60311,1.073611 0.19316,0.193165 0.78616,2.548496 1.31775,5.234066 1.25612,6.345831 1.0709,5.933257 2.52585,5.626682 0.67364,-0.141942 1.36285,-0.386752 1.53158,-0.544024 z m -80.2109,-11.072372 c -0.11885,-0.310043 -0.16054,-0.944468 -0.0922,-1.409835 0.116,-0.792335 1.01009,-1.044277 14.06399,-3.963503 7.66701,-1.714563 14.47149,-3.126314 15.12111,-3.137227 1.59397,-0.02677 31.1489,4.836713 31.44981,5.175308 0.5396,0.607166 0.72268,2.340066 0.24829,2.350132 -0.26297,0.0055 -7.43118,-1.125325 -15.92935,-2.513121 l -15.45123,-2.523265 -13.9358,3.105923 c -7.6647,1.708255 -14.23334,3.189931 -14.59699,3.29261 -0.37725,0.106512 -0.75407,-0.05539 -0.8775,-0.377022 z m 15.85971,-3.976542 13.56751,-3.007354 14.81933,2.429178 c 16.25163,2.663963 15.50106,2.56185 15.50106,2.108848 0,-0.176181 -6.99355,-1.448025 -15.54122,-2.826319 l -15.54122,-2.505988 -13.72284,3.11672 c -8.83091,2.00567 -13.78258,3.295903 -13.89038,3.619368 -0.1144,0.342815 0.0562,0.434321 0.53635,0.287774 0.38713,-0.118174 6.80927,-1.568183 14.27141,-3.222227 z m -50.6989,29.081656 c -2.5052,-4.940759 -5.263,-7.64729 -7.77814,-7.633534 -1.72586,0.0094 -2.05189,0.437863 -1.92421,2.528453 l 0.11587,1.897766 5.463,4.551904 5.46297,4.5519 0.12194,-1.387075 c 0.0916,-1.042035 -0.27199,-2.163779 -1.46132,-4.509414 z m 141.37151,4.464998 c 0.88999,-0.06771 2.42114,-3.511988 2.86864,-6.452949 0.20497,-1.346904 0.32072,-2.505322 0.25726,-2.574262 -0.0635,-0.06893 -1.55587,1.78819 -3.31643,4.126953 -2.76919,3.678639 -3.12097,4.310837 -2.60758,4.686231 0.32638,0.238663 0.9473,0.395274 1.37979,0.348025 0.4325,-0.04724 1.07074,-0.107546 1.41832,-0.133996 z m 0.0703,-6.862535 c 3.10919,-4.171636 3.25369,-4.452456 3.25369,-6.322503 0,-2.161978 -0.53791,-2.700925 -2.02118,-2.025101 -1.64437,0.749231 -5.1372,8.913017 -5.1372,12.007217 0,1.674423 -0.23495,1.894631 3.90469,-3.659613 z"
       id="path1428"
       inkscape:connector-curvature="0" />
    <path
       style="fill:#000000;stroke-width:0.10533842"
       d="m 116.65392,426.34414 c -1.0161,0.13855 -1.44176,1.28646 -2.15573,1.89599 -1.45874,1.67086 -2.88686,3.36847 -4.32669,5.05713 -0.64499,-0.77761 -1.88865,-1.01674 -2.63477,-0.24023 -2.89712,3.04789 -4.86166,7.04868 -5.37674,11.23213 -0.31541,2.37742 0.45233,4.85538 -0.50038,7.14823 -0.76785,2.21988 -2.744127,3.67009 -4.148267,5.4712 -6.11243,6.87331 -12.396,13.59828 -18.42187,20.54492 -0.56972,1.2924 0.29984,3.08891 1.81373,3.05416 1.30171,0.20795 2.03517,-1.08969 2.95849,-1.75448 7.54464,-6.66517 14.90435,-13.58277 22.509027,-20.15124 1.91422,-1.29322 4.30372,-1.47978 6.5399,-1.23799 4.97067,0.17338 9.77912,-2.07503 13.40921,-5.36048 0.81826,-0.71848 0.63303,-2.06791 -0.16982,-2.7277 2.26686,-1.96971 4.63745,-3.83332 6.79102,-5.92188 0.79976,-1.44328 -1.07258,-3.41781 -2.52539,-2.59179 -2.12476,2.14628 -3.99494,4.53149 -5.98438,6.80468 -0.36978,-0.3869 -0.79069,-0.73204 -1.10547,-1.16796 2.25149,-1.98411 4.64664,-3.84331 6.79102,-5.92579 0.61203,-1.28999 -0.61766,-2.78176 -1.94727,-2.77148 -1.12471,0.27943 -1.71056,1.48412 -2.49913,2.2405 -1.37208,1.58383 -2.72768,3.18104 -4.08876,4.77512 -0.28986,-0.40255 -0.98935,-0.76244 -1.05664,-1.21093 2.25148,-2.00036 4.66549,-3.84454 6.77539,-5.98828 0.51399,-1.1284 -0.47812,-2.40483 -1.58174,-2.63454 -1.13822,-0.25378 -1.6977,0.9779 -2.38822,1.62835 -1.55673,1.76304 -3.07261,3.56337 -4.61011,5.34408 -0.33264,-0.51935 -1.70655,-1.0939 -0.62976,-1.56231 2.12466,-1.87229 4.38728,-3.61042 6.36999,-5.62715 0.51104,-1.14507 -0.51247,-2.43808 -1.63867,-2.63672 -1.18871,-0.20037 -1.73159,1.12218 -2.47385,1.78534 -1.51729,1.68598 -2.96076,3.51597 -4.48514,5.14826 -0.33002,-0.43541 -1.61229,-1.01002 -0.72401,-1.43481 2.1113,-1.85653 4.35432,-3.58549 6.35683,-5.55152 0.7285,-1.15187 -0.41202,-2.71035 -1.63868,-2.79883 -1.24299,-0.12556 -1.7379,1.21594 -2.5062,1.92571 -1.44058,1.66618 -2.86835,3.34188 -4.29848,5.01765 -0.29402,-0.36369 -1.37269,-0.87545 -0.96685,-1.27153 2.17456,-1.94195 4.53196,-3.6955 6.56255,-5.78706 0.73616,-0.96221 -0.25158,-2.25499 -1.17578,-2.64844 -0.26474,-0.0794 -0.54395,-0.097 -0.81836,-0.0703 z m 0.29297,0.88281 c 0.6248,0.19905 1.47598,1.04425 0.69702,1.59226 -2.08139,1.91958 -4.28819,3.69535 -6.42358,5.55227 -0.89657,-0.5457 0.43394,-1.15462 0.71018,-1.73364 1.54947,-1.78328 3.02397,-3.63857 4.64919,-5.35034 0.10949,-0.0646 0.24288,-0.0854 0.36719,-0.0605 z m 2.94726,2.86328 c 0.59321,0.25976 1.38996,1.15995 0.56208,1.64851 -2.10011,1.85074 -4.24402,3.67198 -6.37848,5.47259 -0.88714,-0.48914 0.34554,-1.08015 0.62015,-1.61789 1.59928,-1.80415 3.06688,-3.74169 4.78219,-5.43485 0.1209,-0.0787 0.27282,-0.12624 0.41406,-0.0684 z m 2.86914,2.82813 c 0.54325,0.27586 1.37167,1.13832 0.5474,1.6191 -2.07261,1.9041 -4.23152,3.71986 -6.3931,5.5098 -0.8952,-0.51268 0.47258,-1.13478 0.72387,-1.69709 1.61937,-1.77601 3.01959,-3.77831 4.82105,-5.37322 0.0883,-0.052 0.19814,-0.0909 0.30078,-0.0586 z m -13.96289,0.5625 c 5.36886,5.05577 10.54679,10.32479 15.72941,15.57905 0.4269,0.61939 1.39124,1.04805 1.41708,1.84282 -0.76238,1.23042 -2.15847,1.92156 -3.31238,2.74626 -2.98458,1.84103 -6.45488,3.00679 -9.97069,2.7851 -1.87411,-0.015 -3.84193,-0.1944 -5.55286,0.74296 -2.00601,0.90128 -3.41974,2.67521 -5.11003,4.0257 -6.806617,6.05739 -13.491807,12.26919 -20.323567,18.28592 -1.02306,0.56471 -2.24627,-0.60407 -1.75782,-1.65039 5.51589,-6.27583 11.20818,-12.42848 16.79906,-18.65076 1.71847,-2.05874 3.812287,-3.83514 5.200967,-6.14747 0.89881,-1.52861 1.23601,-3.30234 1.12201,-5.0619 0.0204,-2.40209 -0.12804,-4.82032 0.80829,-7.06176 0.97512,-2.68 2.39261,-5.31083 4.46225,-7.31639 0.14149,-0.0952 0.31557,-0.166 0.48828,-0.11914 z m 16.79102,2.31445 c 0.60973,0.2267 1.36543,1.13305 0.55514,1.60341 -2.06353,1.90031 -4.21674,3.69131 -6.36373,5.49425 -0.85111,-0.41898 0.27465,-0.99901 0.54038,-1.48746 1.59732,-1.83743 3.11334,-3.74882 4.7936,-5.51059 0.13187,-0.10127 0.31219,-0.16029 0.47461,-0.0996 z m -16.74024,1.81055 c -0.9082,0.68388 -1.25763,1.91186 -1.80468,2.8789 -0.90863,1.93278 -1.31491,4.05941 -1.19363,6.1911 -0.0548,2.13513 0.2029,4.37214 -0.77255,6.34087 -0.10619,0.60309 -0.90595,1.30221 -0.45179,1.89186 0.58037,0.29566 1.17812,-0.41286 1.75467,-0.51732 2.29448,-1.02351 4.84214,-0.84918 7.28381,-0.75807 2.85776,-0.0578 5.66073,-1.12591 7.9799,-2.76023 0.48981,-0.4818 -0.50194,-0.93994 -0.71502,-1.34539 -3.94384,-4.03882 -7.90952,-8.07237 -12.00844,-11.95102 z m 19.51563,1.00781 c 0.58778,0.22619 1.44056,1.07197 0.70238,1.62774 -2.11226,1.87594 -4.28009,3.76293 -6.45238,5.51679 -0.84326,-0.49857 0.38084,-1.06923 0.64592,-1.6039 1.59713,-1.82533 3.10543,-3.73581 4.78377,-5.48399 0.0959,-0.0531 0.21121,-0.084 0.32031,-0.0566 z m -18.99609,0.52148 c 3.79289,3.74605 7.55361,7.52451 11.32422,11.29297 -2.3152,1.47702 -5.03606,2.42723 -7.81237,2.25681 -2.20633,-0.0768 -4.47756,-0.12643 -6.5539,0.74259 -0.87303,0.494 -0.0753,-0.63565 -0.043,-1.08372 0.76555,-2.2338 0.49453,-4.60604 0.45249,-6.91394 0.0821,-2.3488 1.06376,-4.6316 2.23805,-6.67361 0.13152,0.1263 0.26303,0.2526 0.39454,0.3789 z m 21.90039,2.3418 c 0.69042,0.23087 1.40098,1.30424 0.50821,1.7736 -2.07574,1.814 -4.17964,3.6384 -6.30704,5.35921 -0.85501,-0.49958 0.37355,-1.07186 0.64292,-1.60731 1.61063,-1.84237 3.14576,-3.75848 4.86684,-5.49816 0.0907,-0.0379 0.19285,-0.0463 0.28907,-0.0273 z"
       id="path1452"
       inkscape:connector-curvature="0" />
    <path
       style="fill:#000000;stroke-width:0.17593652"
       d="m 232.36137,425.241 c -2.9471,0.13101 -5.95236,1.15306 -8.94611,0.88269 -4.27307,-0.58068 -8.89868,-1.71838 -12.91489,0.38257 -1.79627,1.34691 -1.20649,3.93981 -1.67522,5.83228 -2.20252,2.2436 -4.531,4.48446 -7.44425,5.77373 -0.92687,-1.18563 -2.42389,-2.28337 -3.9922,-1.61829 -2.3953,0.77286 -2.38393,4.65679 0.081,5.34615 1.6908,0.72369 3.54904,-0.62871 3.86254,-2.32955 0.79878,-0.92257 2.18515,-1.08044 3.08377,-1.9252 1.48948,-0.85907 2.58739,-2.3217 4.15703,-3.02617 0.18566,2.1509 -0.33077,4.3395 -0.38767,6.504 -0.90337,11.79686 -2.01672,23.58148 -2.69261,35.39355 -0.0386,6.41782 5.01828,12.76212 11.39275,13.74522 10.09385,0.333 20.20247,0.27535 30.29833,0.0506 4.99271,-0.33019 9.37627,-4.14702 11.15919,-8.74629 1.79235,-4.18784 0.64077,-8.7543 0.4931,-13.13643 -0.86352,-11.2257 -1.78946,-22.44655 -2.67775,-33.67029 0.71342,-0.6106 1.34622,0.72483 1.92157,0.98613 1.56256,1.45791 3.40124,2.55924 5.27626,3.55262 0.70632,0.78489 0.7118,2.14305 1.90649,2.50921 2.01119,1.06268 4.79252,-0.86869 4.11507,-3.15946 -0.41505,-2.17143 -3.48139,-3.03951 -4.90827,-1.30876 -0.32457,0.63866 -0.91416,1.04887 -1.58607,0.56644 -2.58112,-1.4292 -4.78823,-3.45976 -6.87404,-5.50725 -0.42378,-2.05845 0.11003,-4.9662 -2.15106,-6.11755 -3.39504,-1.54332 -7.14336,-0.632 -10.67724,-0.1605 -3.65624,0.28683 -7.19076,-1.05073 -10.81967,-0.81949 z m 0.97422,1.00288 c 3.96549,0.098 7.86689,1.47212 11.80536,0.59599 2.78616,-0.4573 5.92554,-0.89344 8.51304,0.49858 1.20083,0.93505 1.08576,2.6409 1.1261,4.0058 -3.39814,-1.14805 -6.96831,-1.19407 -10.44734,-0.40248 -4.61377,0.79674 -9.17923,-1.36705 -13.76048,-0.48547 -3.35632,0.59157 -6.79928,1.01639 -10.17386,0.29481 -3.33676,-0.74334 -6.73164,-0.44334 -9.9973,0.52723 -0.73531,-0.15446 -0.15557,-1.3116 -0.20873,-1.92088 -0.007,-1.7435 1.71371,-2.63868 3.24302,-2.7736 4.32417,-1.07437 8.66017,1.11551 13.00036,0.47091 2.30993,-0.19854 4.57461,-0.78469 6.89983,-0.81089 z m 0.14613,5.05166 c 3.88852,0.0719 7.68755,1.45531 11.56954,0.5794 2.70919,-0.57629 5.54613,-0.75805 8.20706,0.14929 1.0454,0.18704 2.03749,0.46219 1.73188,1.76403 1.12409,13.76109 2.4364,27.49519 3.32002,41.27593 0.48223,5.16043 -2.38687,10.4242 -6.87158,12.94906 -3.67867,1.91357 -7.93787,1.16291 -11.9144,1.3428 -7.49447,-0.0401 -14.99905,0.16819 -22.48697,-0.16714 -6.39254,-1.00643 -10.9449,-7.50532 -10.54843,-13.8221 1.15907,-13.77272 2.09878,-27.58845 3.3621,-41.36062 0.12162,-1.83193 2.24169,-2.09662 3.64763,-2.41838 4.54777,-0.90086 9.07469,1.22253 13.59262,0.40321 2.12794,-0.25357 4.23886,-0.71466 6.39053,-0.69548 z m -35.00633,6.00297 c 1.87043,-0.0409 2.44477,2.94464 0.65421,3.55014 -1.61993,0.77937 -3.34405,-1.45478 -2.14869,-2.81471 0.3448,-0.45658 0.92343,-0.73681 1.49448,-0.73543 z m 67.98397,0.0602 c 1.66479,-0.17743 2.63954,2.0906 1.35848,3.16875 -1.23676,1.34048 -3.74337,-0.29004 -2.90334,-1.96531 0.23928,-0.64347 0.85815,-1.14099 1.54486,-1.20344 z"
       id="path1476"
       inkscape:connector-curvature="0" />
    <g
       id="g2389"
       transform="matrix(1.2291319,-0.37942221,0.37942221,1.2291319,373.39647,-11.222534)">
      <circle
         r="13.974956"
         cy="346.64786"
         cx="-120.3214"
         id="path2057"
         style="fill:none;fill-opacity:1;stroke:#000000;stroke-width:0.8216247;stroke-linecap:round;stroke-miterlimit:4;stroke-dasharray:none;stroke-opacity:1;paint-order:fill markers stroke" />
      <path
         transform="matrix(0.11681684,-0.2023327,0.2023327,0.11681684,-122.83321,228.66256)"
         inkscape:transform-center-y="-7.3210041"
         inkscape:transform-center-x="6.3012827"
         d="m -378.37329,292.60685 c -45.28421,78.43456 -61.26688,78.43456 -106.55109,0 -45.2842,-78.43455 -37.29287,-92.27594 53.27555,-92.27594 90.56842,0 98.55975,13.84139 53.27554,92.27594 z"
         inkscape:randomized="0"
         inkscape:rounded="0.85"
         inkscape:flatsided="true"
         sodipodi:arg2="1.5707963"
         sodipodi:arg1="0.52359878"
         sodipodi:r2="30.758646"
         sodipodi:r1="61.517296"
         sodipodi:cy="261.84821"
         sodipodi:cx="-431.64883"
         sodipodi:sides="3"
         id="path2369"
         style="fill:none;fill-opacity:1;stroke:#000000;stroke-width:3.51672196;stroke-linecap:butt;stroke-linejoin:round;stroke-miterlimit:0;stroke-dasharray:none;stroke-opacity:1;paint-order:stroke fill markers"
         sodipodi:type="star" />
      <circle
         r="11.201739"
         cy="346.65863"
         cx="-120.3308"
         id="path2057-7"
         style="fill:none;fill-opacity:1;stroke:#000000;stroke-width:0.65729976;stroke-linecap:round;stroke-miterlimit:4;stroke-dasharray:none;stroke-opacity:1;paint-order:fill markers stroke" />
    </g>
    <text
       xml:space="preserve"
       style="font-style:normal;font-weight:normal;font-size:10.58333302px;line-height:1.25;font-family:sans-serif;letter-spacing:0px;word-spacing:0px;fill:#000000;fill-opacity:1;stroke:none;stroke-width:0.26458332"
       x="164.47592"
       y="-9.4150152"
       id="text2409"><tspan
         sodipodi:role="line"
         id="tspan2407"
         x="164.47592"
         y="-9.4150152"
         style="font-style:normal;font-variant:normal;font-weight:normal;font-stretch:normal;font-size:21.16666603px;font-family:'Bree Serif';-inkscape-font-specification:'Bree Serif, Normal';font-variant-ligatures:normal;font-variant-caps:normal;font-variant-numeric:normal;font-feature-settings:normal;text-align:start;writing-mode:lr-tb;text-anchor:start;stroke-width:0.26458332">Stone grinder</tspan></text>
    <text
       xml:space="preserve"
       style="font-style:normal;font-weight:normal;font-size:10.58333302px;line-height:1.25;font-family:sans-serif;letter-spacing:0px;word-spacing:0px;fill:#000000;fill-opacity:1;stroke:none;stroke-width:0.26458332"
       x="177.03989"
       y="390.26062"
       id="text2409-2"><tspan
         sodipodi:role="line"
         id="tspan2407-7"
         x="177.03989"
         y="390.26062"
         style="font-style:normal;font-variant:normal;font-weight:normal;font-stretch:normal;font-size:21.16666603px;font-family:'Bree Serif';-inkscape-font-specification:'Bree Serif, Normal';font-variant-ligatures:normal;font-variant-caps:normal;font-variant-numeric:normal;font-feature-settings:normal;text-align:start;writing-mode:lr-tb;text-anchor:start;stroke-width:0.26458332">Accessories</tspan></text>
    <path
       style="fill:none;stroke:#000000;stroke-width:1;stroke-linecap:butt;stroke-linejoin:miter;stroke-miterlimit:4;stroke-dasharray:none;stroke-opacity:1;marker-start:url(#marker4301)"
       d="m 230.92551,265.03202 63.49113,-24.44576 h 118.60268"
       id="path4165"
       inkscape:connector-curvature="0" />
    <path
       style="fill:none;stroke:#000000;stroke-width:1;stroke-linecap:butt;stroke-linejoin:miter;stroke-miterlimit:4;stroke-dasharray:none;stroke-opacity:1;marker-start:url(#marker4515)"
       d="M 165.42364,210.78265 149.38745,196.88463 H 41.410573"
       id="path4167"
       inkscape:connector-curvature="0" />
    <path
       style="fill:none;stroke:#000000;stroke-width:1;stroke-linecap:butt;stroke-linejoin:miter;stroke-miterlimit:4;stroke-dasharray:none;stroke-opacity:1;marker-start:url(#marker2999)"
       d="M 200.85537,275.80566 160.89635,248.89272 H 43.243493"
       id="path4169"
       inkscape:connector-curvature="0" />
    <path
       style="fill:none;stroke:#000000;stroke-width:1;stroke-linecap:butt;stroke-linejoin:miter;stroke-miterlimit:4;stroke-dasharray:none;stroke-opacity:1;marker-start:url(#marker4779)"
       d="m 281.28572,35.992577 27.67785,53.60627 h 111.71866"
       id="path4171"
       inkscape:connector-curvature="0" />
    <path
       style="fill:none;stroke:#000000;stroke-width:1;stroke-linecap:butt;stroke-linejoin:miter;stroke-miterlimit:4;stroke-dasharray:none;stroke-opacity:1;marker-start:url(#marker4645)"
       d="m 279.02938,154.81261 26.72696,28.33057 H 417.475"
       id="path4173"
       inkscape:connector-curvature="0" />
    <path
       style="fill:none;stroke:#000000;stroke-width:1;stroke-linecap:butt;stroke-linejoin:miter;stroke-miterlimit:4;stroke-dasharray:none;stroke-opacity:1;marker-start:url(#marker4709)"
       d="M 173.19065,77.304448 133.10024,133.96558 H 48.643073"
       id="path4177"
       inkscape:connector-curvature="0" />
    <path
       style="fill:none;stroke:#000000;stroke-width:1.01932192;stroke-linecap:butt;stroke-linejoin:miter;stroke-miterlimit:4;stroke-dasharray:none;stroke-opacity:1;marker-start:url(#marker4855)"
       d="M 159.48742,51.001372 128.61084,79.684334 H 37.650123"
       id="path4179"
       inkscape:connector-curvature="0" />
    <text
       xml:space="preserve"
       style="font-style:normal;font-weight:normal;font-size:10.58333302px;line-height:1.25;font-family:sans-serif;letter-spacing:0px;word-spacing:0px;fill:#000000;fill-opacity:1;stroke:none;stroke-width:0.26458332"
       x="40.590084"
       y="73.540703"
       id="text2409-9"><tspan
         sodipodi:role="line"
         id="tspan2407-5"
         x="40.590084"
         y="73.540703"
         style="font-style:normal;font-variant:normal;font-weight:normal;font-stretch:normal;font-size:12.34722233px;font-family:'Bree Serif';-inkscape-font-specification:'Bree Serif, Normal';font-variant-ligatures:normal;font-variant-caps:normal;font-variant-numeric:normal;font-feature-settings:normal;text-align:start;writing-mode:lr-tb;text-anchor:start;stroke-width:0.26458332">Knurled surface</tspan></text>
    <rect
       style="fill:none;fill-opacity:1;stroke:#000000;stroke-width:0.95606101;stroke-linecap:butt;stroke-linejoin:round;stroke-miterlimit:4;stroke-dasharray:none;stroke-opacity:1;paint-order:normal"
       id="rect5109"
       width="415.28436"
       height="351.74612"
       x="23.047421"
       y="-1.2825154" />
    <rect
       style="fill:none;fill-opacity:1;stroke:#000000;stroke-width:1;stroke-linecap:butt;stroke-linejoin:round;stroke-miterlimit:4;stroke-dasharray:none;stroke-opacity:1;paint-order:normal"
       id="rect5111"
       width="412.66415"
       height="91.940712"
       x="24.588802"
       y="413.52951" />
  </g>
</svg>
