<?xml version="1.0" encoding="UTF-8" standalone="no"?>
<!-- Created with Inkscape (http://www.inkscape.org/) -->

<svg
   xmlns:dc="http://purl.org/dc/elements/1.1/"
   xmlns:cc="http://creativecommons.org/ns#"
   xmlns:rdf="http://www.w3.org/1999/02/22-rdf-syntax-ns#"
   xmlns:svg="http://www.w3.org/2000/svg"
   xmlns="http://www.w3.org/2000/svg"
   xmlns:sodipodi="http://sodipodi.sourceforge.net/DTD/sodipodi-0.dtd"
   xmlns:inkscape="http://www.inkscape.org/namespaces/inkscape"
   width="210mm"
   height="210mm"
   viewBox="0 0 210 210"
   version="1.1"
   id="svg8"
   inkscape:version="0.92.5 (2060ec1f9f, 2020-04-08)"
   sodipodi:docname="stonegrinders_main.svg">
  <defs
     id="defs2" />
  <sodipodi:namedview
     id="base"
     pagecolor="#ffffff"
     bordercolor="#666666"
     borderopacity="1.0"
     inkscape:pageopacity="0.0"
     inkscape:pageshadow="2"
     inkscape:zoom="0.35"
     inkscape:cx="-184.52817"
     inkscape:cy="380.33712"
     inkscape:document-units="mm"
     inkscape:current-layer="layer1"
     showgrid="false"
     inkscape:window-width="1920"
     inkscape:window-height="1017"
     inkscape:window-x="-8"
     inkscape:window-y="-8"
     inkscape:window-maximized="1" />
  <metadata
     id="metadata5">
    <rdf:RDF>
      <cc:Work
         rdf:about="">
        <dc:format>image/svg+xml</dc:format>
        <dc:type
           rdf:resource="http://purl.org/dc/dcmitype/StillImage" />
        <dc:title></dc:title>
      </cc:Work>
    </rdf:RDF>
  </metadata>
  <g
     inkscape:label="Layer 1"
     inkscape:groupmode="layer"
     id="layer1"
     transform="translate(0,-87)">
    <path
       style="fill:#000000;stroke-width:0.26897523"
       d="m 95.990985,291.62019 c -5.83154,-0.5287 -13.20301,-1.87293 -17.6287,-3.2147 -1.25824,-0.38145 -2.52095,-0.74725 -2.80604,-0.81288 -0.28509,-0.0656 -1.49621,-0.44202 -2.6914,-0.83642 -9.3713,-3.09244 -21.76383,-9.69403 -28.54599,-15.20663 -0.1496,-0.1216 -1.34736,-1.0674 -2.66166,-2.10177 -4.67563,-3.67974 -10.01667,-9.01983 -14.47292,-14.4703 -2.9426,-3.59913 -6.68724,-8.87317 -6.68724,-9.41849 0,-0.14121 -0.0939,-0.29704 -0.20863,-0.34632 -0.43083,-0.18504 -3.61249,-5.89403 -5.66779,-10.16998 -1.71291,-3.56362 -4.12977,-9.44399 -4.47452,-10.8868 -0.0353,-0.14784 -0.13358,-0.45026 -0.2183101,-0.67202 -1.46565,-3.83569 -3.55241,-12.77949 -4.2334699,-18.14457 -0.83859,-6.60605 -0.9372,-19.87246 -0.18833,-25.3371 1.1415099,-8.32977 3.0692299,-16.35805 5.34079,-22.24236 1.21291,-3.14193 1.23787,-3.20797 1.29219,-3.41952 0.0274,-0.10661 0.70779,-1.6696 1.51201,-3.47334 3.54987,-7.96163 9.53287,-17.39975 15.14175,-23.88588 2.79378,-3.23073 9.90876,-10.16843 12.83186,-12.51213 9.5984,-7.69584 19.15632,-13.03611 30.30607,-16.932845 3.22213,-1.126116 8.68625,-2.728765 10.87244,-3.188941 0.44409,-0.09347 1.1102,-0.232241 1.48028,-0.308379 2.89036,-0.594588 8.79108,-1.484825 11.57304,-1.746023 4.208065,-0.395081 14.327185,-0.389128 17.897855,0.01057 1.48028,0.165684 2.87308,0.306752 3.09512,0.313478 0.22204,0.0071 1.55429,0.184765 2.96055,0.395631 27.8265,4.172617 52.61996,19.833049 68.29801,43.139449 3.75035,5.57511 9.30997,16.09834 10.13776,19.18867 0.0396,0.14785 0.14632,0.45026 0.23716,0.67202 1.20973,2.95317 2.73364,7.88109 3.86542,12.49967 0.80456,3.28329 1.72629,8.26472 1.55997,8.43083 -0.0669,0.0669 -0.0162,0.25371 0.11296,0.41516 0.12911,0.16145 0.32117,1.20078 0.4268,2.30962 0.10563,1.10883 0.29333,2.98379 0.41709,4.16656 0.22642,2.16356 0.15003,15.70039 -0.097,17.20382 -0.0729,0.44354 -0.21648,1.71367 -0.31906,2.82251 -0.37558,4.05983 -1.98545,11.78063 -3.50311,16.80062 -3.02886,10.01862 -6.97673,18.3517 -12.86247,27.1498 -1.46363,2.18787 -4.31597,6.099 -5.19505,7.12346 -0.19029,0.22177 -0.80423,0.94755 -1.36429,1.61286 -14.07088,16.71489 -34.61622,28.97401 -55.8344,33.31559 -9.79767,2.00475 -20.18712,2.61945 -29.698685,1.7571 z m 15.744735,-0.52016 c 35.68166,-2.32506 67.71209,-24.08622 83.10475,-56.46054 21.16192,-44.50844 6.57987,-97.54652 -34.41733,-125.18327 -9.17538,-6.18526 -20.44215,-11.215914 -30.81494,-13.759009 -7.00599,-1.717657 -6.98576,-1.713908 -13.29709,-2.464307 -23.264745,-2.766122 -47.241185,3.077773 -66.881445,16.301326 -37.39604,25.17832 -53.2291901,72.38161 -38.50777,114.80308 13.82422,39.83614 50.6716,66.34587 93.277885,67.10847 0.96218,0.0173 4.35335,-0.13837 7.53594,-0.34575 z m -10.9002,-3.12222 C 57.937735,286.16095 21.241065,255.82286 11.370885,214.01506 9.3790249,205.57797 8.5705249,198.19125 8.8030849,190.55466 c 0.48518,-15.93224 3.8534801,-29.35494 10.6916801,-42.60637 18.00067,-34.88273 55.74706,-55.469178 94.655215,-51.623878 60.85058,6.013888 100.79466,66.027798 82.67428,124.213808 -10.34201,33.20904 -38.01107,58.32374 -72.1121,65.45485 -9.0178,1.88578 -14.82191,2.36823 -23.87664,1.98474 z m 14.5336,-0.9335 c 1.92435,-0.20922 6.10276,-0.92279 9.28535,-1.58575 37.86752,-7.88802 67.37486,-38.09657 74.41409,-76.18251 9.35721,-50.62738 -23.32309,-99.65652 -73.76165,-110.662047 -42.046315,-9.174372 -85.136085,10.981527 -105.147745,49.184447 -6.85251,13.08166 -10.3469101,26.89179 -10.8186701,42.75621 -0.14955,5.02937 -0.0917,6.30462 0.53048,11.69323 3.1302801,27.11061 16.8617801,50.85562 38.6514601,66.8375 19.01893,13.94964 43.4214,20.50556 66.846685,17.95892 z m -16.417585,-6.82924 c -9.01146,-0.49402 -20.39924,-3.29578 -29.39258,-7.23151 -38.33124,-16.77484 -59.7367001,-58.10458 -51.25361,-98.96071 6.74924,-32.50566 31.39932,-58.68239 63.40329,-67.33005 8.07404,-2.18166 14.73461,-3.10023 22.415995,-3.09143 7.89631,0.009 13.95644,0.66204 20.79898,2.24115 40.1691,9.27017 68.61206,45.10663 68.62885,86.46833 0.004,10.57617 -2.26273,22.14102 -6.34181,32.35173 -11.92607,29.85324 -39.08574,50.85909 -71.30325,55.14745 -3.64093,0.48462 -11.90366,0.68201 -16.955865,0.40504 z m 16.148445,-0.82438 c 1.33224,-0.16299 4.78398,-0.78239 7.6705,-1.37646 32.63767,-6.71698 58.78349,-31.46731 67.27883,-63.68793 1.91725,-7.27168 2.96767,-15.06729 2.96486,-22.00361 -0.0135,-33.35728 -18.69945,-63.79955 -48.32611,-78.73058 -12.86053,-6.48136 -25.5346,-9.43589 -40.55115,-9.45313 -7.640345,-0.009 -14.341805,0.91796 -22.370845,3.09358 -35.95556,9.74287 -62.05265,41.58369 -64.56125,78.7706 -2.50538,37.13928 18.6756,71.84198 52.86067,86.6064 8.99277,3.88395 20.02208,6.58247 28.88605,7.06751 4.665485,0.2553 12.916895,0.10897 16.148445,-0.28638 z m -14.80275,-0.17327 c -3.411615,-0.28859 -9.160995,-0.97149 -10.925425,-1.29771 -6.66933,-1.23301 -16.56954,-4.40504 -21.77515,-6.97674 -2.40873,-1.18997 -8.10475,-4.30852 -9.49139,-5.19647 -3.76008,-2.40785 -9.341,-6.78509 -12.94997,-10.15695 -8.46511,-7.90897 -14.71156,-16.60403 -19.70205,-27.42525 -4.6242,-10.02695 -7.12286,-20.26487 -7.70543,-31.57197 -0.62424,-12.11597 0.89129,-22.56129 4.93222,-33.9939 2.19017,-6.1964 5.70827,-13.24223 9.2659,-18.55712 3.41629,-5.10375 3.65273,-5.41173 7.83812,-10.20998 2.94195,-3.37272 7.70739,-7.84022 11.86092,-11.11937 4.73146,-3.7354 13.8278,-8.99271 19.71964,-11.39713 5.44787,-2.22324 12.77575,-4.3496 18.83984,-5.46685 0.37008,-0.0682 0.85453,-0.17427 1.07657,-0.23575 0.22205,-0.0615 1.91763,-0.24231 3.76797,-0.40183 1.85034,-0.15952 3.909266,-0.35791 4.575386,-0.44087 3.456079,-0.4304 14.599039,0.13158 19.097829,0.96316 1.56043,0.28845 3.38215,0.59987 4.04827,0.69207 1.98823,0.27518 9.89734,2.56903 13.15301,3.81472 4.92259,1.88349 10.64787,4.6835 14.16477,6.92743 1.18422,0.75558 2.7587,1.72022 3.49883,2.14364 0.74014,0.42342 2.784,1.92936 4.54191,3.34657 1.75792,1.4172 3.69573,2.95453 4.30626,3.41629 1.35252,1.02298 7.96043,7.73623 9.62496,9.77843 0.66278,0.81315 1.86198,2.38568 2.6649,3.49453 1.68571,2.32801 1.66249,2.29682 2.50236,3.36012 1.15636,1.46398 3.50321,5.42827 5.09227,8.60192 0.29612,0.59138 0.73951,1.37765 0.98531,1.74726 0.4645,0.6985 1.74842,3.62749 2.71014,6.18263 0.56007,1.48804 0.97003,2.47301 1.34643,3.23489 1.00795,2.04024 3.51624,12.18683 4.06242,16.43332 0.2789,2.16857 0.59984,4.58785 0.7132,5.3762 0.37756,2.62591 0.18601,14.89917 -0.27829,17.83077 -0.23415,1.47845 -0.49837,3.35341 -0.58715,4.16657 -0.24123,2.20944 -1.68255,8.13675 -3.13755,12.90287 -0.68299,2.23728 -3.45704,8.93762 -4.79687,11.58621 -1.44523,2.85693 -4.68257,8.37908 -6.1141,10.42919 -7.2069,10.32114 -17.10246,19.61236 -27.29033,25.62367 -4.82835,2.84896 -6.63231,3.75256 -11.55232,5.7865 -4.92781,2.03717 -5.58834,2.26897 -9.68906,3.40033 -5.03887,1.39018 -6.4065,1.66811 -11.84219,2.40663 -4.66977,0.63444 -13.48399,1.0615 -16.55216,0.80197 z m 16.15069,-1.30996 c 25.9109,-3.36994 49.23742,-18.63466 62.83294,-41.1175 11.62674,-19.22705 15.37098,-42.35893 10.3556,-63.97676 -1.42926,-6.16057 -1.26721,-5.61935 -3.42159,-11.42695 -8.96482,-24.16667 -29.09803,-43.47722 -53.89281,-51.6907 -48.583825,-16.093817 -100.527655,13.11147 -111.966725,62.95302 -10.4659801,45.60165 17.34926,91.37555 62.71691,103.20955 7.7081,2.01063 12.88463,2.66207 21.465605,2.70131 5.69696,0.026 7.42356,-0.0685 11.91007,-0.65197 z M 99.086101,269.30351 C 70.697085,267.2303 45.300215,249.22655 33.882105,223.08066 c -4.23149,-9.6895 -6.65672,-21.03458 -6.65643,-31.1383 2.8e-4,-10.02836 2.37778,-21.23299 6.54008,-30.82209 16.27055,-37.48413 59.00054,-55.94873 97.482665,-42.12447 27.0021,9.7002 46.64851,33.77993 50.5811,61.99501 0.97987,7.03018 0.98285,15.01895 0.008,21.93107 -3.47169,24.62095 -18.89137,46.35312 -41.03479,57.83358 -9.59454,4.97438 -19.51578,7.75891 -30.51026,8.56312 -2.98101,0.21804 -5.66224,0.38126 -5.9583,0.36267 -0.29605,-0.0186 -2.65775,-0.18856 -5.248239,-0.37774 z m 6.661239,-0.31449 c -0.40708,-0.0616 -1.0732,-0.0616 -1.48027,0 -0.40708,0.0616 -0.0741,0.11199 0.74013,0.11199 0.81416,0 1.14722,-0.0504 0.74014,-0.11199 z m 4.44595,-0.2526 c -0.18222,-0.0737 -0.54556,-0.0781 -0.80743,-0.0102 -0.26187,0.0682 -0.11278,0.12839 0.3313,0.13387 0.44408,0.005 0.65834,-0.0502 0.47613,-0.12392 z m -11.726535,-0.6973 c -0.32719,-0.33265 -1.8298,-2.00571 -3.33915,-3.71789 l -2.74427,-3.11309 -2.77156,-0.6157 c -1.52436,-0.33864 -4.08459,-1.03403 -5.68939,-1.5453 l -2.91784,-0.92958 -3.31973,2.19631 c -2.59841,1.71911 -3.45563,2.15901 -3.94524,2.02465 -1.71219,-0.46994 0.65387,0.48688 5.23238,2.11589 6.23146,2.21715 14.50311,4.07026 18.55436,4.15675 l 1.535326,0.0328 z m 14.532325,-0.0298 c 0.0614,-0.0614 -1.74192,-1.18644 -4.0074,-2.50022 l -4.11905,-2.38871 -0.0697,-14.35905 c -0.0409,-8.43299 0.032,-14.46062 0.17672,-14.60515 0.1491,-0.14891 6.92544,3.60628 17.1601,9.50947 9.30254,5.36556 18.32701,10.56786 20.05438,11.56068 l 3.14067,1.80511 2.33004,-1.61922 c 1.28152,-0.89059 2.22993,-1.70629 2.10757,-1.81268 -0.12236,-0.10639 -9.85097,-5.73628 -21.61914,-12.51087 -11.76818,-6.77459 -21.85086,-12.60138 -22.40596,-12.94844 l -1.00928,-0.63101 0.004,-10.5474 c 0.002,-5.80108 0.10427,-10.70512 0.22666,-10.89786 0.1224,-0.19273 0.93805,-0.45532 1.81258,-0.58352 1.79431,-0.26306 3.24755,-0.74364 4.98047,-1.64704 0.65172,-0.33975 1.36663,-0.58244 1.58867,-0.53929 0.22204,0.0432 12.67895,7.15543 27.68202,15.80506 15.00308,8.64964 27.36918,15.6242 27.48024,15.49904 1.03547,-1.16703 6.76123,-11.65201 6.36308,-11.65201 -0.0425,0 -1.87694,1.0376 -4.07656,2.30577 -2.5626,1.47745 -4.19717,2.26319 -4.55012,2.18725 -0.74157,-0.15956 -24.72658,-14.0297 -24.83794,-14.36339 -0.0482,-0.14463 8.94647,-5.45253 19.9883,-11.79532 l 20.07607,-11.53233 -0.12269,-2.77199 c -0.0674,-1.52461 -0.18475,-2.83401 -0.26064,-2.90979 -0.0759,-0.0758 -10.22087,5.67753 -22.54442,12.78516 -12.32355,7.10763 -22.58773,12.92296 -22.80928,12.92296 -0.43467,0 -17.50041,-9.74682 -18.34169,-10.47557 -0.49844,-0.43176 -0.49835,-0.46293 0.004,-1.58386 0.7568,-1.68828 1.10943,-3.15714 1.29823,-5.40766 l 0.16866,-2.01052 27.31778,-15.77776 c 15.02477,-8.67776 27.53789,-15.78692 27.80691,-15.79813 0.34729,-0.0144 0.44563,0.11604 0.3391,0.45003 -0.0825,0.25873 -0.7927,2.39107 -1.5782,4.73854 l -1.42817,4.26811 1.4255,5.1117 c 0.78402,2.81144 1.42609,5.36647 1.42683,5.67786 9.9e-4,0.45695 0.71749,0.92906 3.71451,2.44782 l 3.71319,1.88166 -0.48323,-3.49452 c -0.6618,-4.78589 -3.00724,-13.00954 -5.02166,-17.60705 -0.87452,-1.99591 -1.76629,-3.66419 -1.98171,-3.70729 -0.21542,-0.0431 -0.60436,-0.52695 -0.86434,-1.07524 -0.65291,-1.37706 -6.06498,-10.23246 -6.36797,-10.41949 -0.14525,-0.0896 -0.24607,1.87378 -0.24607,4.79221 v 4.9441 l -12.17861,7.01772 c -6.69824,3.85974 -12.39057,7.09838 -12.64961,7.19697 -0.44634,0.16988 -0.471,-1.0488 -0.471,-23.28077 0,-12.90301 -0.0748,-23.38531 -0.16622,-23.294 -0.0914,0.0913 -1.23959,-0.37237 -2.55147,-1.03043 -1.31187,-0.65806 -2.4482,-1.19646 -2.52518,-1.19646 -0.077,0 -0.13995,11.72531 -0.13995,26.05626 v 26.05625 l -0.74013,0.51532 c -1.31897,0.91833 -17.29313,10.05544 -17.82041,10.19315 -0.38025,0.0993 -0.76226,-0.21548 -1.49108,-1.22869 -0.84057,-1.16859 -2.14973,-2.29055 -4.91117,-4.20899 l -0.60556,-0.42071 v -31.67501 -31.67505 l -2.48956,-0.1813 c -2.10765,-0.15349 -10.614855,0.21318 -10.870525,0.46854 -0.0458,0.0457 1.6395,1.06643 3.745145,2.26818 2.10562,1.20175 3.97981,2.33786 4.16484,2.52468 0.26068,0.26321 0.33643,3.56557 0.33643,14.66726 0,13.06307 -0.0388,14.32756 -0.43862,14.32756 -0.58689,0 -40.201635,-22.85536 -40.201635,-23.19396 0,-0.17067 2.51517,-0.2194 7.06495,-0.13688 l 7.06493,0.12813 3.49885,-1.18417 c 1.92435,-0.65129 5.35565,-1.58955 7.62511,-2.08501 2.26945,-0.49547 4.17982,-0.95432 4.24527,-1.01967 0.0654,-0.0653 0.36012,-1.43653 0.65486,-3.04704 0.29475,-1.61053 0.6563,-3.13991 0.80341,-3.39865 0.38598,-0.67878 0.0322,-0.63886 -6.37249,0.71935 -7.42403,1.57434 -13.47712,3.74454 -20.14406,7.22219 -3.35388,1.74947 -4.82276,2.65262 -4.77377,2.93519 0.0437,0.25244 -0.75202,0.94766 -2.08584,1.82226 -1.18613,0.77776 -2.15253,1.48959 -2.14756,1.58183 0.005,0.0922 9.892,5.85305 21.97118,12.80179 12.07918,6.94873 22.248635,12.85453 22.598785,13.12399 l 0.63663,0.48992 v 10.44209 c 0,5.74316 -0.0736,10.63344 -0.16337,10.86729 -0.10162,0.2645 -0.48715,0.42521 -1.02002,0.42521 -1.33484,0 -3.90189,0.7517 -5.724585,1.6763 l -1.6597,0.84193 -5.20337,-2.99122 c -31.87147,-18.32179 -49.87164,-28.80075 -49.96798,-29.08944 -0.0762,-0.22818 0.004,-0.27593 0.22871,-0.13695 0.19784,0.12211 0.27906,0.10574 0.18995,-0.0383 -0.0873,-0.14104 1.91182,-0.65734 4.54863,-1.17475 l 4.70434,-0.92313 1.42237,-1.48767 c 0.7823,-0.81822 2.66481,-2.69544 4.18336,-4.17159 l 2.761,-2.6839 -0.18028,-3.49873 c -0.0992,-1.9243 -0.24037,-3.71041 -0.31378,-3.96914 -0.0909,-0.32036 0.0224,-0.47718 0.35561,-0.49164 0.26903,-0.0117 0.34595,-0.0795 0.17093,-0.15073 -0.94318,-0.38392 -9.58512,7.46037 -13.65378,12.39354 -3.84296,4.65949 -5.07757,6.38259 -4.72788,6.59845 0.18982,0.11718 -0.53023,1.55332 -2.00029,3.98957 -1.81403,3.00627 -4.19536,7.53739 -4.19536,7.98277 0,0.0399 1.78643,-0.95878 3.96984,-2.21901 2.1834,-1.26024 4.21204,-2.2973 4.5081,-2.30456 0.71597,-0.0175 24.73863,13.89889 24.83955,14.38969 0.0521,0.25333 -4.30646,2.90986 -12.91875,7.87394 -7.14855,4.12038 -16.17124,9.32664 -20.05042,11.56945 -3.87918,2.24279 -7.14925,4.00394 -7.2668,3.91363 -0.11756,-0.0903 -0.0624,0.009 0.12268,0.2211 0.19293,0.22093 0.35002,1.19369 0.36828,2.2804 0.0175,1.0423 0.10835,2.21261 0.20184,2.60066 0.16779,0.69625 0.46054,0.53773 22.23955,-12.04347 12.13825,-7.01196 22.35459,-12.86536 22.70298,-13.00753 0.54991,-0.22443 1.85365,0.4422 9.88505,5.05441 6.71701,3.85738 9.25321,5.44546 9.25748,5.79669 0.003,0.26606 -0.19311,0.86807 -0.4363,1.33778 -0.62652,1.21005 -1.15186,3.57959 -1.1631,5.24606 -0.005,0.78243 -0.16096,1.59404 -0.34601,1.80356 -0.18503,0.20954 -12.64491,7.48322 -27.6886,16.16374 -18.41725,10.62715 -27.2733,15.87736 -27.11068,16.07231 0.13285,0.15923 1.42512,2.28542 2.87173,4.72487 1.44662,2.43946 2.95817,4.91706 3.35901,5.50581 l 0.72879,1.07043 0.004,-4.43057 c 0.002,-2.4368 0.073,-4.67248 0.15762,-4.96817 0.10498,-0.36659 3.99889,-2.74749 12.24005,-7.48408 6.64735,-3.82054 12.33064,-7.01032 12.6295,-7.08838 0.54243,-0.14167 0.54327,-0.10007 0.47318,23.25103 -0.0386,12.86611 0.0104,23.34319 0.10879,23.2824 0.0985,-0.0609 1.33928,0.42729 2.75737,1.08467 l 2.57834,1.19521 0.0687,-26.24213 0.0686,-26.24212 8.74707,-5.04514 c 4.81089,-2.77484 9.02289,-5.19412 9.35999,-5.37619 0.54015,-0.29173 0.66682,-0.25337 1.06712,0.32315 0.97208,1.39996 2.9621,3.33675 4.37562,4.25857 0.81416,0.53094 1.509596,1.11369 1.545436,1.29498 0.0358,0.18129 0.068,14.57606 0.0713,31.98839 l 0.006,31.65875 6.762029,-0.19433 c 3.71911,-0.10688 6.81226,-0.24451 6.87367,-0.30585 z m -9.47216,-65.76938 c -2.05117,-0.29892 -4.282529,-1.42125 -5.760585,-2.8975 -5.19574,-5.18936 -3.75666,-13.563 2.881675,-16.76756 1.66024,-0.80145 2.00397,-0.86831 4.35919,-0.84798 2.17454,0.0188 2.79576,0.13056 4.15477,0.74762 2.22717,1.01126 4.65363,3.5372 5.50242,5.72801 2.28751,5.90431 -1.58502,12.92499 -7.67135,13.90774 -0.57412,0.0928 -1.28607,0.20393 -1.58212,0.24716 -0.29606,0.0433 -1.14385,-0.0102 -1.884,-0.11749 z m 4.33687,-0.92699 c 5.29269,-1.56983 8.24124,-7.57447 6.28493,-12.79913 -0.82317,-2.19842 -2.81504,-4.32435 -5.04975,-5.38957 -1.57614,-0.75129 -2.08164,-0.85834 -4.11199,-0.87078 -2.07982,-0.0127 -2.49408,0.0739 -4.07876,0.85308 -8.047335,3.95681 -7.457235,15.20174 0.95,18.10313 1.71334,0.59128 4.21517,0.6343 6.00557,0.10327 z m 6.2942,67.06214 c 0,-0.14784 -0.0534,-0.26881 -0.11869,-0.26881 -0.0653,0 -0.19354,0.12097 -0.28503,0.26881 -0.0915,0.14784 -0.038,0.26881 0.11869,0.26881 0.15677,0 0.28503,-0.12097 0.28503,-0.26881 z m 6.65599,-1.05353 c 6.78572,-1.41521 13.29312,-3.73625 19.67561,-7.01788 2.61477,-1.34442 4.83777,-2.52786 4.93999,-2.6299 0.10221,-0.10201 -3.28896,-0.1855 -7.53594,-0.1855 h -7.72179 l -2.9905,1.11305 c -1.64478,0.61217 -4.85427,1.50842 -7.13223,1.99168 -2.27795,0.48326 -4.1711,0.8988 -4.207,0.92343 -0.0583,0.0401 -1.41499,6.52251 -1.41499,6.76121 0,0.27005 1.79842,8e-4 6.38685,-0.95609 z M 98.816965,236.16769 v -31.40098 l -0.91064,-0.43372 c -0.50086,-0.23854 -1.37237,-0.83553 -1.93673,-1.32663 -0.56434,-0.4911 -0.94909,-0.76507 -0.85499,-0.6088 0.0941,0.15627 -0.36527,1.18447 -1.02078,2.28488 l -1.19188,2.00078 0.002,27.1498 0.002,27.14979 2.88768,3.28878 c 1.58823,1.80882 2.91798,3.29064 2.95498,3.29292 0.037,0.002 0.0673,-14.12629 0.0673,-31.39682 z m 15.709155,28.91448 c 0.25988,-1.36758 0.53577,-2.74692 0.61308,-3.0652 0.11686,-0.48108 -0.1381,-0.74184 -1.5113,-1.54566 -0.90853,-0.53182 -1.79678,-0.96544 -1.97389,-0.9636 -0.1771,0.002 -1.62952,0.76743 -3.2276,1.70132 l -2.9056,1.69798 3.98217,2.31189 c 2.19018,1.27155 4.11006,2.32042 4.2664,2.33083 0.15633,0.0104 0.49686,-1.09999 0.75674,-2.46756 z m -3.05954,-12.74364 v -6.50372 l -2.9985,-5.19446 c -1.64917,-2.85697 -3.04198,-5.24488 -3.09512,-5.30648 -0.0531,-0.0616 -0.0966,6.00619 -0.0966,13.48398 v 13.59599 l 3.09511,-1.7858 3.09512,-1.7858 z m -33.171585,6.94446 2.22041,-1.47218 v -22.10812 -22.10811 l -2.75868,-1.54659 c -1.51729,-0.85062 -2.84954,-1.5963 -2.96056,-1.65708 -0.11102,-0.0607 -0.20186,11.46267 -0.20186,25.60764 v 25.71812 l 0.74014,-0.48074 c 0.40708,-0.26442 1.73932,-1.14324 2.96055,-1.95294 z m 48.710165,-1.13887 c 1.95899,-0.64634 3.47292,-1.26043 3.36426,-1.36465 -0.10866,-0.10422 -4.28514,-2.54783 -9.28106,-5.43026 l -9.0835,-5.24075 v 6.41618 6.41616 l 1.77308,1.03752 1.77308,1.03751 3.94616,-0.84827 c 2.17039,-0.46656 5.54898,-1.37711 7.50798,-2.02344 z M 92.357595,233.96743 c 0,-14.63671 -0.0479,-26.61219 -0.10645,-26.61219 -0.0585,0 -2.57166,1.42356 -5.58467,3.16347 l -5.47822,3.16347 -0.0689,21.94766 -0.0689,21.94766 2.22198,0.74448 c 2.25279,0.75479 7.75165,2.17802 8.61405,2.2295 0.44561,0.0266 0.47102,-1.40762 0.47102,-26.58405 z m -24.70717,24.6633 c -1.17419,-1.9413 -3.02695,-5.33625 -4.43768,-8.1315 -1.47682,-2.92618 -1.53341,-2.99462 -5.44687,-6.58585 -3.23379,-2.96752 -5.38741,-5.17943 -7.42305,-7.62398 -0.10612,-0.12744 -1.54348,0.21775 -3.19413,0.7671 -1.65067,0.54934 -3.0743,0.92578 -3.16366,0.83654 -0.24554,-0.24525 -0.15245,-0.28683 2.88778,-1.28957 l 2.82598,-0.93206 0.0771,-2.13555 0.0773,-2.13556 -2.93768,-1.67335 c -1.61573,-0.92035 -3.01299,-1.67335 -3.10503,-1.67335 -0.092,0 -0.16733,2.30546 -0.16733,5.12326 0,3.77044 -0.081,5.07317 -0.30723,4.9336 -0.16897,-0.1043 0.93802,1.34004 2.45998,3.20966 3.50343,4.30373 9.28262,9.68705 13.99569,13.037 3.67451,2.61174 7.68379,5.14724 8.13912,5.14724 0.13648,0 0.0104,-0.39314 -0.28027,-0.87363 z m 0.42023,-33.23342 -0.0703,-11.02955 -3.02784,5.23207 -3.02784,5.23208 v 11.02516 11.02515 l 1.10154,2.21173 c 0.60585,1.21644 1.96837,3.77163 3.02784,5.6782 l 1.9263,3.46649 0.0703,-10.90589 c 0.0386,-5.99823 0.0386,-15.86918 0,-21.93544 z m 75.813915,31.46258 c -0.32457,-0.28587 -37.73008,-21.81723 -37.90213,-21.81723 -0.0702,0 1.22262,2.34135 2.87297,5.20299 l 3.00065,5.20299 9.83476,5.6737 9.83476,5.67372 2.82197,0.0878 c 6.34346,0.19741 9.77858,0.18876 9.53702,-0.0239 z m 8.62596,-4.14769 c 3.10375,-2.22985 8.93998,-8.05204 12.55151,-12.52135 2.0726,-2.56484 3.70339,-4.72825 3.62399,-4.80755 -0.0795,-0.0794 -0.48132,-0.0132 -0.89315,0.14698 -0.41181,0.16015 -2.57385,0.65164 -4.80451,1.09218 l -4.05577,0.80102 -4.3052,4.25299 -4.30519,4.25299 0.25976,3.95594 c 0.18047,2.74854 0.35013,3.90164 0.55587,3.77808 0.16287,-0.0979 0.78058,-0.52589 1.37269,-0.95128 z m -2.43197,-2.95219 c -0.10533,-1.81111 -0.28675,-3.47437 -0.40316,-3.69615 -0.19311,-0.36785 -37.06444,-21.79919 -37.83394,-21.99085 -0.34783,-0.0866 -6.33291,3.22688 -6.15307,3.4065 0.24444,0.24414 44.15253,25.54379 44.35619,25.55786 0.12401,0.008 0.1393,-1.46627 0.034,-3.27736 z m -88.733855,-19.25561 -0.0729,-5.3447 -5.44501,3.12702 -5.44503,3.127 -0.005,2.11842 -0.005,2.1184 1.79304,2.04815 c 0.9862,1.12648 3.43873,3.5795 5.45011,5.45116 l 3.65704,3.40302 0.0729,-5.3519 c 0.0401,-2.94354 0.0401,-7.75699 0,-10.69657 z m 92.864945,10.87265 c 2.6342,-2.58593 3.86305,-3.97 3.68369,-4.14899 -0.28762,-0.28703 -44.9068,-26.05957 -45.52885,-26.29798 -0.30811,-0.11807 -0.35751,0.92026 -0.29729,6.24754 l 0.0722,6.38917 18.70527,10.82102 c 10.2879,5.95156 18.86432,10.83195 19.0587,10.84532 0.19438,0.0134 2.13219,-1.72187 4.30625,-3.85608 z m 9.40293,-5.42925 c 2.10939,-0.4132 3.83223,-0.81612 3.82853,-0.8954 -0.004,-0.0793 -12.20587,-7.17228 -27.11592,-15.76223 l -27.1092,-15.61807 -1.70448,0.90073 c -0.93747,0.49542 -1.88474,0.90075 -2.10507,0.90075 -0.33237,0 -0.34002,0.0615 -0.045,0.36087 0.19561,0.19848 0.83265,1.21195 1.41564,2.25216 l 1.05999,1.89128 23.29724,13.46836 c 17.58971,10.16877 23.46208,13.44195 23.97009,13.36058 0.37007,-0.0592 2.39872,-0.44585 4.50811,-0.85903 z M 41.220865,235.04266 c -0.15844,-0.29569 -0.34863,-0.53761 -0.42265,-0.53761 -0.074,0 -0.005,0.24192 0.15352,0.53761 0.15844,0.29568 0.34863,0.53762 0.42265,0.53762 0.074,0 0.005,-0.24194 -0.15352,-0.53762 z m 15.90363,-8.05804 4.43998,-2.54744 3.01624,-5.2255 c 1.65893,-2.87402 2.98589,-5.24759 2.9488,-5.27462 -0.12701,-0.0925 -23.10693,13.2613 -23.16026,13.45863 -0.0293,0.10837 1.26448,0.95948 2.87506,1.89137 l 2.92831,1.69433 1.25594,-0.72466 c 0.69076,-0.39857 3.25394,-1.87102 5.69593,-3.27211 z m -18.86418,3.21946 c -0.15844,-0.29569 -0.34863,-0.53762 -0.42264,-0.53762 -0.0741,0 -0.005,0.24193 0.15351,0.53762 0.15844,0.29569 0.34863,0.53762 0.42265,0.53762 0.074,0 0.005,-0.24193 -0.15352,-0.53762 z m 134.032045,-0.53762 c 0.15844,-0.2957 0.22752,-0.53762 0.15351,-0.53762 -0.0741,0 -0.2642,0.24192 -0.42265,0.53762 -0.15844,0.29569 -0.22752,0.53762 -0.15351,0.53762 0.0741,0 0.26421,-0.24193 0.42265,-0.53762 z M 37.452895,228.86003 c -0.15844,-0.2957 -0.34863,-0.53762 -0.42265,-0.53762 -0.074,0 -0.005,0.24192 0.15352,0.53762 0.15844,0.2957 0.34863,0.53762 0.42264,0.53762 0.074,0 0.005,-0.24192 -0.15351,-0.53762 z m 135.646885,-0.53762 c 0.15845,-0.29569 0.22753,-0.53762 0.15351,-0.53762 -0.0741,0 -0.2642,0.24193 -0.42264,0.53762 -0.15845,0.29569 -0.22753,0.53762 -0.15351,0.53762 0.0741,0 0.2642,-0.24193 0.42264,-0.53762 z m -61.6332,-11.4679 v -6.52587 l -1.36349,-2.3056 c -1.013,-1.71294 -1.47999,-2.27366 -1.8167,-2.18133 -0.24926,0.0684 -1.0285,0.20236 -1.73163,0.29775 l -1.27841,0.17348 v 10.32138 10.32137 l 3.09511,-1.78765 3.09512,-1.78767 z m 60.61294,7.04032 3.15141,-1.81331 -2.44649,-2.11788 -2.44647,-2.11786 -1.84699,1.00456 -1.84697,1.00456 -0.002,3.58727 -0.002,3.58728 1.14385,-0.66065 c 0.62911,-0.36337 2.56198,-1.47666 4.29526,-2.47397 z m -5.97739,-0.64303 v -3.45774 l -5.68457,-3.26746 -5.68458,-3.26747 -6.02698,0.0722 -6.027,0.0722 11.50971,6.64313 c 6.33034,3.65372 11.60055,6.64759 11.71157,6.65304 0.11101,0.005 0.20185,-1.54607 0.20185,-3.44783 z M 37.252345,210.80067 c -0.76382,-2.70811 -1.42479,-5.27954 -1.46881,-5.71427 -0.0735,-0.72577 -0.36148,-0.92744 -3.52022,-2.46529 -1.8921,-0.92119 -3.32761,-1.74437 -3.19002,-1.82929 0.13758,-0.0849 1.62511,0.50924 3.3056,1.32038 1.6805,0.81114 3.223,1.47592 3.42779,1.47727 0.20479,0.001 8.89467,-4.91319 19.31085,-10.92121 l 18.93849,-10.92368 v -3.45765 c 0,-1.90171 -0.0696,-3.45765 -0.1547,-3.45765 -0.085,0 -10.16514,5.77173 -22.40013,12.82607 -12.235,7.05434 -22.46063,12.82607 -22.72363,12.82607 -0.3839,0 -0.45059,0.16092 -0.3382,0.81604 0.0771,0.44881 0.31267,2.08616 0.52369,3.63854 0.55535,4.08553 2.80345,11.82434 4.78147,16.45956 l 1.68982,3.95991 1.60339,-4.81548 1.60339,-4.81545 z m 27.11463,-2.37471 c 14.43266,-8.31438 26.25521,-15.13194 26.27232,-15.15014 0.0171,-0.0181 0.0965,-1.03101 0.17641,-2.25074 l 0.14528,-2.21769 -2.4641,0.005 -2.4641,0.005 -23.41524,13.50739 -23.41523,13.50738 -1.39414,4.02707 c -0.76677,2.21487 -1.4026,4.18813 -1.41298,4.38499 -0.0136,0.25967 0.22128,0.21245 0.85586,-0.17203 0.48108,-0.29149 12.68325,-7.33265 27.11592,-15.64703 z m 112.585875,11.29458 c 2.83286,-6.76626 5.02953,-18.00729 5.02756,-25.72743 l -0.001,-3.97607 -1.82765,3.09132 c -1.00521,1.70022 -2.63145,4.3674 -3.61386,5.92704 -1.58721,2.51981 -1.83064,3.08996 -2.185,5.11764 -0.41005,2.34635 -2.56451,10.31279 -3.29456,12.18214 l -0.41007,1.04999 1.42763,1.23239 c 0.78519,0.67782 1.97161,1.73855 2.6365,2.35718 0.66488,0.61863 1.22574,1.10361 1.24635,1.07773 0.0206,-0.0259 0.46797,-1.07524 0.99412,-2.33193 z m -7.122,-2.24927 c 0.50859,-0.39399 0.72773,-1.01404 2.24518,-6.35265 1.14808,-4.03919 2.18041,-8.59829 1.99186,-8.79676 -0.13266,-0.13964 -18.45187,10.56162 -18.39262,10.74414 0.0357,0.11006 2.48052,1.58728 5.43288,3.2827 l 5.36792,3.0826 1.49516,-0.83885 c 0.82234,-0.46137 1.65917,-0.9659 1.85962,-1.12118 z M 62.488525,201.84089 c 12.50525,-7.20789 22.76518,-13.12749 22.79981,-13.15467 0.0816,-0.0641 -10.19445,-5.99001 -10.76968,-6.21048 -0.28639,-0.10975 -7.00309,3.61912 -19.43561,10.78997 l -18.99799,10.95768 0.16976,0.82671 c 0.16738,0.81518 2.43796,9.08545 2.68852,9.79255 0.0709,0.20014 0.28181,0.30531 0.46865,0.2337 0.18683,-0.0717 10.57128,-6.02756 23.07654,-13.23546 z m 24.94153,7.65394 4.8961,-2.81157 1.15957,-2.00984 c 0.63776,-1.10541 1.19885,-2.1001 1.24686,-2.21043 0.048,-0.11033 -0.38333,-0.85701 -0.95854,-1.65928 l -1.04582,-1.45869 -8.92535,5.14115 c -4.90894,2.82765 -8.83768,5.2257 -8.73053,5.32901 0.10715,0.10331 1.46651,0.91665 3.0208,1.8074 l 2.82597,1.61958 0.80742,-0.46787 c 0.44408,-0.25734 3.01067,-1.73309 5.70352,-3.27946 z m 77.127225,-2.34116 9.69607,-5.5778 1.48971,-2.28489 c 2.98494,-4.57822 5.41616,-8.87281 4.805,-8.48772 -0.43574,0.27457 -34.18404,19.74036 -37.45746,21.60522 -0.41525,0.23657 0.86841,0.30852 5.61617,0.31483 l 6.15445,0.008 9.69606,-5.5778 z m -29.13718,-1.4858 v -3.56907 l -5.72561,-3.28558 -5.7256,-3.28558 h -2.48319 c -1.47602,0 -2.48318,-0.10902 -2.48318,-0.2688 0,-0.16037 1.03276,-0.26881 2.55999,-0.26881 h 2.55999 l 23.36092,-13.47294 23.3609,-13.47295 1.39049,-4.18528 c 0.76476,-2.30192 1.3433,-4.23241 1.28565,-4.29 -0.0577,-0.0576 -12.25695,6.90251 -27.10953,15.46689 l -27.0047,15.57157 -0.0632,0.9145 c -0.13802,1.99958 -0.6969,4.74431 -1.21415,5.96288 -0.30001,0.70676 -0.46234,1.36805 -0.36074,1.46953 0.14721,0.14703 17.33675,10.17659 17.5846,10.26006 0.037,0.0125 0.0673,-1.58342 0.0673,-3.54642 z m 23.60576,-9.72389 21.85634,-12.58866 -3.40793,-1.57806 -3.40795,-1.57805 -5.26501,3.02725 c -2.89576,1.66499 -11.46731,6.59569 -19.04789,10.95714 l -13.78288,7.92988 -0.006,3.59265 -0.006,3.59265 0.60556,-0.38307 c 0.33306,-0.21069 10.44093,-6.04797 22.46192,-12.97173 z m -4.22763,-5.2144 c 18.39505,-10.62309 18.97169,-10.98034 18.88539,-11.70053 -0.0948,-0.79136 -2.63711,-10.10346 -2.80378,-10.26992 -0.0713,-0.0712 -43.3539,24.75895 -45.92518,26.34613 -0.21037,0.12986 1.67604,1.37242 5.13371,3.38151 3.00646,1.74692 5.52685,3.18167 5.60087,3.18835 0.0741,0.007 8.67306,-4.91882 19.10899,-10.94554 z M 27.954185,196.0012 c -0.0644,-0.33438 -0.11949,-0.12411 -0.12248,0.46728 -0.003,0.59139 0.0497,0.86497 0.11705,0.60795 0.0674,-0.257 0.0698,-0.74085 0.005,-1.07523 z m 2.12359,-5.64815 c 1.15358,-1.95895 2.78126,-4.60421 3.61705,-5.87836 1.32281,-2.01657 1.56333,-2.59105 1.85693,-4.43535 0.33655,-2.11415 2.63607,-10.63846 3.3773,-12.51969 l 0.3911,-0.99258 -2.40079,-2.07235 c -1.32044,-1.13979 -2.47505,-2.26563 -2.56581,-2.50185 -0.29229,-0.76074 -2.00701,3.60378 -3.52752,8.97867 -1.75406,6.20047 -3.0622,14.65597 -3.0622,19.79339 0,1.75442 0.0487,3.18985 0.10825,3.18985 0.0595,0 1.0521,-1.60278 2.20569,-3.56173 z m 18.10425,-8.0364 c 10.30798,-5.93545 18.85684,-10.89499 18.99745,-11.02121 0.14212,-0.12755 -2.42825,-0.22893 -5.78651,-0.2282 l -6.04222,9.9e-4 -9.82363,5.66258 c -11.02467,6.3549 -9.75097,5.29029 -13.32257,11.13546 -2.41728,3.95606 -3.13866,5.2418 -2.941,5.2418 0.0971,0 8.61051,-4.85627 18.91848,-10.79171 z m 43.55496,4.42009 c 0.32477,-0.83812 0.53505,-1.61348 0.46727,-1.72301 -0.0678,-0.10954 -1.90799,-1.22192 -4.08936,-2.47196 -2.18134,-1.25003 -6.14614,-3.53242 -8.81062,-5.07195 l -4.84454,-2.79916 0.13457,3.63087 0.13457,3.63087 5.38282,3.1418 5.38281,3.14182 2.82597,0.0222 2.82598,0.0222 0.59053,-1.52385 z m 34.752555,-7.47209 c 6.74845,-3.89021 8.73991,-5.15344 8.35636,-5.30056 -0.27696,-0.10623 -1.64187,-0.86226 -3.03312,-1.68007 -1.39126,-0.81778 -2.63241,-1.48506 -2.7581,-1.48284 -0.1257,0.002 -2.71135,1.43393 -5.74591,3.18155 l -5.51739,3.17749 -1.36617,2.24611 -1.36617,2.24608 1.07419,1.43463 c 0.5908,0.78903 1.16918,1.40094 1.28529,1.3598 0.11611,-0.0412 4.19806,-2.37312 9.07102,-5.18219 z m -81.134005,-2.99963 c 5.05329,-2.90648 9.20773,-5.29552 9.2321,-5.309 0.0243,-0.0136 -2.45014,-1.46711 -5.4989,-3.23032 l -5.5432,-3.20585 -1.7679,0.9621 c -1.08337,0.58958 -1.91259,1.25063 -2.14159,1.70725 -1.0099,2.0137 -4.14407,14.36033 -3.64534,14.36033 0.0973,0 4.31155,-2.37803 9.36483,-5.28451 z m 71.757165,-26.19954 0.006,-27.04869 -1.41298,-1.5888 c -3.72407,-4.18746 -4.55121,-5.20453 -4.4585,-5.48235 0.0551,-0.16516 1.48695,1.28315 3.18183,3.21847 1.69488,1.9353 3.26591,3.56913 3.49119,3.63073 0.22528,0.0616 1.56017,0.37139 2.96643,0.68844 1.40627,0.31704 3.7026,0.93134 5.10297,1.36511 1.40038,0.43377 2.70471,0.78867 2.89851,0.78867 0.1938,0 1.71173,-0.90723 3.37316,-2.01607 1.66143,-1.10884 3.26383,-2.01975 3.56088,-2.02426 0.87808,-0.0133 0.11774,-0.34784 -4.85633,-2.13685 -5.00617,-1.80055 -13.79931,-3.8385 -17.81481,-4.12884 l -2.21823,-0.16041 -0.0695,31.93359 -0.0695,31.93358 1.28375,0.63939 c 0.70608,0.35167 1.54623,0.91843 1.86701,1.25948 l 0.58324,0.62007 1.28957,-2.22129 1.28958,-2.22128 0.006,-27.04869 z m -16.14139,28.25794 c 0.92606,-0.29548 2.15243,-0.53723 2.72525,-0.53723 h 1.0415 l -0.008,-10.6852 c -0.005,-7.04921 -0.0973,-10.53286 -0.26977,-10.23754 -0.14386,0.24623 -1.53095,1.15346 -3.08241,2.01608 l -2.820855,1.56842 -0.002,6.58585 -0.002,6.58583 1.207576,2.11148 c 0.664159,1.16131 1.134549,2.22948 1.045309,2.37372 -0.0892,0.14423 -0.73078,-0.7308 -1.425579,-1.94454 l -1.263496,-2.20679 -23.39075,-13.49155 -23.39075,-13.49157 -4.42797,0.89142 c -2.43539,0.49028 -4.45902,0.92241 -4.49698,0.96031 -0.0379,0.0379 11.99537,7.02364 26.74067,15.52388 14.74531,8.50025 26.93781,15.59574 27.09444,15.76779 0.21323,0.23419 0.63132,0.11606 1.66392,-0.47017 0.75854,-0.43063 2.136825,-1.02471 3.062905,-1.32019 z m 27.1147,-7.68829 0.60557,-0.38801 v -22.00026 -22.00024 l -2.62412,-0.82462 c -1.44327,-0.45354 -3.7747,-1.08286 -5.18096,-1.39848 -1.40626,-0.31562 -2.70823,-0.62224 -2.89326,-0.68136 -0.26761,-0.0855 -0.33643,5.35858 -0.33643,26.61363 v 26.72114 l 4.91182,-2.82689 c 2.7015,-1.5548 5.18432,-3.00151 5.51738,-3.21491 z m 7.33409,-22.69707 v -25.816 l -3.09512,2.08852 -3.09512,2.08851 v 21.94187 21.94186 l 3.02783,1.76819 c 1.66531,0.97251 3.05811,1.77603 3.09512,1.78561 0.037,0.009 0.0673,-11.59977 0.0673,-25.79856 z m -37.414385,18.89413 -0.004,-6.38424 -18.88151,-10.8868 c -10.38497,-5.98775 -18.95729,-10.9188 -19.04959,-10.95791 -0.24355,-0.10319 -8.08779,7.5441 -8.08575,7.88274 10e-4,0.2164 45.57589,26.73044 45.94653,26.73044 0.043,0 0.0765,-2.8729 0.0744,-6.38423 z m -30.96978,3.59174 c -0.10763,-0.10017 -22.13785,-12.80843 -23.0724,-13.30941 -0.41967,-0.22497 -0.44453,0.0358 -0.3204,3.35944 l 0.13457,3.60332 5.51739,3.21187 5.51738,3.21185 6.16781,0.0136 c 3.39229,0.007 6.11733,-0.0333 6.05565,-0.0907 z m 92.006885,-9.93672 c 3.88882,-2.23721 6.91666,-4.1153 6.72852,-4.17352 -0.18813,-0.0582 -1.56443,-0.81509 -3.05842,-1.68193 -1.49399,-0.86685 -2.82624,-1.5707 -2.96055,-1.56412 -0.1343,0.007 -2.76739,1.48838 -5.85131,3.29292 l -5.60712,3.28096 -3.03507,5.27597 -3.03508,5.27595 4.87423,-2.81929 c 2.68082,-1.55061 8.05599,-4.64974 11.9448,-6.88694 z m -14.08929,3.90755 2.84703,-4.9212 v -11.44255 -11.44257 l -2.08583,-4.06443 c -1.14722,-2.23544 -2.32808,-4.44257 -2.62413,-4.90471 -0.29605,-0.46215 -0.68255,-1.06697 -0.85887,-1.34405 -0.24962,-0.39224 -0.32411,4.34189 -0.33643,21.38183 -0.009,12.03708 0.0352,21.83459 0.0977,21.77224 0.0625,-0.0624 1.39468,-2.32791 2.96055,-5.03456 z m -103.543025,0.7259 c 0.80645,-0.46084 1.52151,-0.98165 1.58902,-1.15735 0.0676,-0.17571 0.0886,-1.78927 0.0468,-3.58571 l -0.076,-3.26625 -4.11582,2.3717 -4.11581,2.37171 2.36575,2.0519 c 1.30116,1.12854 2.47242,2.05189 2.60278,2.05189 0.13037,0 0.89686,-0.37705 1.70331,-0.83789 z m 59.831665,-6.75598 c 1.62303,-0.92404 2.92218,-1.76912 2.887,-1.87796 -0.0352,-0.10883 -9.995255,-5.92711 -22.133495,-12.9295 l -22.06954,-12.7316 -0.0706,1.10186 c -0.0388,0.60602 0.0218,2.23962 0.13457,3.63022 l 0.20517,2.52836 18.97443,10.9642 c 10.43592,6.03032 19.00749,10.97102 19.04796,10.97935 0.0405,0.008 1.401456,-0.7409 3.024505,-1.66493 z m 53.62333,-3.15435 4.77726,-2.74789 v -2.01847 -2.01846 l -1.73932,-2.05308 c -1.51685,-1.79048 -4.5438,-4.74344 -8.42074,-8.21489 l -1.14385,-1.02421 v 10.94 10.94002 l 0.8747,-0.52756 c 0.4811,-0.29015 3.02447,-1.76411 5.65195,-3.27546 z m 11.15633,-8.7759 c -0.0512,-0.0511 -1.37795,0.35933 -2.94841,0.91207 l -2.85537,1.005 -0.0857,2.06178 -0.0858,2.06178 2.96055,1.71604 2.96054,1.71604 0.0737,-4.6899 c 0.0405,-2.57944 0.0317,-4.7317 -0.0193,-4.78281 z m -127.492365,6.89005 c 0.15844,-0.29569 0.22752,-0.53761 0.15351,-0.53761 -0.074,0 -0.26421,0.24192 -0.42266,0.53761 -0.15844,0.2957 -0.22752,0.53762 -0.15351,0.53762 0.0741,0 0.26422,-0.24192 0.42266,-0.53762 z M 171.2158,152.51805 c -0.15844,-0.29569 -0.34863,-0.53761 -0.42264,-0.53761 -0.0741,0 -0.005,0.24192 0.1535,0.53761 0.15845,0.2957 0.34864,0.53762 0.42265,0.53762 0.0741,0 0.005,-0.24192 -0.15351,-0.53762 z m -0.80742,-1.34404 c -0.15844,-0.29569 -0.34863,-0.53762 -0.42265,-0.53762 -0.0741,0 -0.005,0.24193 0.15351,0.53762 0.15845,0.29569 0.34864,0.53761 0.42265,0.53761 0.0741,0 0.005,-0.24192 -0.15351,-0.53761 z m -0.80742,-1.34406 c -0.15845,-0.29569 -0.34864,-0.53762 -0.42265,-0.53762 -0.0741,0 -0.005,0.24193 0.15351,0.53762 0.15844,0.29569 0.34863,0.53763 0.42265,0.53763 0.0741,0 0.005,-0.24194 -0.15351,-0.53763 z m -66.05697,-1.94887 c -0.37746,-0.62834 -1.74685,-2.99187 -3.04308,-5.25229 l -2.356795,-4.10985 -9.82364,-5.67951 -9.82362,-5.6795 -6.32482,-0.0992 c -5.63048,-0.0883 -6.25093,-0.0564 -5.65195,0.2914 7.19224,4.17535 37.567855,21.66875 37.627665,21.66987 0.0454,8e-4 -0.22629,-0.51256 -0.60376,-1.1409 z m 1.19407,-13.02145 c 0,-11.18017 -0.0657,-13.80595 -0.33642,-13.43889 -0.18504,0.2509 -1.54756,1.15726 -3.02784,2.01413 l -2.691415,1.55794 -0.072,6.58683 -0.072,6.58682 3.032435,5.28602 c 1.66784,2.90731 3.0627,5.28967 3.0997,5.29413 0.037,0.004 0.0672,-6.24469 0.0672,-13.88698 z m 58.38592,11.88493 c 1.52878,-0.5142 2.87645,-0.87513 2.99484,-0.80205 0.11839,0.073 0.27897,0.0299 0.35685,-0.0959 0.27943,-0.45157 -4.94707,-6.43614 -8.74592,-10.01444 -2.49617,-2.35128 -5.35688,-4.69613 -8.0452,-6.59448 -3.57905,-2.52734 -7.80508,-5.14772 -7.80508,-4.8396 0,0.0521 0.67344,1.28253 1.49652,2.73414 0.82309,1.45161 2.27689,4.15857 3.23066,6.01548 1.71524,3.33945 1.76969,3.40839 5.00198,6.33311 1.79732,1.6263 4.36667,4.13631 5.70966,5.57781 1.343,1.44149 2.57328,2.6209 2.73396,2.6209 0.16069,0 1.54297,-0.42072 3.07173,-0.93492 z m 5.13127,0.83342 c 0,-0.0558 -0.21195,-0.2675 -0.47099,-0.47041 -0.42687,-0.33437 -0.43639,-0.32486 -0.10162,0.10149 0.35159,0.44777 0.5726,0.59017 0.5726,0.36892 z m -70.248205,-16.2287 -0.002,-6.38424 -1.79789,-1.02101 -1.7979,-1.02101 -3.91884,0.82507 c -3.53403,0.74405 -10.34509,2.75978 -10.84647,3.21002 -0.17233,0.15474 17.62228,10.68747 18.16423,10.75154 0.11103,0.0131 0.20074,-2.84904 0.19936,-6.36037 z m 3.261805,-8.46752 c 1.60696,-0.92403 2.92381,-1.74875 2.92634,-1.83269 0.005,-0.16939 -8.109355,-4.88143 -8.199465,-4.76141 -0.12523,0.16679 -1.24775,6.181 -1.16757,6.25549 0.15129,0.14052 3.31176,1.99806 3.41745,2.00858 0.0559,0.005 1.416276,-0.74593 3.023245,-1.66997 z m -2.793915,-7.62188 c -0.0894,-0.0893 -0.32158,-0.0989 -0.51585,-0.0212 -0.21472,0.0859 -0.15094,0.14951 0.1626,0.1624 0.28371,0.0117 0.44267,-0.0518 0.35325,-0.14118 z m 4.580995,-0.2917 c -0.25905,-0.0677 -0.68295,-0.0677 -0.94199,0 -0.25905,0.0677 -0.0471,0.12294 0.47099,0.12294 0.51811,0 0.73005,-0.0553 0.471,-0.12294 z"
       id="path858"
       inkscape:connector-curvature="0" />
  </g>
</svg>
