<?xml version="1.0" encoding="UTF-8" standalone="no"?>
<!-- Created with Inkscape (http://www.inkscape.org/) -->

<svg
   xmlns:dc="http://purl.org/dc/elements/1.1/"
   xmlns:cc="http://creativecommons.org/ns#"
   xmlns:rdf="http://www.w3.org/1999/02/22-rdf-syntax-ns#"
   xmlns:svg="http://www.w3.org/2000/svg"
   xmlns="http://www.w3.org/2000/svg"
   xmlns:sodipodi="http://sodipodi.sourceforge.net/DTD/sodipodi-0.dtd"
   xmlns:inkscape="http://www.inkscape.org/namespaces/inkscape"
   width="200mm"
   height="200mm"
   viewBox="0 0 200 200"
   version="1.1"
   id="svg8"
   inkscape:version="0.92.5 (2060ec1f9f, 2020-04-08)"
   sodipodi:docname="nt_three.svg">
  <defs
     id="defs2" />
  <sodipodi:namedview
     id="base"
     pagecolor="#ffffff"
     bordercolor="#666666"
     borderopacity="1.0"
     inkscape:pageopacity="0.0"
     inkscape:pageshadow="2"
     inkscape:zoom="0.7"
     inkscape:cx="303.87682"
     inkscape:cy="418.44433"
     inkscape:document-units="mm"
     inkscape:current-layer="layer1"
     showgrid="false"
     inkscape:window-width="1920"
     inkscape:window-height="1017"
     inkscape:window-x="1912"
     inkscape:window-y="-8"
     inkscape:window-maximized="1" />
  <metadata
     id="metadata5">
    <rdf:RDF>
      <cc:Work
         rdf:about="">
        <dc:format>image/svg+xml</dc:format>
        <dc:type
           rdf:resource="http://purl.org/dc/dcmitype/StillImage" />
        <dc:title></dc:title>
      </cc:Work>
    </rdf:RDF>
  </metadata>
  <g
     inkscape:label="Layer 1"
     inkscape:groupmode="layer"
     id="layer1"
     transform="translate(0,-97)">
    <path
       style="fill:#000000;stroke-width:0.28328711"
       d="m 124.79999,291.36461 c -1.71389,-0.11644 -3.94478,-0.36432 -4.95753,-0.55083 -4.74561,-0.87403 -92.499822,-20.24677 -94.617885,-20.88797 -6.469557,-1.95854 -10.136162,-5.12857 -10.754882,-9.29832 -0.246644,-1.66219 -2.536725,-96.82638 -2.614382,-108.64061 -0.02184,-3.31565 0.05899,-4.04309 0.607424,-5.46848 1.638084,-4.25751 9.309598,-13.44542 17.335823,-20.76249 11.475104,-10.46125 20.76437,-16.09326 29.344496,-17.79138 3.038355,-0.60132 11.184272,-1.74292 16.78991,-2.35297 5.837731,-0.63533 24.215486,-0.71964 30.453366,-0.13972 22.29039,2.07229 41.50103,6.02515 58.0042,11.93516 12.50781,4.47923 18.11581,8.14233 19.1891,12.53419 0.41271,1.68875 -6.81188,106.82762 -7.46543,108.64389 -0.57916,1.60954 -27.16827,44.66418 -28.55965,46.24545 -2.84613,3.23456 -8.95366,5.80891 -15.10581,6.36714 -3.98605,0.36168 -4.58841,0.37483 -7.64875,0.16694 z m 11.18983,-1.38061 c 4.82999,-1.10265 9.08505,-3.28098 11.10243,-5.68381 l 0.93729,-1.11634 1.17907,-21.05159 c 0.6485,-11.57837 1.45025,-26.21449 1.78166,-32.52471 0.33141,-6.31022 1.17122,-21.96238 1.86624,-34.78257 0.69503,-12.82018 1.2637,-23.56475 1.2637,-23.8768 0,-0.47855 -0.13307,-0.41581 -0.85017,0.40093 -0.4676,0.53255 -1.64678,1.48702 -2.6204,2.12103 -5.94447,3.87094 -15.09631,4.74358 -24.62812,2.34836 l -3.0629,-0.76967 0.001,1.42941 c 0.001,1.16332 -1.96796,55.16272 -3.7709,103.41278 -0.20376,5.45327 -0.3455,9.954 -0.31495,10.0016 0.0305,0.0476 1.05765,0.26426 2.28247,0.48146 3.19856,0.56718 11.60884,0.34602 14.83325,-0.39008 z m -15.87041,-57.26029 c 1.08084,-29.5256 2.02075,-54.64842 2.08869,-55.82848 l 0.12353,-2.14557 -1.3154,-0.50185 C 103.39177,167.52364 83.513599,162.62889 62.335181,159.79834 51.395894,158.33628 39.753484,157.63321 30.5362,157.87804 l -4.17848,0.11098 -0.0021,1.88563 c -0.0054,3.87345 1.743835,110.09561 1.814137,110.16591 0.04026,0.0403 20.26894,4.50886 44.952555,9.93015 l 44.879228,9.8569 0.0766,-1.7105 c 0.0421,-0.94077 0.9609,-25.8678 2.04174,-55.3934 z m -42.993279,32.84055 c -14.625967,-1.41309 -29.192735,-10.77143 -37.889566,-24.34194 -2.050364,-3.19937 -4.500299,-8.52594 -5.615617,-12.20924 -5.435087,-17.94927 0.96798,-35.12525 15.873441,-42.57992 13.443849,-6.72366 31.278336,-3.92656 45.60313,7.15225 8.599061,6.65051 15.497321,16.61584 18.363541,26.52821 5.46907,18.91386 -1.91382,36.29282 -18.269994,43.00674 -3.063379,1.25747 -6.43821,2.07176 -10.152107,2.44953 -3.243317,0.3299 -4.448744,0.32905 -7.912828,-0.005 z m 11.116305,-1.23907 c 10.237237,-1.97461 18.296224,-7.93498 22.810584,-16.87055 3.85959,-7.63953 4.49334,-17.74131 1.71505,-27.33721 -2.74353,-9.47587 -9.32997,-19.10683 -17.611727,-25.75257 -10.851043,-8.70748 -24.961686,-12.56313 -36.928827,-10.09059 -13.363814,2.76112 -22.867818,12.52787 -25.198971,25.89563 -0.56358,3.23181 -0.568194,9.53792 -0.0096,12.81411 3.062606,17.95552 17.041715,33.89591 34.843899,39.73253 2.890375,0.94765 5.326444,1.47234 9.911274,2.13477 1.635235,0.23627 8.235352,-0.0954 10.468097,-0.52612 z m 73.680464,-3.55606 c 6.97271,-11.29607 12.79944,-20.85701 12.94828,-21.24653 0.24367,-0.63762 7.57788,-105.37845 7.39643,-105.62946 -0.20153,-0.27878 -4.00108,2.77525 -6.2475,5.02166 -6.07476,6.07477 -13.15865,15.89257 -18.89839,26.19191 l -2.18069,3.91303 -2.94201,54.30248 c -1.61811,29.86638 -3.01443,55.25279 -3.10293,56.41428 -0.0957,1.25653 -0.0576,2.00226 0.0941,1.84136 0.14029,-0.14873 5.95999,-9.51265 12.93269,-20.80873 z m -5.64774,-11.07497 c -1.47703,-1.16183 -2.71849,-4.72583 -3.29639,-9.46334 -0.39694,-3.25394 -0.3946,-13.71015 0.004,-18.13038 2.07942,-23.05642 8.59905,-46.52595 15.36838,-55.32345 1.38829,-1.80422 2.43496,-2.59063 3.72708,-2.80032 6.82723,-1.10791 8.0732,21.31484 2.7024,48.63365 -3.66562,18.64541 -10.15579,34.74995 -15.01752,37.26404 -1.1422,0.59065 -2.60405,0.51514 -3.48801,-0.1802 z m 4.03696,-1.27916 c 5.62934,-4.81849 12.35139,-24.56404 15.46812,-45.43644 1.49332,-10.00055 1.99416,-22.05372 1.17818,-28.35375 -1.29478,-9.99689 -4.08097,-12.4325 -8.20753,-7.17483 -6.24697,7.95927 -12.67971,30.77794 -14.96713,53.09238 -0.55266,5.39157 -0.47602,18.19514 0.12835,21.43917 1.27105,6.82251 3.42084,8.98354 6.40001,6.43347 z M 27.305977,266.5057 c -0.05707,-1.83075 -0.422891,-25.06383 -0.812858,-51.62908 -0.389956,-26.56526 -0.783725,-50.22612 -0.875044,-52.5797 l -0.166032,-4.27923 -2.594211,-0.1704 c -4.397769,-0.28889 -8.069416,-1.70811 -9.776355,-3.77892 l -0.853309,-1.03522 0.133558,3.08877 c 0.07345,1.69882 0.384732,13.60581 0.69171,26.45997 0.306978,12.85414 0.63522,25.92076 0.729419,29.03693 0.09422,3.11616 0.209246,7.76915 0.25566,10.33997 0.212307,11.75961 1.005764,38.21558 1.176582,39.23025 0.384871,2.28622 2.871231,4.79543 6.610032,6.67078 1.479096,0.74191 4.525995,1.84118 5.412753,1.95286 0.09454,0.0119 0.125206,-1.47624 0.06809,-3.30698 z M 141.51242,176.02359 c 4.40318,-0.70403 8.48828,-2.59137 10.96089,-5.06398 1.03721,-1.03722 1.6469,-1.88436 1.6469,-2.28834 0,-1.1299 -1.17295,-3.11189 -2.34341,-3.95977 l -1.13509,-0.82225 -1.62932,1.77812 c -1.85689,2.02648 -3.70776,3.05871 -6.98942,3.89801 -3.7941,0.97038 -9.85155,0.60275 -14.08036,-0.85453 -0.92028,-0.31714 -1.77119,-0.57661 -1.8909,-0.57661 -0.67949,0 -3.06265,5.8095 -2.58082,6.29133 0.47989,0.47988 6.74111,1.67786 9.78076,1.8714 3.6423,0.2319 5.48127,0.17104 8.26077,-0.27338 z m -18.4409,-3.78169 c 0.25621,-0.77904 0.82584,-2.11341 1.26584,-2.96526 l 0.80001,-1.54882 -2.71827,-1.07895 c -4.45957,-1.7701 -14.82895,-5.19372 -20.28207,-6.69647 -17.599208,-4.8499 -36.67847,-8.0692 -53.884429,-9.09209 -5.443471,-0.32362 -15.720096,-0.38126 -19.231558,-0.10785 -2.261643,0.17608 -2.298817,0.19142 -2.620399,1.08074 -0.179416,0.49616 -0.326208,1.86379 -0.326208,3.03916 v 2.13705 l 10.269152,0.16366 c 9.787041,0.15598 14.785779,0.48104 22.73379,1.47835 21.57392,2.70708 43.126272,7.77478 59.490292,13.98822 2.0255,0.76909 3.76268,1.31292 3.86038,1.20852 0.0977,-0.10439 0.38727,-0.82722 0.64347,-1.60626 z m 18.93902,-3.41576 c 2.45298,-0.63251 4.79739,-1.94439 6.2394,-3.49145 0.6706,-0.71947 2.05652,-2.9016 3.0798,-4.8492 5.77911,-10.99921 12.41957,-20.43674 18.92217,-26.89244 2.98257,-2.96107 6.42379,-5.59778 8.36349,-6.40824 0.55036,-0.22995 1.00065,-0.60761 1.00065,-0.83923 0,-1.63783 -7.12283,-5.44772 -15.86408,-8.48543 -6.24082,-2.16876 -19.18613,-5.84343 -20.45309,-5.80583 -0.20268,0.006 1.16124,0.58069 3.03093,1.27704 12.5214,4.66347 19.93128,10.69704 21.11918,17.19651 1.05253,5.75882 -3.33117,11.36747 -12.33728,15.78473 -4.71931,2.31468 -8.92817,3.81026 -15.03973,5.34418 -15.34386,3.85112 -34.95176,4.99697 -53.600082,3.1323 -1.760281,-0.17601 -3.261326,-0.25919 -3.335675,-0.18484 -0.07431,0.0743 0.983441,0.35249 2.350628,0.6181 11.352095,2.20538 25.622019,6.34537 37.188489,10.78914 2.72663,1.04755 5.59492,2.0985 6.37395,2.33544 4.01375,1.22073 9.32403,1.41708 12.96125,0.47922 z m 17.37109,-9.08041 c 3.30444,-5.47434 8.05725,-12.21552 11.66194,-16.54076 3.56982,-4.28342 8.68306,-9.04892 10.69069,-9.96366 0.69809,-0.31807 0.75244,-0.45122 0.59248,-1.45158 -0.2405,-1.504 -1.11327,-3.13194 -1.98549,-3.70344 -0.68622,-0.44963 -0.78654,-0.44285 -1.92851,0.13026 -7.06203,3.54417 -16.75123,15.24382 -25.15219,30.3711 l -2.54855,4.58907 0.63509,0.42492 c 1.4188,0.94933 2.41859,2.01587 2.90883,3.10302 l 0.51763,1.14792 1.62958,-2.93605 c 0.89625,-1.61483 2.23658,-3.94169 2.9785,-5.1708 z M 25.366216,155.03244 c 0,-1.12973 0.100003,-2.52497 0.222319,-3.10052 l 0.222329,-1.04645 -1.638758,0.0218 c -3.907638,0.0521 -6.80312,-0.90584 -8.058677,-2.66617 -0.882196,-1.23686 -0.908835,-3.55143 -0.06039,-5.24865 1.267495,-2.53555 -0.80592,-0.76349 -2.237391,1.91219 -0.833662,1.55827 -1.362423,3.50244 -1.463882,5.38245 -0.05675,1.05191 0.810685,2.87885 1.764607,3.71641 2.042579,1.7934 5.800224,3.01561 9.408497,3.0602 l 1.841365,0.0228 v -2.05407 z m 91.501734,-0.52037 c 28.10315,-1.99552 48.68064,-10.87607 49.88795,-21.52996 0.61058,-5.38801 -4.46502,-11.36889 -13.43888,-15.83582 -10.62136,-5.28701 -23.56265,-8.43647 -42.11482,-10.24928 -4.98444,-0.48705 -23.485184,-0.49071 -28.328704,-0.005 -5.894274,0.59035 -10.206602,1.17054 -14.306001,1.92475 -15.78922,2.90492 -27.422905,8.15496 -31.842227,14.36973 -1.792808,2.52118 -2.215507,3.67526 -2.255176,6.15717 -0.03126,1.95457 0.06285,2.34034 1.065991,4.37004 5.621238,11.37382 31.883566,20.15108 63.484782,21.21756 3.768905,0.1272 13.313305,-0.0967 17.847085,-0.41858 z m -14.65381,-0.13456 c -0.0847,-0.0847 -2.1764,-0.27389 -4.648173,-0.42036 -6.032568,-0.35747 -10.571026,-0.75109 -14.834112,-1.28654 -10.390922,-1.30512 -22.352816,-4.28764 -27.251733,-6.7948 -1.043646,-0.53412 -2.091617,-0.97112 -2.32884,-0.97112 -0.237212,0 -0.976813,-0.36719 -1.643543,-0.81598 -0.666741,-0.44879 -1.792906,-1.14072 -2.502592,-1.53762 -1.644861,-0.91992 -4.800338,-3.28578 -4.800338,-3.59913 0,-0.13144 -0.464884,-1.01937 -1.033057,-1.97318 -0.919253,-1.54314 -1.029631,-1.93577 -1.001878,-3.56393 0.09069,-5.3246 3.839232,-9.55451 11.808335,-13.32487 16.759984,-7.9295 46.861721,-10.04769 71.813281,-5.05334 16.59259,3.32119 28.80825,9.54996 32.15849,16.39759 1.10452,2.25755 1.22468,5.36974 0.27936,7.23525 -0.37635,0.74268 -0.59437,1.45003 -0.48451,1.57189 0.10986,0.12187 0.0621,0.14328 -0.1061,0.0477 -0.16824,-0.0957 -0.76889,0.43314 -1.33477,1.17518 -0.63788,0.83644 -1.69147,1.71964 -2.77239,2.32403 -0.95893,0.53618 -1.97484,1.18916 -2.25758,1.45106 -0.28275,0.26191 -1.38337,0.79673 -2.44584,1.18849 -1.06246,0.39178 -1.80427,0.72593 -1.64846,0.74258 0.7357,0.0786 -5.55236,2.11709 -9.61398,3.11668 -7.49067,1.84349 -12.30043,2.51575 -26.22184,3.66497 -1.79179,0.14792 -4.3706,0.19466 -5.73069,0.10386 -1.65267,-0.11032 -2.60093,-0.0588 -2.85893,0.15533 -0.21233,0.17621 -0.45537,0.25107 -0.54009,0.16635 z m 15.07873,-1.38592 c 11.11654,-0.99523 20.43867,-2.89597 27.94344,-5.69756 4.37497,-1.63322 8.3891,-3.87399 10.54827,-5.88828 1.40615,-1.31179 2.3425,-3.59959 2.35493,-5.75383 0.0574,-9.94496 -18.65084,-18.8987 -45.52087,-21.78623 -5.79554,-0.62281 -18.604489,-0.84286 -24.787617,-0.42585 -28.908864,1.94974 -47.796708,11.36462 -44.632878,22.24783 0.596428,2.05161 2.239447,3.86598 5.41317,5.97771 13.153648,8.75213 42.808687,13.64251 68.681555,11.32621 z m -34.773483,1.35725 c -0.194759,-0.0786 -0.51345,-0.0786 -0.70822,0 -0.194759,0.0786 -0.03544,0.14289 0.35411,0.14289 0.389528,0 0.548868,-0.0643 0.35411,-0.14289 z m -12.045601,-1.96655 c -0.09411,-0.0941 -0.338467,-0.10417 -0.542969,-0.0224 -0.22598,0.0905 -0.158859,0.15756 0.17115,0.17115 0.298637,0.0123 0.465954,-0.0546 0.371819,-0.14879 z m -4.455876,-0.98321 c -14.678067,-3.69535 -25.119622,-8.88257 -29.599641,-14.70471 -1.633265,-2.12254 -2.297404,-3.60631 -2.676558,-5.9797 -0.455193,-2.84937 0.507487,-5.95309 2.603622,-8.39425 0.7685,-0.895 0.618196,-0.81512 -0.918096,0.48788 -5.111042,4.33494 -12.814796,12.41209 -16.796805,17.61097 -3.989568,5.20872 -3.07357,8.45968 2.710937,9.62138 1.191294,0.23925 3.51083,0.2457 8.908432,0.0248 10.794519,-0.44177 21.667734,0.0491 33.50182,1.51244 1.947598,0.24082 3.668563,0.48504 3.82437,0.5427 0.155808,0.0577 0.601986,0.10343 0.991504,0.10171 0.389528,-0.002 -0.757793,-0.37217 -2.549585,-0.82327 z M 19.547233,138.12012 c 3.256144,-4.02078 5.714377,-6.68615 10.298382,-11.16615 l 4.019215,-3.928 -3.116162,2.69128 c -1.713888,1.4802 -4.395349,4.01268 -5.958805,5.62772 -2.894507,2.99003 -8.054705,8.99563 -8.060637,9.38124 -0.0096,0.6432 0.772911,-0.0807 2.818007,-2.60609 z m 163.635757,-7.42358 c -0.10353,-0.64733 -0.2772,-1.3166 -0.38598,-1.48726 -0.10877,-0.17067 -0.19973,-0.395 -0.20211,-0.49852 -0.002,-0.10353 -0.44991,-0.78289 -0.99449,-1.50971 -0.93386,-1.24636 -1.00007,-1.28398 -1.16468,-0.66164 -0.12385,0.46823 -0.0123,0.77876 0.38419,1.06937 0.77096,0.5651 1.79896,2.254 2.04003,3.35154 0.29142,1.32685 0.54437,1.12031 0.32304,-0.26378 z M 34.856333,122.38337 c 0.365931,-0.38952 0.601601,-0.70822 0.523697,-0.70822 -0.07795,0 -0.44105,0.3187 -0.80698,0.70822 -0.365941,0.38952 -0.6016,0.70822 -0.523697,0.70822 0.07795,0 0.441039,-0.3187 0.80698,-0.70822 z m 2.019143,-1.77055 c 0.352375,-0.4493 0.342353,-0.45933 -0.106962,-0.10696 -0.272673,0.21384 -0.495752,0.43693 -0.495752,0.49575 0,0.23317 0.232629,0.0831 0.602703,-0.38879 z m 1.416439,-1.13314 c 0.352375,-0.44932 0.342353,-0.45933 -0.106962,-0.10697 -0.471886,0.37008 -0.621944,0.60272 -0.38879,0.60272 0.05878,0 0.281913,-0.22309 0.495752,-0.49576 z m 16.11123,-7.81824 c 8.061344,-2.67044 16.67283,-4.31047 28.611993,-5.44908 1.168564,-0.11143 4.929196,-0.29961 8.356972,-0.41817 6.05502,-0.20941 5.998605,-0.21243 -1.983006,-0.10642 -4.518436,0.06 -10.000034,0.29411 -12.181343,0.5202 -2.18132,0.22609 -5.495774,0.55555 -7.365469,0.73213 -9.794793,0.92506 -15.508731,2.56746 -21.361248,6.14002 -4.113758,2.51118 -4.412267,2.94053 -0.87679,1.26114 1.635985,-0.77711 4.695486,-1.98303 6.798891,-2.67982 z"
       id="path858"
       inkscape:connector-curvature="0" />
  </g>
</svg>
