<?xml version="1.0" encoding="UTF-8" standalone="no"?>
<!-- Created with Inkscape (http://www.inkscape.org/) -->

<svg
   xmlns:dc="http://purl.org/dc/elements/1.1/"
   xmlns:cc="http://creativecommons.org/ns#"
   xmlns:rdf="http://www.w3.org/1999/02/22-rdf-syntax-ns#"
   xmlns:svg="http://www.w3.org/2000/svg"
   xmlns="http://www.w3.org/2000/svg"
   xmlns:sodipodi="http://sodipodi.sourceforge.net/DTD/sodipodi-0.dtd"
   xmlns:inkscape="http://www.inkscape.org/namespaces/inkscape"
   width="220mm"
   height="220mm"
   viewBox="0 0 220 220"
   version="1.1"
   id="svg8"
   inkscape:version="0.92.5 (2060ec1f9f, 2020-04-08)"
   sodipodi:docname="edge_main.svg">
  <defs
     id="defs2" />
  <sodipodi:namedview
     id="base"
     pagecolor="#ffffff"
     bordercolor="#666666"
     borderopacity="1.0"
     inkscape:pageopacity="0.0"
     inkscape:pageshadow="2"
     inkscape:zoom="0.49497475"
     inkscape:cx="169.9419"
     inkscape:cy="501.39605"
     inkscape:document-units="mm"
     inkscape:current-layer="layer1"
     showgrid="false"
     inkscape:window-width="1920"
     inkscape:window-height="1017"
     inkscape:window-x="1912"
     inkscape:window-y="-8"
     inkscape:window-maximized="1" />
  <metadata
     id="metadata5">
    <rdf:RDF>
      <cc:Work
         rdf:about="">
        <dc:format>image/svg+xml</dc:format>
        <dc:type
           rdf:resource="http://purl.org/dc/dcmitype/StillImage" />
        <dc:title></dc:title>
      </cc:Work>
    </rdf:RDF>
  </metadata>
  <g
     inkscape:label="Layer 1"
     inkscape:groupmode="layer"
     id="layer1"
     transform="translate(0,-77)">
    <path
       style="fill:#000000;stroke-width:0.26458335"
       d="m 85.446908,290.86908 c -0.34792,-0.29811 -0.7862,-1.40533 -1.23061,-3.10885 -0.37963,-1.45521 -0.83426,-2.77789 -1.01029,-2.9393 -0.282,-0.25856 -43.0231,-24.94456 -44.5908,-25.75432 -0.50765,-0.26222 -1.06349,-0.19898 -3.19649,0.36362 -3.1526,0.83154 -3.49307,0.83852 -4.18298,0.0857 -1.05935,-1.15591 -23.35916,-40.10931 -23.35916,-40.80388 0,-0.49235 0.58855,-1.29502 2.11667,-2.88674 l 2.11666,-2.20477 v -26.11879 -26.11883 l -2.11666,-2.21019 c -1.41143,-1.4738 -2.11667,-2.4162 -2.11667,-2.82848 0,-0.97646 23.06817,-40.75885 23.86202,-41.15143 0.54794,-0.27097 1.05248,-0.21714 3.09969,0.33073 1.34488,0.35991 2.71323,0.65438 3.0408,0.65438 0.59453,0 44.32489,-25.053545 45.20862,-25.900457 0.25648,-0.245799 0.76881,-1.573202 1.1385,-2.949785 0.47822,-1.780657 0.86325,-2.67466 1.33436,-3.098191 l 0.66219,-0.595313 h 23.239272 c 21.79075,0 23.27512,0.02903 23.81447,0.465774 0.38948,0.31538 0.82291,1.354462 1.34236,3.218049 0.42193,1.513751 0.86089,2.840067 0.97546,2.94737 0.76107,0.712804 44.90006,25.911493 45.38014,25.907253 0.3306,-0.003 1.67304,-0.2806 2.98321,-0.61707 1.66018,-0.42636 2.58808,-0.54311 3.06172,-0.38523 0.55128,0.18376 2.86819,4.00948 12.27117,20.26238 8.59657,14.85902 11.59619,20.25985 11.60943,20.90281 0.0152,0.73728 -0.28689,1.17349 -2.01945,2.91627 l -2.03729,2.04931 v 26.27343 26.27342 l 2.11667,2.2102 c 1.16417,1.2156 2.11586,2.42727 2.11487,2.69259 -0.001,0.26533 -5.22477,9.53116 -11.6084,20.59074 -8.03947,13.92829 -11.81278,20.2266 -12.27743,20.49316 -0.60644,0.34791 -0.94906,0.31355 -3.57065,-0.358 l -2.89985,-0.74283 -22.32562,12.87348 c -12.2791,7.08041 -22.51578,13.09604 -22.74819,13.36807 -0.2324,0.27202 -0.70175,1.57754 -1.04299,2.90114 -1.00252,3.88858 2.14317,3.45561 -25.10607,3.45561 -22.006612,0 -23.542822,-0.0296 -24.048682,-0.46303 z m 47.540312,-0.30209 c 0.19778,-0.12531 0.70602,-1.46186 1.12943,-2.97011 0.42342,-1.50825 0.97597,-2.93309 1.22791,-3.1663 0.36692,-0.33964 42.41214,-24.674 44.75283,-25.90142 0.5438,-0.28516 1.08323,-0.22299 3.63672,0.41915 2.98373,0.75034 3.00063,0.75145 3.49698,0.23087 0.54016,-0.56654 22.93674,-39.29915 23.19539,-40.11408 0.11668,-0.36764 -0.39085,-1.06658 -1.97772,-2.72356 -1.17407,-1.22595 -2.13528,-2.44609 -2.13602,-2.71141 -8e-4,-0.26532 -0.002,-12.20627 -0.003,-26.53545 l -0.001,-26.05304 1.95986,-1.99279 c 1.07792,-1.09604 2.02869,-2.23092 2.11282,-2.52196 0.11004,-0.38063 -3.10599,-6.17331 -11.45769,-20.6375 -13.225,-22.90457 -11.55196,-20.7378 -15.23245,-19.72807 -1.09416,0.30018 -2.31749,0.54578 -2.71852,0.54578 -0.83363,0 -45.43527,-25.609061 -45.95385,-26.385469 -0.17257,-0.258356 -0.58445,-1.541301 -0.91529,-2.850988 -0.37564,-1.486992 -0.80159,-2.555134 -1.13424,-2.844271 -0.49853,-0.433323 -2.00536,-0.463021 -23.49283,-0.463021 -21.475072,0 -22.996682,0.02995 -23.525352,0.463021 -0.37717,0.308973 -0.79772,1.328008 -1.26406,3.062904 -0.58978,2.194122 -0.82617,2.693879 -1.51462,3.20215 -0.44867,0.331246 -10.65507,6.275283 -22.68089,13.208974 -14.9271,8.60646 -22.10552,12.6067 -22.62272,12.6067 -0.41667,0 -1.59026,-0.23812 -2.60798,-0.52917 -2.12221,-0.60689 -3.39244,-0.67376 -3.7693,-0.19843 -0.77429,0.97661 -23.08591,39.95324 -23.08591,40.32925 0,0.24563 0.9525,1.42245 2.11666,2.61515 l 2.11667,2.16854 v 26.40646 26.40645 l -2.14763,2.20027 c -1.72026,1.76243 -2.1238,2.3249 -2.0279,2.82659 0.15777,0.82532 22.32377,39.2659 23.13156,40.11507 l 0.62384,0.6558 3.00268,-0.76667 3.00268,-0.76666 21.93395,12.65658 c 12.06367,6.96112 22.35844,12.92198 22.87726,13.24635 0.87231,0.54538 0.99682,0.79399 1.6544,3.30309 0.3911,1.49233 0.8444,2.87394 1.00732,3.07024 0.24452,0.29463 4.36602,0.35622 23.613302,0.35288 12.8244,-0.002 23.4789,-0.10658 23.67668,-0.2319 z M 86.060958,272.97323 c -1.41256,-0.62481 -38.61067,-22.16783 -39.19048,-22.69689 -0.82874,-0.75619 -4.3567,-7.03644 -4.52079,-8.04761 -0.1136,-0.70005 0.23091,-1.66449 1.75809,-4.92166 2.25221,-4.80352 2.97081,-5.96208 3.93013,-6.33633 0.39424,-0.1538 18.39758,-6.34088 40.00742,-13.74905 21.609852,-7.40818 39.423082,-13.64775 39.584962,-13.86571 0.16188,-0.21796 0.74301,-2.65378 1.29141,-5.41292 1.07203,-5.39378 1.31685,-5.9179 2.76429,-5.9179 0.47469,0 1.1096,0.29678 1.65093,0.7717 0.48379,0.42444 9.65529,8.424 20.38112,17.77681 l 19.50151,17.00512 0.49212,1.64801 c 0.27066,0.90641 1.12941,4.05856 1.90834,7.00479 l 1.41622,5.35678 -0.97964,1.91926 c -0.53881,1.0556 -1.66059,3.04298 -2.49285,4.41641 l -1.5132,2.49715 -19.71146,11.39348 -19.71145,11.39348 -22.88646,0.0581 c -18.539922,0.0471 -23.037212,-0.009 -23.680212,-0.293 z m 46.513782,-0.51969 c 1.30031,-0.5433 38.61697,-22.11493 39.12765,-22.6185 0.61482,-0.60627 4.33252,-7.16229 4.53475,-7.99686 0.18466,-0.76205 -2.96769,-12.85933 -3.6028,-13.82593 -0.20853,-0.31736 -9.32334,-8.37561 -20.25516,-17.90723 -20.32378,-17.72062 -20.84879,-18.13456 -21.69971,-17.10926 -0.17358,0.20914 -0.76839,2.66139 -1.3218,5.44943 -0.55664,2.80434 -1.17395,5.23041 -1.38167,5.43006 -0.2065,0.19848 -18.1753,6.45299 -39.930672,13.8989 -21.75536,7.44591 -39.82869,13.71392 -40.16295,13.9289 -0.36571,0.23521 -1.50724,2.20288 -2.86632,4.9407 -1.89499,3.81738 -2.23527,4.69531 -2.11375,5.45362 0.17353,1.08285 3.37184,6.74795 4.36006,7.72288 0.55823,0.55072 35.17334,20.71375 38.65609,22.51687 0.85932,0.44489 2.30084,0.47415 23.357982,0.47415 18.25847,0 22.60174,-0.0667 23.2983,-0.35773 z M 35.657828,220.9568 c -3.1287,-0.84829 -6.05525,-1.73981 -6.50345,-1.98117 -0.58676,-0.31596 -1.43863,-1.48951 -3.04271,-4.19169 l -2.2278,-3.75288 -0.0681,-23.28333 -0.0681,-23.28334 11.22057,-19.44687 c 6.17132,-10.69578 11.50023,-19.72702 11.84203,-20.06943 0.34179,-0.3424 9.36922,-5.67045 20.06095,-11.8401 l 19.43949,-11.21756 4.50529,0.002 c 3.96657,0.002 4.59568,0.0613 5.26113,0.50006 0.90657,0.59769 6.154152,8.22346 6.386342,9.28061 0.10495,0.47783 -2.726972,15.49334 -7.924422,42.01721 -4.44825,22.70052 -8.0125,41.46971 -7.92056,41.70932 0.092,0.23961 1.93887,1.98413 4.10426,3.87671 3.5854,3.13366 3.93709,3.51919 3.93709,4.31585 0,0.52893 -0.20238,1.05797 -0.51186,1.33803 -0.84041,0.76057 -50.36258,17.61428 -51.68512,17.58982 -0.61411,-0.0113 -3.67641,-0.7147 -6.8051,-1.56299 z m 32.67604,-7.44606 c 13.67896,-4.67959 25.0792,-8.68839 25.33386,-8.90845 1.03084,-0.8908 0.62876,-1.47712 -3.49657,-5.09871 -2.17777,-1.91185 -4.03031,-3.69893 -4.11675,-3.97128 -0.11196,-0.35276 11.54208,-60.8597 15.903182,-82.5681 0.20486,-1.01976 -0.31467,-2.04446 -3.140582,-6.19428 -1.55081,-2.27735 -2.80126,-3.84177 -3.22513,-4.0349 -0.44074,-0.20081 -2.18171,-0.31542 -4.79141,-0.31542 -3.64298,0 -4.22042,0.0619 -5.18902,0.55602 -1.96522,1.00258 -38.1718,21.96252 -38.49155,22.28271 -0.30938,0.3098 -21.36662,36.69545 -22.33461,38.59288 -0.48482,0.9503 -0.50451,1.88171 -0.50374,23.81983 l 8e-4,22.83086 2.19499,3.79486 c 1.23336,2.13233 2.47908,3.96533 2.84346,4.18395 0.9242,0.55453 11.81624,3.47682 13.08389,3.51036 0.74897,0.0198 8.32845,-2.45911 25.92917,-8.48033 z m 110.028862,5.85694 C 178.0509,219.24183 163.8064,206.93976 146.7083,192.02974 129.61019,177.11972 115.24103,164.63981 114.77683,164.29661 l -0.844,-0.624 -4.84663,1.67287 c -2.72355,0.94007 -5.16586,1.63505 -5.57539,1.58652 -0.40237,-0.0477 -0.95477,-0.3905 -1.23339,-0.76543 l -0.50462,-0.67908 5.17177,-26.38629 c 2.84447,-14.51245 5.28458,-26.58937 5.42246,-26.83759 0.13787,-0.24821 2.46217,-2.65396 5.16509,-5.34609 l 4.91442,-4.89479 h 5.22283 5.22284 l 19.18229,11.08661 c 10.55026,6.09764 19.50079,11.39592 19.89007,11.77396 0.57383,0.55727 20.94289,35.47884 22.73839,38.98365 0.49003,0.95654 0.50482,1.76715 0.43677,23.94479 l -0.0704,22.95474 -1.82709,3.175 c -2.13642,3.71254 -2.84108,4.55085 -4.11504,4.89555 -0.8422,0.22788 -8.14418,0.81782 -9.60754,0.77622 -0.32445,-0.009 -0.84505,-0.11973 -1.15689,-0.24557 z m 8.71829,-0.78524 c 2.91303,-0.25724 3.13739,-0.4504 5.62548,-4.84321 l 1.83363,-3.23733 V 187.48315 164.46439 L 183.46181,145.2821 c -6.09308,-10.55026 -11.39136,-19.50182 -11.77396,-19.89236 -0.3826,-0.39053 -9.38121,-5.71858 -19.99689,-11.8401 L 132.3897,102.4196 h -4.75958 -4.75958 l -4.86449,4.82865 c -2.67546,2.65575 -4.98856,5.05501 -5.1402,5.33168 -0.15164,0.27666 -2.57907,12.2405 -5.39429,26.58629 -4.69543,23.92694 -5.0861,26.13283 -4.72568,26.6829 0.21609,0.32981 0.63374,0.59965 0.92811,0.59965 0.29437,0 2.68454,-0.73326 5.3115,-1.62946 3.73089,-1.27281 4.91349,-1.57684 5.40313,-1.38906 0.34476,0.13222 14.75147,12.56336 32.0149,27.62477 17.26344,15.06141 31.64414,27.53519 31.95713,27.71952 0.58056,0.34192 3.36827,0.2805 8.72037,-0.1921 z"
       id="path848"
       inkscape:connector-curvature="0" />
  </g>
</svg>
