<?xml version="1.0" encoding="UTF-8" standalone="no"?>
<!-- Created with Inkscape (http://www.inkscape.org/) -->

<svg
   xmlns:dc="http://purl.org/dc/elements/1.1/"
   xmlns:cc="http://creativecommons.org/ns#"
   xmlns:rdf="http://www.w3.org/1999/02/22-rdf-syntax-ns#"
   xmlns:svg="http://www.w3.org/2000/svg"
   xmlns="http://www.w3.org/2000/svg"
   xmlns:sodipodi="http://sodipodi.sourceforge.net/DTD/sodipodi-0.dtd"
   xmlns:inkscape="http://www.inkscape.org/namespaces/inkscape"
   width="810mm"
   height="930mm"
   viewBox="0 0 810 930"
   version="1.1"
   id="svg866"
   inkscape:version="0.92.5 (2060ec1f9f, 2020-04-08)"
   sodipodi:docname="diagram_wg.svg">
  <defs
     id="defs860">
    <marker
       inkscape:stockid="DotM"
       orient="auto"
       refY="0"
       refX="0"
       id="marker8536"
       style="overflow:visible"
       inkscape:isstock="true">
      <path
         inkscape:connector-curvature="0"
         id="path8534"
         d="m -2.5,-1 c 0,2.76 -2.24,5 -5,5 -2.76,0 -5,-2.24 -5,-5 0,-2.76 2.24,-5 5,-5 2.76,0 5,2.24 5,5 z"
         style="fill:#ffffff;fill-opacity:1;fill-rule:evenodd;stroke:#ffffff;stroke-width:1.00000003pt;stroke-opacity:1"
         transform="matrix(0.4,0,0,0.4,2.96,0.4)" />
    </marker>
    <marker
       inkscape:isstock="true"
       style="overflow:visible"
       id="marker7038"
       refX="0"
       refY="0"
       orient="auto"
       inkscape:stockid="DotM">
      <path
         inkscape:connector-curvature="0"
         transform="matrix(0.4,0,0,0.4,2.96,0.4)"
         style="fill:#ffffff;fill-opacity:1;fill-rule:evenodd;stroke:#ffffff;stroke-width:1.00000003pt;stroke-opacity:1"
         d="m -2.5,-1 c 0,2.76 -2.24,5 -5,5 -2.76,0 -5,-2.24 -5,-5 0,-2.76 2.24,-5 5,-5 2.76,0 5,2.24 5,5 z"
         id="path7036" />
    </marker>
    <marker
       inkscape:stockid="DotM"
       orient="auto"
       refY="0"
       refX="0"
       id="marker5042"
       style="overflow:visible"
       inkscape:isstock="true">
      <path
         inkscape:connector-curvature="0"
         id="path5040"
         d="m -2.5,-1 c 0,2.76 -2.24,5 -5,5 -2.76,0 -5,-2.24 -5,-5 0,-2.76 2.24,-5 5,-5 2.76,0 5,2.24 5,5 z"
         style="fill:#ffffff;fill-opacity:1;fill-rule:evenodd;stroke:#000000;stroke-width:1.00000003pt;stroke-opacity:1"
         transform="matrix(0.4,0,0,0.4,2.96,0.4)" />
    </marker>
    <marker
       inkscape:stockid="DotM"
       orient="auto"
       refY="0"
       refX="0"
       id="marker3710"
       style="overflow:visible"
       inkscape:isstock="true">
      <path
         inkscape:connector-curvature="0"
         id="path3708"
         d="m -2.5,-1 c 0,2.76 -2.24,5 -5,5 -2.76,0 -5,-2.24 -5,-5 0,-2.76 2.24,-5 5,-5 2.76,0 5,2.24 5,5 z"
         style="fill:#ffffff;fill-opacity:1;fill-rule:evenodd;stroke:#000000;stroke-width:1.00000003pt;stroke-opacity:1"
         transform="matrix(0.4,0,0,0.4,2.96,0.4)" />
    </marker>
    <marker
       inkscape:isstock="true"
       style="overflow:visible"
       id="marker1536"
       refX="0"
       refY="0"
       orient="auto"
       inkscape:stockid="DotM">
      <path
         inkscape:connector-curvature="0"
         transform="matrix(0.4,0,0,0.4,2.96,0.4)"
         style="fill:#ffffff;fill-opacity:1;fill-rule:evenodd;stroke:#ffffff;stroke-width:1.00000003pt;stroke-opacity:1"
         d="m -2.5,-1 c 0,2.76 -2.24,5 -5,5 -2.76,0 -5,-2.24 -5,-5 0,-2.76 2.24,-5 5,-5 2.76,0 5,2.24 5,5 z"
         id="path1534" />
    </marker>
    <marker
       inkscape:stockid="DotM"
       orient="auto"
       refY="0"
       refX="0"
       id="DotM"
       style="overflow:visible"
       inkscape:isstock="true">
      <path
         id="path1036"
         d="m -2.5,-1 c 0,2.76 -2.24,5 -5,5 -2.76,0 -5,-2.24 -5,-5 0,-2.76 2.24,-5 5,-5 2.76,0 5,2.24 5,5 z"
         style="fill:#ffffff;fill-opacity:1;fill-rule:evenodd;stroke:#ffffff;stroke-width:1.00000003pt;stroke-opacity:1"
         transform="matrix(0.4,0,0,0.4,2.96,0.4)"
         inkscape:connector-curvature="0" />
    </marker>
    <marker
       inkscape:stockid="DotM"
       orient="auto"
       refY="0"
       refX="0"
       id="marker968"
       style="overflow:visible"
       inkscape:isstock="true">
      <path
         inkscape:connector-curvature="0"
         id="path966"
         d="m -2.5,-1 c 0,2.76 -2.24,5 -5,5 -2.76,0 -5,-2.24 -5,-5 0,-2.76 2.24,-5 5,-5 2.76,0 5,2.24 5,5 z"
         style="fill:#ffffff;fill-opacity:1;fill-rule:evenodd;stroke:#000000;stroke-width:1.00000003pt;stroke-opacity:1"
         transform="matrix(0.4,0,0,0.4,2.96,0.4)" />
    </marker>
    <marker
       inkscape:isstock="true"
       style="overflow:visible"
       id="marker964"
       refX="0"
       refY="0"
       orient="auto"
       inkscape:stockid="DotM">
      <path
         inkscape:connector-curvature="0"
         transform="matrix(0.4,0,0,0.4,2.96,0.4)"
         style="fill:#ffffff;fill-opacity:1;fill-rule:evenodd;stroke:#ffffff;stroke-width:1.00000003pt;stroke-opacity:1"
         d="m -2.5,-1 c 0,2.76 -2.24,5 -5,5 -2.76,0 -5,-2.24 -5,-5 0,-2.76 2.24,-5 5,-5 2.76,0 5,2.24 5,5 z"
         id="path962" />
    </marker>
    <marker
       inkscape:stockid="EmptyDiamondL"
       orient="auto"
       refY="0"
       refX="0"
       id="EmptyDiamondL"
       style="overflow:visible"
       inkscape:isstock="true">
      <path
         id="path2173"
         d="M 0,-7.0710768 -7.0710894,0 0,7.0710589 7.0710462,0 Z"
         style="fill:#ffffff;fill-rule:evenodd;stroke:#000000;stroke-width:1.00000003pt;stroke-opacity:1"
         transform="scale(0.8)"
         inkscape:connector-curvature="0" />
    </marker>
    <marker
       inkscape:stockid="DotL"
       orient="auto"
       refY="0"
       refX="0"
       id="DotL"
       style="overflow:visible"
       inkscape:isstock="true">
      <path
         id="path2128"
         d="m -2.5,-1 c 0,2.76 -2.24,5 -5,5 -2.76,0 -5,-2.24 -5,-5 0,-2.76 2.24,-5 5,-5 2.76,0 5,2.24 5,5 z"
         style="fill:#000000;fill-opacity:1;fill-rule:evenodd;stroke:#000000;stroke-width:1.00000003pt;stroke-opacity:1"
         transform="matrix(0.8,0,0,0.8,5.92,0.8)"
         inkscape:connector-curvature="0" />
    </marker>
    <inkscape:perspective
       sodipodi:type="inkscape:persp3d"
       inkscape:vp_x="0 : 148.50001 : 1"
       inkscape:vp_y="0 : 999.99993 : 0"
       inkscape:vp_z="210.00001 : 148.50001 : 1"
       inkscape:persp3d-origin="105 : 98.999996 : 1"
       id="perspective2353" />
    <marker
       inkscape:stockid="Arrow1Lstart"
       orient="auto"
       refY="0"
       refX="0"
       id="Arrow1Lstart"
       style="overflow:visible"
       inkscape:isstock="true">
      <path
         id="path2067"
         d="M 0,0 5,-5 -12.5,0 5,5 Z"
         style="fill:#000000;fill-opacity:1;fill-rule:evenodd;stroke:#000000;stroke-width:1.00000003pt;stroke-opacity:1"
         transform="matrix(0.8,0,0,0.8,10,0)"
         inkscape:connector-curvature="0" />
    </marker>
    <marker
       inkscape:isstock="true"
       style="overflow:visible"
       id="marker1536-5"
       refX="0"
       refY="0"
       orient="auto"
       inkscape:stockid="DotM">
      <path
         inkscape:connector-curvature="0"
         transform="matrix(0.4,0,0,0.4,2.96,0.4)"
         style="fill:#ffffff;fill-opacity:1;fill-rule:evenodd;stroke:#ffffff;stroke-width:1.00000003pt;stroke-opacity:1"
         d="m -2.5,-1 c 0,2.76 -2.24,5 -5,5 -2.76,0 -5,-2.24 -5,-5 0,-2.76 2.24,-5 5,-5 2.76,0 5,2.24 5,5 z"
         id="path1534-0" />
    </marker>
    <marker
       inkscape:isstock="true"
       style="overflow:visible"
       id="marker964-0"
       refX="0"
       refY="0"
       orient="auto"
       inkscape:stockid="DotM">
      <path
         inkscape:connector-curvature="0"
         transform="matrix(0.4,0,0,0.4,2.96,0.4)"
         style="fill:#ffffff;fill-opacity:1;fill-rule:evenodd;stroke:#ffffff;stroke-width:1.00000003pt;stroke-opacity:1"
         d="m -2.5,-1 c 0,2.76 -2.24,5 -5,5 -2.76,0 -5,-2.24 -5,-5 0,-2.76 2.24,-5 5,-5 2.76,0 5,2.24 5,5 z"
         id="path962-5" />
    </marker>
  </defs>
  <sodipodi:namedview
     id="base"
     pagecolor="#ffffff"
     bordercolor="#666666"
     borderopacity="1.0"
     inkscape:pageopacity="0.0"
     inkscape:pageshadow="2"
     inkscape:zoom="0.175"
     inkscape:cx="15.594647"
     inkscape:cy="904.42641"
     inkscape:document-units="mm"
     inkscape:current-layer="layer2"
     showgrid="false"
     inkscape:window-width="1920"
     inkscape:window-height="1017"
     inkscape:window-x="1912"
     inkscape:window-y="-8"
     inkscape:window-maximized="1" />
  <metadata
     id="metadata863">
    <rdf:RDF>
      <cc:Work
         rdf:about="">
        <dc:format>image/svg+xml</dc:format>
        <dc:type
           rdf:resource="http://purl.org/dc/dcmitype/StillImage" />
        <dc:title />
      </cc:Work>
    </rdf:RDF>
  </metadata>
  <g
     inkscape:groupmode="layer"
     id="layer2"
     inkscape:label="blackBG"
     transform="translate(0,-70)">
    <rect
       style="fill:#000000;fill-opacity:1;stroke:#ffffff;stroke-width:1.12834871;stroke-linecap:butt;stroke-linejoin:round;stroke-miterlimit:4;stroke-dasharray:none;stroke-opacity:1;paint-order:normal"
       id="rect956"
       width="970.62457"
       height="1230.5764"
       x="-1056.585"
       y="-251.86555" />
    <text
       id="text949-5-1"
       y="200.40007"
       x="590.10138"
       style="font-style:normal;font-weight:normal;font-size:19.68028259px;line-height:1.25;font-family:sans-serif;letter-spacing:0px;word-spacing:0px;fill:#ffffff;fill-opacity:1;stroke:none;stroke-width:0.49200711"
       xml:space="preserve"><tspan
         style="font-style:normal;font-variant:normal;font-weight:normal;font-stretch:normal;font-size:22.96032906px;font-family:'Bree Serif';-inkscape-font-specification:'Bree Serif, Normal';font-variant-ligatures:normal;font-variant-caps:normal;font-variant-numeric:normal;font-feature-settings:normal;text-align:start;writing-mode:lr-tb;text-anchor:start;fill:#ffffff;stroke-width:0.49200711"
         y="200.40007"
         x="590.10138"
         id="tspan947-9-0"
         sodipodi:role="line">Product logo</tspan></text>
    <text
       id="text949-5-0"
       y="401.26617"
       x="543.82153"
       style="font-style:normal;font-weight:normal;font-size:19.68028259px;line-height:1.25;font-family:sans-serif;letter-spacing:0px;word-spacing:0px;fill:#ffffff;fill-opacity:1;stroke:none;stroke-width:0.49200711"
       xml:space="preserve"><tspan
         style="font-style:normal;font-variant:normal;font-weight:normal;font-stretch:normal;font-size:22.96032906px;font-family:'Bree Serif';-inkscape-font-specification:'Bree Serif, Normal';font-variant-ligatures:normal;font-variant-caps:normal;font-variant-numeric:normal;font-feature-settings:normal;text-align:start;writing-mode:lr-tb;text-anchor:start;fill:#ffffff;stroke-width:0.49200711"
         y="401.26617"
         x="543.82153"
         id="tspan947-9-55"
         sodipodi:role="line">Neodynium magnet</tspan></text>
    <text
       id="text949-5-5"
       y="422.97705"
       x="47.407902"
       style="font-style:normal;font-weight:normal;font-size:19.68028259px;line-height:1.25;font-family:sans-serif;letter-spacing:0px;word-spacing:0px;fill:#ffffff;fill-opacity:1;stroke:none;stroke-width:0.49200711"
       xml:space="preserve"><tspan
         style="font-style:normal;font-variant:normal;font-weight:normal;font-stretch:normal;font-size:22.96032906px;font-family:'Bree Serif';-inkscape-font-specification:'Bree Serif, Normal';font-variant-ligatures:normal;font-variant-caps:normal;font-variant-numeric:normal;font-feature-settings:normal;text-align:start;writing-mode:lr-tb;text-anchor:start;fill:#ffffff;stroke-width:0.49200711"
         y="422.97705"
         x="47.407902"
         id="tspan947-9-4"
         sodipodi:role="line">Grinding grooves</tspan></text>
    <text
       xml:space="preserve"
       style="font-style:normal;font-weight:normal;font-size:10.58333302px;line-height:1.25;font-family:sans-serif;letter-spacing:0px;word-spacing:0px;fill:#000000;fill-opacity:1;stroke:none;stroke-width:0.26458332"
       x="693.20831"
       y="247.07141"
       id="text12260"><tspan
         sodipodi:role="line"
         id="tspan12258"
         x="693.20831"
         y="256.7269"
         style="stroke-width:0.26458332" /></text>
    <text
       id="text949-5-1-2"
       y="224.51225"
       x="578.47986"
       style="font-style:normal;font-variant:normal;font-weight:normal;font-stretch:normal;font-size:14.55211926px;line-height:1.25;font-family:'Bree Serif';-inkscape-font-specification:'Bree Serif, Normal';font-variant-ligatures:normal;font-variant-caps:normal;font-variant-numeric:normal;font-feature-settings:normal;text-align:start;letter-spacing:0px;word-spacing:0px;writing-mode:lr-tb;text-anchor:start;fill:#ffffff;fill-opacity:1;stroke:none;stroke-width:0.49200714"
       xml:space="preserve"><tspan
         style="font-style:normal;font-variant:normal;font-weight:normal;font-stretch:normal;font-size:14.55211926px;font-family:Bahnschrift;-inkscape-font-specification:'Bahnschrift, Normal';font-variant-ligatures:normal;font-variant-caps:normal;font-variant-numeric:normal;font-feature-settings:normal;text-align:start;writing-mode:lr-tb;text-anchor:start;fill:#ffffff;stroke-width:0.49200714"
         y="224.51225"
         x="578.47986"
         id="tspan947-9-0-0"
         sodipodi:role="line">To know which side is up</tspan></text>
    <text
       id="text949-5-0-8"
       y="1244.0203"
       x="80.258087"
       style="font-style:normal;font-weight:normal;font-size:19.68028259px;line-height:1.25;font-family:sans-serif;letter-spacing:0px;word-spacing:0px;fill:#ffffff;fill-opacity:1;stroke:none;stroke-width:0.49200714"
       xml:space="preserve"><tspan
         style="font-style:normal;font-variant:normal;font-weight:normal;font-stretch:normal;font-size:22.96032906px;font-family:'Bree Serif';-inkscape-font-specification:'Bree Serif, Normal';font-variant-ligatures:normal;font-variant-caps:normal;font-variant-numeric:normal;font-feature-settings:normal;text-align:start;writing-mode:lr-tb;text-anchor:start;fill:#ffffff;stroke-width:0.49200714"
         y="1244.0203"
         x="80.258087"
         id="tspan947-9-55-1"
         sodipodi:role="line">Cleaning brush</tspan></text>
    <text
       id="text949-5-0-3"
       y="915.16547"
       x="341.95624"
       style="font-style:normal;font-weight:normal;font-size:19.68028259px;line-height:1.25;font-family:sans-serif;letter-spacing:0px;word-spacing:0px;fill:#ffffff;fill-opacity:1;stroke:none;stroke-width:0.49200714"
       xml:space="preserve"><tspan
         style="font-style:normal;font-variant:normal;font-weight:normal;font-stretch:normal;font-size:22.96032906px;font-family:'Bree Serif';-inkscape-font-specification:'Bree Serif, Normal';font-variant-ligatures:normal;font-variant-caps:normal;font-variant-numeric:normal;font-feature-settings:normal;text-align:start;writing-mode:lr-tb;text-anchor:start;fill:#ffffff;stroke-width:0.49200714"
         y="915.16547"
         x="341.95624"
         id="tspan947-9-55-4"
         sodipodi:role="line">Fabric pouch</tspan></text>
    <text
       id="text949-5-0-34"
       y="1243.8866"
       x="582.51135"
       style="font-style:normal;font-weight:normal;font-size:19.68028259px;line-height:1.25;font-family:sans-serif;letter-spacing:0px;word-spacing:0px;fill:#ffffff;fill-opacity:1;stroke:none;stroke-width:0.49200714"
       xml:space="preserve"><tspan
         style="font-style:normal;font-variant:normal;font-weight:normal;font-stretch:normal;font-size:22.96032906px;font-family:'Bree Serif';-inkscape-font-specification:'Bree Serif, Normal';font-variant-ligatures:normal;font-variant-caps:normal;font-variant-numeric:normal;font-feature-settings:normal;text-align:start;writing-mode:lr-tb;text-anchor:start;fill:#ffffff;stroke-width:0.49200714"
         y="1243.8866"
         x="582.51135"
         id="tspan947-9-55-7"
         sodipodi:role="line">Plastic scraper</tspan></text>
    <text
       id="text949-5-1-2-5"
       y="449.30701"
       x="57.876339"
       style="font-style:normal;font-variant:normal;font-weight:normal;font-stretch:normal;font-size:14.55211926px;line-height:1.25;font-family:'Bree Serif';-inkscape-font-specification:'Bree Serif, Normal';font-variant-ligatures:normal;font-variant-caps:normal;font-variant-numeric:normal;font-feature-settings:normal;text-align:start;letter-spacing:0px;word-spacing:0px;writing-mode:lr-tb;text-anchor:start;fill:#ffffff;fill-opacity:1;stroke:none;stroke-width:0.49200714"
       xml:space="preserve"><tspan
         style="font-style:normal;font-variant:normal;font-weight:normal;font-stretch:normal;font-size:14.55211926px;font-family:Bahnschrift;-inkscape-font-specification:'Bahnschrift, Normal';font-variant-ligatures:normal;font-variant-caps:normal;font-variant-numeric:normal;font-feature-settings:normal;text-align:start;writing-mode:lr-tb;text-anchor:start;fill:#ffffff;stroke-width:0.49200714"
         y="449.30701"
         x="57.876339"
         id="tspan947-9-0-0-2"
         sodipodi:role="line">To get the work done</tspan></text>
    <text
       id="text949-5-1-2-67"
       y="365.65311"
       x="58.175518"
       style="font-style:normal;font-variant:normal;font-weight:normal;font-stretch:normal;font-size:14.55211926px;line-height:1.25;font-family:'Bree Serif';-inkscape-font-specification:'Bree Serif, Normal';font-variant-ligatures:normal;font-variant-caps:normal;font-variant-numeric:normal;font-feature-settings:normal;text-align:start;letter-spacing:0px;word-spacing:0px;writing-mode:lr-tb;text-anchor:start;fill:#ffffff;fill-opacity:1;stroke:none;stroke-width:0.49200714"
       xml:space="preserve"><tspan
         style="font-style:normal;font-variant:normal;font-weight:normal;font-stretch:normal;font-size:14.55211926px;font-family:Bahnschrift;-inkscape-font-specification:'Bahnschrift, Normal';font-variant-ligatures:normal;font-variant-caps:normal;font-variant-numeric:normal;font-feature-settings:normal;text-align:start;writing-mode:lr-tb;text-anchor:start;fill:#ffffff;stroke-width:0.49200714"
         y="365.65311"
         x="58.175518"
         id="tspan947-9-0-0-1"
         sodipodi:role="line">For a better grip</tspan></text>
    <text
       id="text949-5-1-2-6"
       y="1265.0757"
       x="98.456375"
       style="font-style:normal;font-variant:normal;font-weight:normal;font-stretch:normal;font-size:14.55211926px;line-height:1.25;font-family:'Bree Serif';-inkscape-font-specification:'Bree Serif, Normal';font-variant-ligatures:normal;font-variant-caps:normal;font-variant-numeric:normal;font-feature-settings:normal;text-align:start;letter-spacing:0px;word-spacing:0px;writing-mode:lr-tb;text-anchor:start;fill:#ffffff;fill-opacity:1;stroke:none;stroke-width:0.49200714"
       xml:space="preserve"><tspan
         style="font-style:normal;font-variant:normal;font-weight:normal;font-stretch:normal;font-size:14.55211926px;font-family:Bahnschrift;-inkscape-font-specification:'Bahnschrift, Normal';font-variant-ligatures:normal;font-variant-caps:normal;font-variant-numeric:normal;font-feature-settings:normal;text-align:start;writing-mode:lr-tb;text-anchor:start;fill:#ffffff;stroke-width:0.49200714"
         y="1265.0757"
         x="98.456375"
         id="tspan947-9-0-0-7"
         sodipodi:role="line">For an easy clean</tspan></text>
    <text
       id="text949-5-1-2-6-3"
       y="936.64984"
       x="407.85431"
       style="font-style:normal;font-variant:normal;font-weight:normal;font-stretch:normal;font-size:14.55211926px;line-height:1.25;font-family:'Bree Serif';-inkscape-font-specification:'Bree Serif, Normal';font-variant-ligatures:normal;font-variant-caps:normal;font-variant-numeric:normal;font-feature-settings:normal;text-align:start;letter-spacing:0px;word-spacing:0px;writing-mode:lr-tb;text-anchor:start;fill:#ffffff;fill-opacity:1;stroke:none;stroke-width:0.49200714"
       xml:space="preserve"><tspan
         style="font-style:normal;font-variant:normal;font-weight:normal;font-stretch:normal;font-size:14.55211926px;font-family:Bahnschrift;-inkscape-font-specification:'Bahnschrift, Normal';font-variant-ligatures:normal;font-variant-caps:normal;font-variant-numeric:normal;font-feature-settings:normal;text-align:center;writing-mode:lr-tb;text-anchor:middle;fill:#ffffff;stroke-width:0.49200714"
         y="936.64984"
         x="409.81543"
         id="tspan947-9-0-0-7-0"
         sodipodi:role="line">To carry the grinder </tspan><tspan
         style="font-style:normal;font-variant:normal;font-weight:normal;font-stretch:normal;font-size:14.55211926px;font-family:Bahnschrift;-inkscape-font-specification:'Bahnschrift, Normal';font-variant-ligatures:normal;font-variant-caps:normal;font-variant-numeric:normal;font-feature-settings:normal;text-align:center;writing-mode:lr-tb;text-anchor:middle;fill:#ffffff;stroke-width:0.49200714"
         y="954.8526"
         x="407.85431"
         sodipodi:role="line"
         id="tspan12425">around safely</tspan></text>
    <text
       id="text949-5-1-2-6-0"
       y="1265.6938"
       x="570.73102"
       style="font-style:normal;font-variant:normal;font-weight:normal;font-stretch:normal;font-size:14.55211926px;line-height:1.25;font-family:'Bree Serif';-inkscape-font-specification:'Bree Serif, Normal';font-variant-ligatures:normal;font-variant-caps:normal;font-variant-numeric:normal;font-feature-settings:normal;text-align:start;letter-spacing:0px;word-spacing:0px;writing-mode:lr-tb;text-anchor:start;fill:#ffffff;fill-opacity:1;stroke:none;stroke-width:0.49200714"
       xml:space="preserve"><tspan
         style="font-style:normal;font-variant:normal;font-weight:normal;font-stretch:normal;font-size:14.55211926px;font-family:Bahnschrift;-inkscape-font-specification:'Bahnschrift, Normal';font-variant-ligatures:normal;font-variant-caps:normal;font-variant-numeric:normal;font-feature-settings:normal;text-align:start;writing-mode:lr-tb;text-anchor:start;fill:#ffffff;stroke-width:0.49200714"
         y="1265.6938"
         x="570.73102"
         id="tspan947-9-0-0-7-4"
         sodipodi:role="line">For a more thorough clean</tspan></text>
    <path
       style="fill:none;stroke:#ffffff;stroke-width:1.03125262;stroke-linecap:butt;stroke-linejoin:miter;stroke-miterlimit:4;stroke-dasharray:none;stroke-opacity:1"
       d="M 76.85457,1252.0544 H 240.56591"
       id="path12317-9"
       inkscape:connector-curvature="0" />
    <path
       style="fill:none;stroke:#ffffff;stroke-width:1.03125262;stroke-linecap:butt;stroke-linejoin:miter;stroke-miterlimit:4;stroke-dasharray:none;stroke-opacity:1"
       d="M 335.9697,922.65405 H 480.58138"
       id="path12317-9-5"
       inkscape:connector-curvature="0" />
    <path
       style="fill:none;stroke:#ffffff;stroke-width:1.03125262;stroke-linecap:butt;stroke-linejoin:miter;stroke-miterlimit:4;stroke-dasharray:none;stroke-opacity:1"
       d="M 567.35465,1251.0799 H 745.48818"
       id="path12317-9-3"
       inkscape:connector-curvature="0" />
    <text
       id="text949-5-1-2-7-8"
       y="424.48087"
       x="549.76538"
       style="font-style:normal;font-variant:normal;font-weight:normal;font-stretch:normal;font-size:14.55211926px;line-height:1.25;font-family:'Bree Serif';-inkscape-font-specification:'Bree Serif, Normal';font-variant-ligatures:normal;font-variant-caps:normal;font-variant-numeric:normal;font-feature-settings:normal;text-align:start;letter-spacing:0px;word-spacing:0px;writing-mode:lr-tb;text-anchor:start;fill:#ffffff;fill-opacity:1;stroke:none;stroke-width:0.49200714"
       xml:space="preserve"><tspan
         style="font-style:normal;font-variant:normal;font-weight:normal;font-stretch:normal;font-size:14.55211926px;font-family:Bahnschrift;-inkscape-font-specification:'Bahnschrift, Normal';font-variant-ligatures:normal;font-variant-caps:normal;font-variant-numeric:normal;font-feature-settings:normal;text-align:start;writing-mode:lr-tb;text-anchor:start;fill:#ffffff;stroke-width:0.49200714"
         y="424.48087"
         x="549.76538"
         id="tspan947-9-0-0-0-9"
         sodipodi:role="line">Holds the two pieces together</tspan></text>
    <text
       id="text949-5-1-7"
       y="608.06299"
       x="479.98444"
       style="font-style:normal;font-weight:normal;font-size:19.68028259px;line-height:1.25;font-family:sans-serif;letter-spacing:0px;word-spacing:0px;fill:#ffffff;fill-opacity:1;stroke:none;stroke-width:0.49200711"
       xml:space="preserve"><tspan
         style="font-style:normal;font-variant:normal;font-weight:normal;font-stretch:normal;font-size:22.96032906px;font-family:'Bree Serif';-inkscape-font-specification:'Bree Serif, Normal';font-variant-ligatures:normal;font-variant-caps:normal;font-variant-numeric:normal;font-feature-settings:normal;text-align:start;writing-mode:lr-tb;text-anchor:start;fill:#ffffff;stroke-width:0.49200711"
         y="608.06299"
         x="479.98444"
         id="tspan947-9-0-8"
         sodipodi:role="line">Stainless steeel spindle</tspan></text>
    <text
       id="text949-5-1-2-57"
       y="634.21283"
       x="497.98505"
       style="font-style:normal;font-variant:normal;font-weight:normal;font-stretch:normal;font-size:14.55211926px;line-height:1.25;font-family:'Bree Serif';-inkscape-font-specification:'Bree Serif, Normal';font-variant-ligatures:normal;font-variant-caps:normal;font-variant-numeric:normal;font-feature-settings:normal;text-align:start;letter-spacing:0px;word-spacing:0px;writing-mode:lr-tb;text-anchor:start;fill:#ffffff;fill-opacity:1;stroke:none;stroke-width:0.49200714"
       xml:space="preserve"><tspan
         style="font-style:normal;font-variant:normal;font-weight:normal;font-stretch:normal;font-size:14.55211926px;font-family:Bahnschrift;-inkscape-font-specification:'Bahnschrift, Normal';font-variant-ligatures:normal;font-variant-caps:normal;font-variant-numeric:normal;font-feature-settings:normal;text-align:start;writing-mode:lr-tb;text-anchor:start;fill:#ffffff;stroke-width:0.49200714"
         y="634.21283"
         x="497.98505"
         sodipodi:role="line"
         id="tspan2116">For smoothness and durability</tspan></text>
  </g>
  <g
     inkscape:label="Layer 1"
     inkscape:groupmode="layer"
     id="layer1"
     transform="translate(0,633)">
    <path
       style="fill:#ffffff;stroke-width:0.19588248"
       d="m 191.91987,395.58996 c -1.88948,0.25783 -2.68102,2.39219 -4.0087,3.52569 -2.71259,3.10704 -5.36826,6.26385 -8.04571,9.40399 -1.19938,-1.446 -3.51204,-1.89068 -4.8995,-0.44673 -5.38734,5.66772 -9.04051,13.10743 -9.99834,20.88678 -0.58651,4.4209 0.84113,9.02884 -0.93047,13.29251 -1.42787,4.128 -5.10286,6.8247 -7.71392,10.17399 -11.36641,12.78125 -23.05105,25.28669 -34.25647,38.20438 -1.05944,2.40327 0.55756,5.74397 3.37272,5.67941 2.42061,0.38663 3.7845,-2.02636 5.50147,-3.2626 14.02967,-12.39421 27.71545,-25.25786 41.85676,-37.47233 3.55959,-2.40477 8.003,-2.75168 12.1613,-2.30206 9.24323,0.32255 18.18481,-3.85864 24.93514,-9.96811 1.52161,-1.33608 1.17717,-3.84541 -0.31583,-5.07231 4.21535,-3.66281 8.62361,-7.12826 12.62827,-11.01209 1.48721,-2.68383 -1.99452,-6.35558 -4.69611,-4.81953 -3.95109,3.99109 -7.42878,8.42653 -11.12826,12.65363 -0.68761,-0.71941 -1.47034,-1.36126 -2.05567,-2.17185 4.18674,-3.68958 8.64065,-7.14687 12.62823,-11.01937 1.13813,-2.39877 -1.14855,-5.17283 -3.62103,-5.15369 -2.09147,0.51962 -3.18088,2.7598 -4.64726,4.16633 -2.55146,2.94524 -5.07228,5.91534 -7.60327,8.87959 -0.53902,-0.74854 -1.83976,-1.41777 -1.96488,-2.25177 4.18674,-3.71979 8.67571,-7.14918 12.59918,-11.13552 0.95581,-2.09835 -0.88907,-4.47191 -2.9413,-4.89911 -2.11659,-0.47187 -3.15699,1.81849 -4.44104,3.02802 -2.89482,3.27848 -5.71369,6.6263 -8.57274,9.93761 -0.61857,-0.96577 -3.17342,-2.03419 -1.17108,-2.90523 3.95092,-3.48161 8.15838,-6.71371 11.84536,-10.46395 0.95029,-2.12933 -0.95298,-4.53377 -3.04721,-4.90311 -2.21047,-0.37238 -3.21999,2.08672 -4.60025,3.31992 -2.8215,3.13516 -5.50571,6.53812 -8.34037,9.57348 -0.61369,-0.80968 -2.99814,-1.8782 -1.34633,-2.66811 3.92607,-3.45233 8.09709,-6.66742 11.82087,-10.32337 1.35467,-2.14193 -0.76617,-5.04002 -3.04722,-5.20458 -2.31141,-0.23308 -3.23172,2.26108 -4.66042,3.581 -2.67883,3.09831 -5.33384,6.21436 -7.99325,9.33054 -0.54676,-0.67628 -2.55259,-1.62791 -1.79791,-2.36447 4.04371,-3.61114 8.42742,-6.87199 12.20342,-10.76133 1.36892,-1.78931 -0.46783,-4.19329 -2.18643,-4.9249 -0.4923,-0.14748 -1.0115,-0.18037 -1.52179,-0.1305 z m 0.5448,1.64158 c 1.16185,0.37016 2.74467,1.94187 1.29614,2.96094 -3.87045,3.56952 -7.97411,6.87171 -11.94499,10.32476 -1.66722,-1.01478 0.80694,-2.1471 1.32062,-3.22383 2.88132,-3.31611 5.62324,-6.7661 8.64543,-9.94926 0.20357,-0.11989 0.45163,-0.15879 0.6828,-0.11246 z m 5.48058,5.32449 c 1.10311,0.48301 2.58471,2.15696 1.04523,3.06544 -3.90527,3.44159 -7.89198,6.82828 -11.86113,10.1766 -1.64968,-0.90958 0.64254,-2.00859 1.15321,-3.00854 2.97394,-3.35493 5.70301,-6.95786 8.89274,-10.10643 0.22479,-0.14607 0.50731,-0.23449 0.76995,-0.12697 z m 5.33533,5.25902 c 1.0102,0.513 2.55068,2.11675 1.01792,3.01083 -3.85413,3.54077 -7.86875,6.91723 -11.88832,10.24579 -1.66466,-0.95341 0.87879,-2.11022 1.34608,-3.15587 3.01131,-3.30257 5.6151,-7.02597 8.96501,-9.99178 0.16421,-0.0969 0.36846,-0.16906 0.55931,-0.10893 z m -25.96474,1.04603 c 9.98368,9.40148 19.61232,19.19949 29.24968,28.97007 0.79383,1.15181 2.58707,1.9489 2.63514,3.42684 -1.41767,2.28803 -4.01379,3.57322 -6.15955,5.10682 -5.54999,3.42347 -12.0032,5.59126 -18.54104,5.17902 -3.48501,-0.0283 -7.14428,-0.36166 -10.32584,1.38157 -3.73029,1.67599 -6.3592,4.97468 -9.50239,7.48603 -12.65727,11.26404 -25.08873,22.81519 -37.79276,34.00362 -1.90245,1.05014 -4.17707,-1.12331 -3.26877,-3.06899 10.2571,-11.67024 20.84222,-23.11144 31.23876,-34.68208 3.1956,-3.82835 7.08916,-7.13164 9.67148,-11.43153 1.67139,-2.84257 2.29843,-6.14091 2.08644,-9.41291 0.0378,-4.46682 -0.2381,-8.96362 1.50306,-13.13168 1.81329,-4.98362 4.44919,-9.8758 8.2978,-13.60528 0.26313,-0.17719 0.58681,-0.30876 0.90799,-0.22175 z m 31.2238,4.30381 c 1.13381,0.42144 2.53907,2.10698 1.03231,2.98162 -3.83724,3.53376 -7.84125,6.86422 -11.8337,10.21688 -1.58269,-0.77912 0.51072,-1.85776 1.00488,-2.76599 2.9703,-3.41683 5.7894,-6.97116 8.91395,-10.24726 0.2451,-0.18816 0.58052,-0.29779 0.88256,-0.18497 z m -31.12938,3.36685 c -1.68885,1.27168 -2.33864,3.55518 -3.3559,5.35345 -1.68965,3.59411 -2.44515,7.54867 -2.21962,11.51267 -0.10189,3.97043 0.37728,8.13022 -1.4366,11.79119 -0.19746,1.12148 -1.68466,2.42155 -0.84013,3.51802 1.07923,0.54979 2.19078,-0.76772 3.26291,-0.962 4.2667,-1.90328 9.00421,-1.57909 13.54464,-1.40965 5.31416,-0.10752 10.52643,-2.09369 14.83905,-5.13279 0.91083,-0.89597 -0.93339,-1.7479 -1.32962,-2.50183 -7.33378,-7.51041 -14.70818,-15.01099 -22.33034,-22.22357 z m 36.29035,1.87405 c 1.09301,0.42056 2.67882,1.99338 1.30614,3.02687 -3.92786,3.48841 -7.95906,6.99739 -11.99855,10.25878 -1.56809,-0.92713 0.70819,-1.98829 1.20111,-2.98255 2.96995,-3.39429 5.77471,-6.94692 8.89568,-10.19777 0.17826,-0.0987 0.39277,-0.15597 0.59562,-0.1054 z m -35.32424,0.96971 c 7.05308,6.966 14.04635,13.99226 21.058,20.99989 -4.30524,2.74661 -9.36482,4.51358 -14.52752,4.19667 -4.1028,-0.14253 -8.32627,-0.2352 -12.18734,1.38089 -1.62345,0.91861 -0.14001,-1.18205 -0.08,-2.01524 1.42357,-4.15389 0.91961,-8.56517 0.84143,-12.85682 0.15264,-4.36775 1.97813,-8.61274 4.16177,-12.40998 0.24457,0.2352 0.48913,0.46974 0.73367,0.70459 z m 40.72495,4.3547 c 1.28387,0.42947 2.60521,2.4253 0.94505,3.29813 -3.85994,3.37319 -7.77227,6.76579 -11.72828,9.96574 -1.58994,-0.92901 0.69462,-1.99318 1.19554,-2.98888 2.99506,-3.42599 5.84972,-6.98909 9.05018,-10.22416 0.16869,-0.0704 0.35858,-0.0859 0.53751,-0.0509 z"
       id="path1452"
       inkscape:connector-curvature="0" />
    <path
       style="fill:#ffffff;stroke-width:0.32716352"
       d="m 410.10792,63.943329 c -5.48028,0.243324 -11.0687,2.144191 -16.63578,1.641445 -7.94599,-1.079845 -16.54757,-3.195429 -24.01592,0.71141 -3.34026,2.504634 -2.24355,7.326255 -3.11516,10.845404 -4.09569,4.172129 -8.42564,8.339132 -13.843,10.736567 -1.72353,-2.204746 -4.50734,-4.246018 -7.42369,-3.009247 -4.45419,1.437123 -4.43304,8.659527 0.15066,9.941427 3.14416,1.34574 6.59964,-1.1691 7.18264,-4.331928 1.48537,-1.715571 4.06338,-2.009117 5.73442,-3.580004 2.76978,-1.597482 4.8114,-4.317328 7.73026,-5.62737 0.34519,3.999754 -0.61511,8.069572 -0.72094,12.094572 -1.67985,21.936885 -3.75019,43.851015 -5.00705,65.816215 -0.0718,11.93429 9.33176,23.73186 21.18549,25.55998 18.77003,0.61924 37.56758,0.51201 56.34133,0.094 9.28423,-0.61402 17.43571,-7.71162 20.75114,-16.26421 3.33301,-7.78752 1.19153,-16.27909 0.91698,-24.42792 -1.60577,-20.87478 -3.3276,-41.74056 -4.97945,-62.611708 1.32665,-1.13544 2.50336,1.347816 3.57322,1.833774 2.9057,2.711028 6.32483,4.759024 9.8115,6.606276 1.31349,1.459552 1.32364,3.985103 3.54524,4.666003 3.73991,1.97609 8.91196,-1.61537 7.65221,-5.875188 -0.77179,-4.03788 -6.47382,-5.652161 -9.12721,-2.433715 -0.60355,1.187642 -1.6999,1.950418 -2.94937,1.053321 -4.79973,-2.657661 -8.904,-6.433572 -12.78265,-10.240998 -0.78802,-3.827834 0.20477,-9.234928 -4.00004,-11.375943 -6.31322,-2.869904 -13.28343,-1.175226 -19.85486,-0.298506 -6.79899,0.533384 -13.37163,-1.953883 -20.11981,-1.523851 z m 1.81163,1.864928 c 7.37403,0.18249 14.62891,2.737491 21.95273,1.108246 5.18102,-0.850351 11.01883,-1.661359 15.83045,0.927199 2.233,1.738743 2.01901,4.910855 2.09404,7.448933 -6.31901,-2.134817 -12.95794,-2.22041 -19.42738,-0.748411 -8.5796,1.481621 -17.0693,-2.54211 -25.5884,-0.902717 -6.24124,1.100037 -12.6436,1.890007 -18.91882,0.548193 -6.20489,-1.382301 -12.51786,-0.824414 -18.59051,0.980391 -1.36738,-0.287193 -0.2893,-2.438984 -0.38798,-3.57198 -0.0142,-3.242083 3.18677,-4.906751 6.03057,-5.157655 8.04103,-1.997846 16.10405,2.074385 24.17486,0.875698 4.29543,-0.369271 8.50675,-1.45916 12.83061,-1.507897 z m 0.27162,9.393813 c 7.23093,0.133682 14.29543,2.706244 21.5142,1.077474 5.03785,-1.071678 10.31332,-1.40965 15.26151,0.277273 1.94397,0.348016 3.78878,0.859466 3.2205,3.280342 2.09028,25.589501 4.53065,51.128801 6.17375,76.754841 0.89671,9.59608 -4.43849,19.38437 -12.77805,24.07948 -6.84073,3.55837 -14.76091,2.16245 -22.15552,2.497 -13.93638,-0.0746 -27.89151,0.31264 -41.81573,-0.3109 -11.88725,-1.8715 -20.35262,-13.95654 -19.61535,-25.70296 2.15534,-25.61114 3.90282,-51.30221 6.25201,-76.912292 0.22599,-3.406609 4.16856,-3.898816 6.78293,-4.497128 8.45688,-1.675187 16.87493,2.273397 25.27625,0.749834 3.95699,-0.47153 7.88237,-1.328934 11.8835,-1.293324 z m -65.09615,11.162887 c 3.47816,-0.07642 4.5462,5.475718 1.21655,6.601668 -3.01237,1.4493 -6.21844,-2.705256 -3.99562,-5.234114 0.64118,-0.84903 1.71717,-1.370174 2.77907,-1.367554 z m 126.41984,0.111757 c 3.09579,-0.32997 4.90839,3.887564 2.5262,5.892451 -2.29982,2.49267 -6.96097,-0.53932 -5.39894,-3.654602 0.44508,-1.196552 1.59583,-2.121741 2.87274,-2.237849 z"
       id="path1476"
       inkscape:connector-curvature="0" />
    <g
       id="g2389"
       transform="matrix(2.2856374,-0.7055562,0.7055562,2.2856374,684.46559,-418.08899)"
       style="fill:none">
      <circle
         r="13.974956"
         cy="346.64786"
         cx="-120.3214"
         id="path2057"
         style="fill:none;fill-opacity:1;stroke:#000000;stroke-width:0.8216247;stroke-linecap:round;stroke-miterlimit:4;stroke-dasharray:none;stroke-opacity:1;paint-order:fill markers stroke" />
      <path
         transform="matrix(0.11681684,-0.2023327,0.2023327,0.11681684,-122.83321,228.66256)"
         inkscape:transform-center-y="-7.3210041"
         inkscape:transform-center-x="6.3012827"
         d="m -378.37329,292.60685 c -45.28421,78.43456 -61.26688,78.43456 -106.55109,0 -45.2842,-78.43455 -37.29287,-92.27594 53.27555,-92.27594 90.56842,0 98.55975,13.84139 53.27554,92.27594 z"
         inkscape:randomized="0"
         inkscape:rounded="0.85"
         inkscape:flatsided="true"
         sodipodi:arg2="1.5707963"
         sodipodi:arg1="0.52359878"
         sodipodi:r2="30.758646"
         sodipodi:r1="61.517296"
         sodipodi:cy="261.84821"
         sodipodi:cx="-431.64883"
         sodipodi:sides="3"
         id="path2369"
         style="fill:none;fill-opacity:1;stroke:#000000;stroke-width:3.51672196;stroke-linecap:butt;stroke-linejoin:round;stroke-miterlimit:0;stroke-dasharray:none;stroke-opacity:1;paint-order:stroke fill markers"
         sodipodi:type="star" />
      <circle
         r="11.201739"
         cy="346.65863"
         cx="-120.3308"
         id="path2057-7"
         style="fill:none;fill-opacity:1;stroke:#000000;stroke-width:0.65729976;stroke-linecap:round;stroke-miterlimit:4;stroke-dasharray:none;stroke-opacity:1;paint-order:fill markers stroke" />
    </g>
    <text
       xml:space="preserve"
       style="font-style:normal;font-weight:normal;font-size:19.68028259px;line-height:1.25;font-family:sans-serif;letter-spacing:0px;word-spacing:0px;fill:#ffffff;fill-opacity:1;stroke:none;stroke-width:0.49200705"
       x="335.56888"
       y="-569.56104"
       id="text2409"><tspan
         sodipodi:role="line"
         id="tspan2407"
         x="335.56888"
         y="-569.56104"
         style="font-style:normal;font-variant:normal;font-weight:normal;font-stretch:normal;font-size:39.36056519px;font-family:'Bree Serif';-inkscape-font-specification:'Bree Serif, Normal';font-variant-ligatures:normal;font-variant-caps:normal;font-variant-numeric:normal;font-feature-settings:normal;text-align:start;writing-mode:lr-tb;text-anchor:start;fill:#ffffff;stroke-width:0.49200705">Grinder</tspan></text>
    <text
       xml:space="preserve"
       style="font-style:normal;font-weight:normal;font-size:19.68028259px;line-height:1.25;font-family:sans-serif;letter-spacing:0px;word-spacing:0px;fill:#ffffff;fill-opacity:1;stroke:none;stroke-width:0.49200705"
       x="307.23468"
       y="7.9669428"
       id="text2409-2"><tspan
         sodipodi:role="line"
         id="tspan2407-7"
         x="307.23468"
         y="7.9669428"
         style="font-style:normal;font-variant:normal;font-weight:normal;font-stretch:normal;font-size:39.36056519px;font-family:'Bree Serif';-inkscape-font-specification:'Bree Serif, Normal';font-variant-ligatures:normal;font-variant-caps:normal;font-variant-numeric:normal;font-feature-settings:normal;text-align:start;writing-mode:lr-tb;text-anchor:start;fill:#ffffff;stroke-width:0.49200705">Accessories</tspan></text>
    <path
       inkscape:connector-curvature="0"
       id="path913"
       d="m 191.91987,395.58996 c -1.88948,0.25783 -2.68102,2.39219 -4.0087,3.52569 -2.71259,3.10704 -5.36826,6.26385 -8.04571,9.40399 -1.19938,-1.446 -3.51204,-1.89068 -4.8995,-0.44673 -5.38734,5.66772 -9.04051,13.10743 -9.99834,20.88678 -0.58651,4.4209 0.84113,9.02884 -0.93047,13.29251 -1.42787,4.128 -5.10286,6.8247 -7.71392,10.17399 -11.36641,12.78125 -23.05105,25.28669 -34.25647,38.20438 -1.05944,2.40327 0.55756,5.74397 3.37272,5.67941 2.42061,0.38663 3.7845,-2.02636 5.50147,-3.2626 14.02967,-12.39421 27.71545,-25.25786 41.85676,-37.47233 3.55959,-2.40477 8.003,-2.75168 12.1613,-2.30206 9.24323,0.32255 18.18481,-3.85864 24.93514,-9.96811 1.52161,-1.33608 1.17717,-3.84541 -0.31583,-5.07231 4.21535,-3.66281 8.62361,-7.12826 12.62827,-11.01209 1.48721,-2.68383 -1.99452,-6.35558 -4.69611,-4.81953 -3.95109,3.99109 -7.42878,8.42653 -11.12826,12.65363 -0.68761,-0.71941 -1.47034,-1.36126 -2.05567,-2.17185 4.18674,-3.68958 8.64065,-7.14687 12.62823,-11.01937 1.13813,-2.39877 -1.14855,-5.17283 -3.62103,-5.15369 -2.09147,0.51962 -3.18088,2.7598 -4.64726,4.16633 -2.55146,2.94524 -5.07228,5.91534 -7.60327,8.87959 -0.53902,-0.74854 -1.83976,-1.41777 -1.96488,-2.25177 4.18674,-3.71979 8.67571,-7.14918 12.59918,-11.13552 0.95581,-2.09835 -0.88907,-4.47191 -2.9413,-4.89911 -2.11659,-0.47187 -3.15699,1.81849 -4.44104,3.02802 -2.89482,3.27848 -5.71369,6.6263 -8.57274,9.93761 -0.61857,-0.96577 -3.17342,-2.03419 -1.17108,-2.90523 3.95092,-3.48161 8.15838,-6.71371 11.84536,-10.46395 0.95029,-2.12933 -0.95298,-4.53377 -3.04721,-4.90311 -2.21047,-0.37238 -3.21999,2.08672 -4.60025,3.31992 -2.8215,3.13516 -5.50571,6.53812 -8.34037,9.57348 -0.61369,-0.80968 -2.99814,-1.8782 -1.34633,-2.66811 3.92607,-3.45233 8.09709,-6.66742 11.82087,-10.32337 1.35467,-2.14193 -0.76617,-5.04002 -3.04722,-5.20458 -2.31141,-0.23308 -3.23172,2.26108 -4.66042,3.581 -2.67883,3.09831 -5.33384,6.21436 -7.99325,9.33054 -0.54676,-0.67628 -2.55259,-1.62791 -1.79791,-2.36447 4.04371,-3.61114 8.42742,-6.87199 12.20342,-10.76133 1.36892,-1.78931 -0.46783,-4.19329 -2.18643,-4.9249 -0.4923,-0.14748 -1.0115,-0.18037 -1.52179,-0.1305 z m 0.5448,1.64158 c 1.16185,0.37016 2.74467,1.94187 1.29614,2.96094 -3.87045,3.56952 -7.97411,6.87171 -11.94499,10.32476 -1.66722,-1.01478 0.80694,-2.1471 1.32062,-3.22383 2.88132,-3.31611 5.62324,-6.7661 8.64543,-9.94926 0.20357,-0.11989 0.45163,-0.15879 0.6828,-0.11246 z m 5.48058,5.32449 c 1.10311,0.48301 2.58471,2.15696 1.04523,3.06544 -3.90527,3.44159 -7.89198,6.82828 -11.86113,10.1766 -1.64968,-0.90958 0.64254,-2.00859 1.15321,-3.00854 2.97394,-3.35493 5.70301,-6.95786 8.89274,-10.10643 0.22479,-0.14607 0.50731,-0.23449 0.76995,-0.12697 z m 5.33533,5.25902 c 1.0102,0.513 2.55068,2.11675 1.01792,3.01083 -3.85413,3.54077 -7.86875,6.91723 -11.88832,10.24579 -1.66466,-0.95341 0.87879,-2.11022 1.34608,-3.15587 3.01131,-3.30257 5.6151,-7.02597 8.96501,-9.99178 0.16421,-0.0969 0.36846,-0.16906 0.55931,-0.10893 z m -25.96474,1.04603 c 9.98368,9.40148 19.61232,19.19949 29.24968,28.97007 0.79383,1.15181 2.58707,1.9489 2.63514,3.42684 -1.41767,2.28803 -4.01379,3.57322 -6.15955,5.10682 -5.54999,3.42347 -12.0032,5.59126 -18.54104,5.17902 -3.48501,-0.0283 -7.14428,-0.36166 -10.32584,1.38157 -3.73029,1.67599 -6.3592,4.97468 -9.50239,7.48603 -12.65727,11.26404 -25.08873,22.81519 -37.79276,34.00362 -1.90245,1.05014 -4.17707,-1.12331 -3.26877,-3.06899 10.2571,-11.67024 20.84222,-23.11144 31.23876,-34.68208 3.1956,-3.82835 7.08916,-7.13164 9.67148,-11.43153 1.67139,-2.84257 2.29843,-6.14091 2.08644,-9.41291 0.0378,-4.46682 -0.2381,-8.96362 1.50306,-13.13168 1.81329,-4.98362 4.44919,-9.8758 8.2978,-13.60528 0.26313,-0.17719 0.58681,-0.30876 0.90799,-0.22175 z m 31.2238,4.30381 c 1.13381,0.42144 2.53907,2.10698 1.03231,2.98162 -3.83724,3.53376 -7.84125,6.86422 -11.8337,10.21688 -1.58269,-0.77912 0.51072,-1.85776 1.00488,-2.76599 2.9703,-3.41683 5.7894,-6.97116 8.91395,-10.24726 0.2451,-0.18816 0.58052,-0.29779 0.88256,-0.18497 z m -31.12938,3.36685 c -1.68885,1.27168 -2.33864,3.55518 -3.3559,5.35345 -1.68965,3.59411 -2.44515,7.54867 -2.21962,11.51267 -0.10189,3.97043 0.37728,8.13022 -1.4366,11.79119 -0.19746,1.12148 -1.68466,2.42155 -0.84013,3.51802 1.07923,0.54979 2.19078,-0.76772 3.26291,-0.962 4.2667,-1.90328 9.00421,-1.57909 13.54464,-1.40965 5.31416,-0.10752 10.52643,-2.09369 14.83905,-5.13279 0.91083,-0.89597 -0.93339,-1.7479 -1.32962,-2.50183 -7.33378,-7.51041 -14.70818,-15.01099 -22.33034,-22.22357 z m 36.29035,1.87405 c 1.09301,0.42056 2.67882,1.99338 1.30614,3.02687 -3.92786,3.48841 -7.95906,6.99739 -11.99855,10.25878 -1.56809,-0.92713 0.70819,-1.98829 1.20111,-2.98255 2.96995,-3.39429 5.77471,-6.94692 8.89568,-10.19777 0.17826,-0.0987 0.39277,-0.15597 0.59562,-0.1054 z m -35.32424,0.96971 c 7.05308,6.966 14.04635,13.99226 21.058,20.99989 -4.30524,2.74661 -9.36482,4.51358 -14.52752,4.19667 -4.1028,-0.14253 -8.32627,-0.2352 -12.18734,1.38089 -1.62345,0.91861 -0.14001,-1.18205 -0.08,-2.01524 1.42357,-4.15389 0.91961,-8.56517 0.84143,-12.85682 0.15264,-4.36775 1.97813,-8.61274 4.16177,-12.40998 0.24457,0.2352 0.48913,0.46974 0.73367,0.70459 z m 40.72495,4.3547 c 1.28387,0.42947 2.60521,2.4253 0.94505,3.29813 -3.85994,3.37319 -7.77227,6.76579 -11.72828,9.96574 -1.58994,-0.92901 0.69462,-1.99318 1.19554,-2.98888 2.99506,-3.42599 5.84972,-6.98909 9.05018,-10.22416 0.16869,-0.0704 0.35858,-0.0859 0.53751,-0.0509 z"
       style="fill:#ffffff;stroke-width:0.19588248" />
    <path
       inkscape:connector-curvature="0"
       id="path915"
       d="m 410.10792,63.943329 c -5.48028,0.243324 -11.0687,2.144191 -16.63578,1.641445 -7.94599,-1.079845 -16.54757,-3.195429 -24.01592,0.71141 -3.34026,2.504634 -2.24355,7.326255 -3.11516,10.845404 -4.09569,4.172129 -8.42564,8.339132 -13.843,10.736567 -1.72353,-2.204746 -4.50734,-4.246018 -7.42369,-3.009247 -4.45419,1.437123 -4.43304,8.659527 0.15066,9.941427 3.14416,1.34574 6.59964,-1.1691 7.18264,-4.331928 1.48537,-1.715571 4.06338,-2.009117 5.73442,-3.580004 2.76978,-1.597482 4.8114,-4.317328 7.73026,-5.62737 0.34519,3.999754 -0.61511,8.069572 -0.72094,12.094572 -1.67985,21.936885 -3.75019,43.851015 -5.00705,65.816215 -0.0718,11.93429 9.33176,23.73186 21.18549,25.55998 18.77003,0.61924 37.56758,0.51201 56.34133,0.094 9.28423,-0.61402 17.43571,-7.71162 20.75114,-16.26421 3.33301,-7.78752 1.19153,-16.27909 0.91698,-24.42792 -1.60577,-20.87478 -3.3276,-41.74056 -4.97945,-62.611708 1.32665,-1.13544 2.50336,1.347816 3.57322,1.833774 2.9057,2.711028 6.32483,4.759024 9.8115,6.606276 1.31349,1.459552 1.32364,3.985103 3.54524,4.666003 3.73991,1.97609 8.91196,-1.61537 7.65221,-5.875188 -0.77179,-4.03788 -6.47382,-5.652161 -9.12721,-2.433715 -0.60355,1.187642 -1.6999,1.950418 -2.94937,1.053321 -4.79973,-2.657661 -8.904,-6.433572 -12.78265,-10.240998 -0.78802,-3.827834 0.20477,-9.234928 -4.00004,-11.375943 -6.31322,-2.869904 -13.28343,-1.175226 -19.85486,-0.298506 -6.79899,0.533384 -13.37163,-1.953883 -20.11981,-1.523851 z m 1.81163,1.864928 c 7.37403,0.18249 14.62891,2.737491 21.95273,1.108246 5.18102,-0.850351 11.01883,-1.661359 15.83045,0.927199 2.233,1.738743 2.01901,4.910855 2.09404,7.448933 -6.31901,-2.134817 -12.95794,-2.22041 -19.42738,-0.748411 -8.5796,1.481621 -17.0693,-2.54211 -25.5884,-0.902717 -6.24124,1.100037 -12.6436,1.890007 -18.91882,0.548193 -6.20489,-1.382301 -12.51786,-0.824414 -18.59051,0.980391 -1.36738,-0.287193 -0.2893,-2.438984 -0.38798,-3.57198 -0.0142,-3.242083 3.18677,-4.906751 6.03057,-5.157655 8.04103,-1.997846 16.10405,2.074385 24.17486,0.875698 4.29543,-0.369271 8.50675,-1.45916 12.83061,-1.507897 z m 0.27162,9.393813 c 7.23093,0.133682 14.29543,2.706244 21.5142,1.077474 5.03785,-1.071678 10.31332,-1.40965 15.26151,0.277273 1.94397,0.348016 3.78878,0.859466 3.2205,3.280342 2.09028,25.589501 4.53065,51.128801 6.17375,76.754841 0.89671,9.59608 -4.43849,19.38437 -12.77805,24.07948 -6.84073,3.55837 -14.76091,2.16245 -22.15552,2.497 -13.93638,-0.0746 -27.89151,0.31264 -41.81573,-0.3109 -11.88725,-1.8715 -20.35262,-13.95654 -19.61535,-25.70296 2.15534,-25.61114 3.90282,-51.30221 6.25201,-76.912292 0.22599,-3.406609 4.16856,-3.898816 6.78293,-4.497128 8.45688,-1.675187 16.87493,2.273397 25.27625,0.749834 3.95699,-0.47153 7.88237,-1.328934 11.8835,-1.293324 z m -65.09615,11.162887 c 3.47816,-0.07642 4.5462,5.475718 1.21655,6.601668 -3.01237,1.4493 -6.21844,-2.705256 -3.99562,-5.234114 0.64118,-0.84903 1.71717,-1.370174 2.77907,-1.367554 z m 126.41984,0.111757 c 3.09579,-0.32997 4.90839,3.887564 2.5262,5.892451 -2.29982,2.49267 -6.96097,-0.53932 -5.39894,-3.654602 0.44508,-1.196552 1.59583,-2.121741 2.87274,-2.237849 z"
       style="fill:#ffffff;stroke-width:0.32716352" />
    <circle
       r="33.428921"
       cy="631.60229"
       cx="489.51657"
       id="circle917"
       style="fill:none;fill-opacity:1;stroke:#ffffff;stroke-width:1.96537507;stroke-linecap:round;stroke-miterlimit:4;stroke-dasharray:none;stroke-opacity:1;paint-order:fill markers stroke"
       transform="rotate(-17.154998)" />
    <path
       transform="matrix(0.12424385,-0.54488003,0.54488003,0.12424385,565.0477,191.21644)"
       inkscape:transform-center-y="-7.5498011"
       inkscape:transform-center-x="6.4982113"
       d="m -378.37329,292.60685 c -45.28421,78.43456 -61.26688,78.43456 -106.55109,0 -45.2842,-78.43455 -37.29287,-92.27594 53.27555,-92.27594 90.56842,0 98.55975,13.84139 53.27554,92.27594 z"
       inkscape:randomized="0"
       inkscape:rounded="0.85"
       inkscape:flatsided="true"
       sodipodi:arg2="1.5707963"
       sodipodi:arg1="0.52359878"
       sodipodi:r2="30.758646"
       sodipodi:r1="61.517296"
       sodipodi:cy="261.84821"
       sodipodi:cx="-431.64883"
       sodipodi:sides="3"
       id="path919"
       style="fill:none;fill-opacity:1;stroke:#ffffff;stroke-width:3.51672196;stroke-linecap:butt;stroke-linejoin:round;stroke-miterlimit:0;stroke-dasharray:none;stroke-opacity:1;paint-order:stroke fill markers"
       sodipodi:type="star" />
    <circle
       r="26.795225"
       cy="631.62805"
       cx="489.49411"
       id="circle921"
       style="fill:none;fill-opacity:1;stroke:#ffffff;stroke-width:1.57266021;stroke-linecap:round;stroke-miterlimit:4;stroke-dasharray:none;stroke-opacity:1;paint-order:fill markers stroke"
       transform="rotate(-17.154998)" />
    <path
       inkscape:connector-curvature="0"
       id="path933"
       d="m 409.57603,-248.25179 118.06524,-45.45827 h 220.54808"
       style="fill:none;stroke:#ffffff;stroke-width:1.5;stroke-linecap:butt;stroke-linejoin:miter;stroke-miterlimit:4;stroke-dasharray:none;stroke-opacity:1;marker-start:url(#marker964)" />
    <path
       inkscape:connector-curvature="0"
       id="path937"
       d="m 323.72479,-233.28153 -74.30593,-36.42953 H 30.636988"
       style="fill:none;stroke:#ffffff;stroke-width:1.5;stroke-linecap:butt;stroke-linejoin:miter;stroke-miterlimit:4;stroke-dasharray:none;stroke-opacity:1;marker-start:url(#marker8536)" />
    <text
       id="text949"
       y="-360.8226"
       x="37.354561"
       style="font-style:normal;font-weight:normal;font-size:19.68028259px;line-height:1.25;font-family:sans-serif;letter-spacing:0px;word-spacing:0px;fill:#ffffff;fill-opacity:1;stroke:none;stroke-width:0.49200705"
       xml:space="preserve"><tspan
         style="font-style:normal;font-variant:normal;font-weight:normal;font-stretch:normal;font-size:22.96032906px;font-family:'Bree Serif';-inkscape-font-specification:'Bree Serif, Normal';font-variant-ligatures:normal;font-variant-caps:normal;font-variant-numeric:normal;font-feature-settings:normal;text-align:start;writing-mode:lr-tb;text-anchor:start;fill:#ffffff;stroke-width:0.49200705"
         y="-360.8226"
         x="37.354561"
         id="tspan947"
         sodipodi:role="line">Knurled surface</tspan></text>
    <path
       style="fill:none;stroke:#ffffff;stroke-width:1.5;stroke-linecap:butt;stroke-linejoin:miter;stroke-miterlimit:4;stroke-dasharray:none;stroke-opacity:1;marker-start:url(#DotM)"
       d="m 257.15903,-389.96091 -56.63906,37.35514 H 29.740076"
       id="path970"
       inkscape:connector-curvature="0" />
    <path
       inkscape:connector-curvature="0"
       id="path939-7"
       d="m 415.77809,-225.93067 59.75517,139.747266 h 241.1951"
       style="fill:none;stroke:#ffffff;stroke-width:1.5;stroke-linecap:butt;stroke-linejoin:miter;stroke-miterlimit:4;stroke-dasharray:none;stroke-opacity:1;marker-start:url(#marker1536-5)" />
    <path
       style="fill:#ffffff;fill-opacity:1;stroke-width:0.54035538"
       d="m 375.74525,-119.00047 c -1.99471,-0.35226 -3.76825,-1.78159 -5.04791,-4.06822 -0.34906,-0.62374 -9.30621,-2.85875 -32.58499,-8.1307 l -32.10363,-7.2705 -5.5586,0.51939 c -5.95451,0.55638 -9.31786,0.37243 -9.88206,-0.54045 -0.19279,-0.3119 -0.56645,-0.53671 -0.83041,-0.49958 -0.61706,0.0868 -26.03317,-17.19619 -27.32978,-18.58425 -0.88744,-0.95008 -0.97846,-2.2398 -0.97846,-13.86455 v -12.81701 l -2.49016,-1.5356 -2.49017,-1.53559 0.32062,-25.66689 c 0.17625,-14.11679 0.47982,-27.18878 0.67439,-29.04888 l 0.35378,-3.38199 20.28054,-13.04568 c 11.15428,-7.17513 20.90751,-13.26409 21.67382,-13.53104 0.76631,-0.26695 16.56055,-3.75589 35.09832,-7.75324 l 33.70501,-7.26787 h 40.39593 40.39591 l 34.62646,7.79157 34.62645,7.79158 18.79649,12.80772 c 10.33806,7.04424 19.24117,13.19786 19.78468,13.67473 0.9369,0.82204 0.97334,2.05936 0.70196,23.84494 -0.15746,12.63787 -0.45349,25.54106 -0.65794,28.67379 l -0.37172,5.69584 -2.59981,1.72036 -2.59984,1.72036 -0.16195,13.20836 c -0.089,7.26458 -0.32822,13.37409 -0.53134,13.57666 -1.25045,1.24711 -1.52194,-1.03346 -1.52194,-12.78533 0,-6.84273 -0.20116,-12.36028 -0.44703,-12.26121 -0.24587,0.099 -6.31627,3.94909 -13.48977,8.55564 l -13.0427,8.3755 -0.0184,12.32497 c -0.0143,9.71277 0.12396,12.24196 0.65631,11.93333 0.37151,-0.21542 6.34575,-4.03053 13.27612,-8.47807 8.13118,-5.21812 12.7864,-7.90069 13.12425,-7.56283 0.33786,0.33785 -4.3233,3.64321 -13.14104,9.31865 -7.51552,4.8373 -13.90776,8.85142 -14.20495,8.92029 -0.2972,0.0688 -1.23134,0.40817 -2.07587,0.75403 -1.16149,0.47567 -3.009,0.47947 -7.58434,0.0163 l -6.04879,-0.61324 -32.94233,7.13994 c -18.11827,3.92698 -32.96135,7.17918 -32.98465,7.22713 -0.90172,1.85807 -3.43993,4.22997 -4.98227,4.65582 -2.2011,0.60775 -2.3926,0.55641 -1.75751,-0.47119 0.24965,-0.40395 1.14828,-0.76165 1.99693,-0.79488 l 1.54305,-0.0605 -0.1544,-12.29309 -0.15439,-12.29308 h -1.86226 -1.86227 l -0.14479,13.10361 -0.1446,13.10362 -27.55812,0.0392 c -15.15697,0.0214 -28.51697,-0.1303 -29.68887,-0.33719 z m 1.32021,-13.48705 v -12.42212 h -1.89124 -1.89124 v 11.77974 c 0,6.97454 0.21608,11.99583 0.52969,12.30944 0.29131,0.29133 1.14238,0.5804 1.89124,0.64238 l 1.36155,0.11274 z m 55.11626,0.006 v -12.42816 h -27.01778 -27.01776 v 12.42816 12.42818 h 27.01776 27.01778 z m 7.01634,-2.02632 c 0.006,-6.57985 -0.19034,-10.40184 -0.53208,-10.40184 -0.34314,0 -0.53734,4.09217 -0.53207,11.21236 0.006,7.43883 0.18462,10.9396 0.53207,10.40185 0.29117,-0.45055 0.52749,-5.4302 0.53208,-11.21237 z m -67.25402,-10.29983 c -0.73408,-0.73408 -0.80244,1.00895 -0.42167,10.75461 l 0.40972,10.48743 0.14705,-10.47996 c 0.0809,-5.76397 0.0204,-10.60691 -0.135,-10.76208 z m -2.98391,9.6244 v -9.72639 h -1.66816 c -0.9175,0 -14.61482,-2.91792 -30.43847,-6.48427 -15.82367,-3.56635 -29.05469,-6.48426 -29.40227,-6.48426 -0.45749,0 -0.63197,2.52396 -0.63197,9.14169 v 9.14167 l 4.99828,1.13569 c 2.74906,0.62464 16.66997,3.7843 30.93536,7.02147 14.26538,3.23717 25.99784,5.90716 26.07214,5.93328 0.0743,0.0261 0.1352,-4.32937 0.1352,-9.67888 z m 105.50974,2.7325 c 16.57158,-3.58323 30.24931,-6.515 30.39499,-6.515 0.14561,0 0.26484,-4.27167 0.26484,-9.49262 0,-8.78641 -0.0702,-9.47192 -0.94562,-9.21427 -3.55801,1.04739 -59.11722,12.76555 -60.51982,12.76441 l -1.75614,-0.002 v 9.78497 9.78499 l 1.21579,-0.29803 c 0.66869,-0.16399 14.77436,-3.22977 31.34596,-6.81303 z m 40.92658,-16.79204 v -10.81741 l -1.21579,0.2828 c -0.66869,0.15562 -2.18844,0.47481 -3.37723,0.70949 l -2.16142,0.4267 -0.14725,9.80439 -0.14704,9.80441 2.03838,0.21269 c 1.12112,0.11702 2.7071,0.25355 3.52438,0.3035 l 1.48597,0.0909 z m 5.81881,-2.03022 0.1452,-12.57747 -2.03634,1.28832 -2.03633,1.28829 -0.14582,11.45751 -0.14602,11.4575 2.03718,-0.16829 2.03718,-0.16828 z m -226.29051,1.0949 -0.006,-11.21237 -1.87699,-1.21582 c -1.03231,-0.66868 -2.00195,-1.21579 -2.15472,-1.21579 -0.15276,0 -0.27775,5.45085 -0.27775,12.11297 0,12.96815 -0.0784,12.61704 2.83686,12.70073 l 1.48599,0.0427 -0.006,-11.21236 z m 6.14535,10.86875 2.50703,-0.34364 v -9.59904 -9.59906 l -2.83688,-0.64142 c -1.56027,-0.35281 -3.26239,-0.75818 -3.78248,-0.90086 -0.8778,-0.2408 -0.94562,0.51838 -0.94562,10.58412 v 10.84351 h 1.27547 c 0.7015,0 2.40363,-0.1546 3.78248,-0.34361 z m 205.54328,-13.81345 c -0.0982,-2.76409 -0.1791,-0.64875 -0.17972,4.70078 -5.5e-4,5.34951 0.0799,7.61103 0.1787,5.02562 0.0988,-2.58544 0.0993,-6.96232 10e-4,-9.7264 z m -201.01222,-0.54037 c -0.0982,-2.76409 -0.17911,-0.64873 -0.17972,4.70078 -5.5e-4,5.34953 0.0798,7.61106 0.1787,5.02562 0.0988,-2.58541 0.0993,-6.9623 10e-4,-9.7264 z m -16.27064,-10.97464 c -0.27026,-0.70426 -25.18624,-17.74967 -25.49462,-17.44127 -0.12213,0.12213 -0.0666,5.67795 0.12335,12.34645 l 0.34529,12.12456 12.47656,8.49234 12.47657,8.49237 0.14602,-11.72171 c 0.0803,-6.44694 0.0474,-11.97866 -0.0731,-12.29274 z m 151.3144,20.13337 c -0.1499,-0.37152 -0.27256,-0.0676 -0.27256,0.67544 0,0.74299 0.12274,1.04694 0.27256,0.67543 0.1499,-0.37149 0.1499,-0.97938 0,-1.35087 z m 3.42263,-6.48427 c -10e-4,-2.74906 -0.16052,-8.46332 -0.35421,-12.69836 l -0.35226,-7.70006 h -38.55135 -38.55138 v 12.41783 12.41785 l 12.02291,0.15623 c 6.6126,0.086 24.12012,0.2122 38.90559,0.28051 l 26.88268,0.12417 -0.002,-4.99827 z m 33.8728,-2.29541 c 17.18312,-3.71431 32.43168,-7.02953 33.88569,-7.36715 l 2.64368,-0.61385 -0.38914,-12.21766 c -0.21403,-6.71972 -0.45294,-12.28146 -0.53091,-12.35942 -0.13418,-0.13438 -64.37403,13.65554 -66.37308,14.24776 -0.86497,0.25623 -0.94562,1.33717 -0.94562,12.67189 0,6.81546 0.10518,12.39177 0.23368,12.39177 0.12846,0 14.2926,-3.03901 31.4757,-6.75334 z m -114.38376,-6.1024 v -12.31536 l -32.01608,-7.18216 c -17.60881,-3.95017 -32.56316,-7.30996 -33.23185,-7.46618 l -1.21579,-0.28402 v 12.44989 12.4499 l 3.91758,0.87722 c 2.15465,0.48247 16.56189,3.75462 32.01605,7.27149 15.45416,3.51684 28.64558,6.42134 29.31427,6.45442 l 1.21582,0.0602 z m 1.48302,-2.13913 c -0.099,-2.60047 -0.18013,-0.47281 -0.18013,4.72812 0,5.20091 0.0811,7.32857 0.18013,4.7281 0.0991,-2.60046 0.0991,-6.85575 0,-9.45622 z m -70.00173,-13.76766 -0.1638,-12.28167 -14.42584,-9.82365 c -7.93423,-5.40299 -16.24957,-11.09671 -18.47852,-12.65267 l -4.05268,-2.82906 0.27017,12.50536 0.27018,12.50536 15.67031,10.70705 c 14.97026,10.22871 21.07386,14.34491 21.07386,14.21191 0,-0.0335 -0.0737,-5.5877 -0.16379,-12.34263 z m 223.6007,11.47115 c 0.74299,-0.58118 1.55063,-1.06207 1.79477,-1.06869 0.24411,-0.006 0.76067,-0.31596 1.1479,-0.68746 0.38724,-0.37151 8.14306,-5.41706 17.23518,-11.21238 l 16.53112,-10.53692 0.0184,-12.31035 0.0184,-12.31034 -1.26895,0.69268 c -0.69798,0.38099 -9.57309,6.04224 -19.7225,12.58054 l -18.45347,11.88781 -5.3e-4,7.88871 c -5.3e-4,8.42995 0.49023,16.16479 1.02441,16.14509 0.17932,-0.006 0.93388,-0.48752 1.67686,-1.06869 z m -39.46036,-16.18532 c 25.07154,-5.43753 35.94558,-8.01517 37.32403,-8.84746 1.06983,-0.64595 10.23213,-6.51768 20.36069,-13.04828 l 18.41554,-11.87382 0.30845,-3.7965 c 0.16971,-2.08805 0.45153,-8.90284 0.62639,-15.14393 l 0.31796,-11.34747 -9.61636,-6.48426 c -5.28899,-3.56635 -14.01306,-9.47644 -19.38683,-13.13355 l -9.77049,-6.64928 -34.67344,-7.80522 -34.67344,-7.80524 h -39.4276 -39.4276 l -34.87481,7.55365 -34.87481,7.55363 -20.4626,13.11496 -20.46259,13.11495 -0.41258,13.09192 c -0.2269,7.20056 -0.57519,13.88705 -0.77395,14.85889 l -0.36138,1.76697 19.40515,13.2396 19.40517,13.23959 34.62859,7.83516 34.62859,7.83515 39.19954,0.20178 39.19952,0.20178 z m -93.73725,-0.0443 c -47.21274,-3.51711 -82.62281,-14.66704 -99.02012,-31.17943 -4.58992,-4.62215 -4.9983,-5.20563 -4.9983,-7.14147 0,-1.76319 0.31823,-2.37039 1.94522,-3.7115 2.13286,-1.75808 5.75215,-3.06494 10.75314,-3.88273 4.3013,-0.70341 62.75241,-0.68378 74.56905,0.0249 20.32197,1.21896 36.61316,4.90585 48.39592,10.95251 5.34377,2.74232 32.3215,20.70598 34.9875,23.29712 1.56654,1.52256 1.71604,4.2298 0.31886,5.77471 -1.39312,1.54042 -5.00368,3.32813 -5.97156,2.95672 -0.43242,-0.16603 -0.65437,-0.0884 -0.49328,0.17237 0.3882,0.62809 -4.99215,1.58133 -12.66496,2.2438 -8.69621,0.75085 -40.02458,1.07382 -47.82147,0.49299 z m 31.17034,-0.87726 10.0965,-0.35289 -1.99116,-1.43675 c -12.40578,-8.95164 -31.50236,-14.24653 -56.56704,-15.68435 -5.05234,-0.28982 -20.85773,-0.52064 -35.12311,-0.51292 -29.21587,0.0163 -28.00322,-0.25886 -17.08707,3.86947 7.26724,2.74834 16.76645,5.61733 23.03099,6.95589 2.67474,0.57151 5.1842,1.1583 5.57659,1.30394 1.49659,0.55554 20.10343,3.47362 26.15003,4.10105 3.48147,0.36129 6.23406,0.81198 6.1169,1.00156 -0.11723,0.18953 0.5602,0.26779 1.50522,0.1738 0.94505,-0.0939 6.09513,0.0417 11.44466,0.30159 13.56384,0.65888 15.43737,0.67838 26.84749,0.27963 z m 25.86801,-2.06602 c 1.94874,-0.39523 4.44112,-1.09379 5.53865,-1.55237 1.97759,-0.82629 1.99548,-0.86207 1.99548,-3.99098 v -3.15725 l -13.22637,-9.02832 c -7.27451,-4.9656 -13.37489,-9.02835 -13.55638,-9.02835 -0.58336,0 -0.008,24.84695 0.57551,24.86744 0.2972,0.0102 1.51299,0.76161 2.70177,1.66926 2.15808,1.64772 2.16936,1.64972 7.29481,1.29473 2.82336,-0.19565 6.72778,-0.67892 8.67653,-1.07416 z m -20.68929,-15.8151 -0.14521,-12.29308 -5.58415,-2.80905 c -10.33212,-5.19746 -23.01126,-8.36033 -40.74875,-10.16497 -4.23647,-0.43103 -9.58714,-0.78849 -11.89041,-0.79437 l -4.18775,-0.0102 v 12.38515 12.38517 l 3.37723,0.29392 c 1.85746,0.16175 5.93039,0.43669 9.05095,0.61116 4.87016,0.2723 13.57145,1.27424 19.18262,2.2089 8.43587,1.40513 19.49456,4.85256 25.66689,8.00133 2.52616,1.28873 4.77995,2.37384 5.00842,2.41136 0.22847,0.0376 0.35007,-5.46366 0.27018,-12.22486 z m 29.97919,10.38894 c 0.14337,-0.75007 0.0502,-1.49389 -0.20717,-1.65295 -0.25734,-0.15909 -0.46788,0.45466 -0.46788,1.36378 0,2.00604 0.32062,2.14338 0.67505,0.28917 z m -94.15655,-24.03291 v -12.42816 h -27.8283 -27.8283 v 11.80524 c 0,11.7085 0.0102,11.81004 1.21579,12.3916 0.82022,0.39557 9.8743,0.59825 27.8283,0.62292 l 26.61251,0.0366 z m -57.27767,-1.35089 v -11.07727 l -2.56669,0.0184 c -7.71245,0.057 -15.94294,3.87452 -14.88726,6.90501 0.43773,1.25662 4.40771,6.0262 6.37643,7.66079 0.89171,0.74037 2.30869,2.01696 3.14885,2.83686 0.84013,0.81996 1.69119,1.49183 1.89124,1.49312 0.19994,0.001 1.4579,0.72969 2.7953,1.61874 1.33737,0.88903 2.61396,1.61749 2.83686,1.61876 0.22289,0.001 0.40527,-4.98249 0.40527,-11.07499 z m 177.14637,21.85495 c -6.58665,-0.90716 -9.67759,-2.50983 -25.03633,-12.98135 -13.98075,-9.53204 -21.86088,-15.97566 -21.08079,-17.2379 0.18748,-0.30336 0.10232,-0.55156 -0.18952,-0.55156 -0.74403,0 -1.90636,-3.72822 -1.76891,-5.67374 0.33453,-4.73503 1.05623,-6.5769 3.81109,-9.7264 2.7488,-3.14253 4.93628,-4.70359 22.02257,-15.71604 17.91638,-11.54745 19.17398,-12.08755 29.08645,-12.4919 8.02736,-0.32744 12.16424,0.4705 19.89806,3.83803 27.86116,12.1316 38.79108,29.58606 28.28757,45.1736 -2.14924,3.1895 -7.97223,9.2232 -8.5541,8.86357 -0.25067,-0.15501 -0.45576,-0.0455 -0.45576,0.24316 0,0.77094 -6.07328,4.92624 -11.34746,7.76386 -5.71823,3.07652 -15.59823,7.13916 -19.18263,7.88787 -4.16436,0.86985 -11.50131,1.1582 -15.49032,0.6088 z m 17.38159,-2.29782 c 6.85941,-2.28456 19.01468,-8.28613 24.40759,-12.05105 3.3083,-2.30962 10.72119,-9.36965 10.70384,-10.19433 -0.0204,-0.94874 -5.14743,-5.94543 -9.00353,-8.77393 -4.88988,-3.58677 -10.22493,-6.63021 -16.42513,-9.36996 -7.49554,-3.3121 -9.3451,-3.79169 -15.92484,-4.12926 -6.36392,-0.32652 -13.36672,0.67056 -16.65605,2.37154 -2.58817,1.3384 -30.22154,19.11527 -31.30383,20.13813 -0.93099,0.87988 -0.32135,1.36848 12.96853,10.39378 15.85282,10.7658 15.52683,10.5711 19.88936,11.87837 2.65749,0.79633 4.65507,0.93321 11.07729,0.75906 4.98024,-0.13499 8.72116,-0.50757 10.26677,-1.02235 z m -55.11626,-35.2936 c 0,-7.52185 -0.19973,-12.09184 -0.52862,-12.09184 -1.10419,0 -6.474,6.00693 -7.58625,8.48632 -2.11162,4.70723 -0.74294,9.64253 3.95718,14.26906 4.06991,4.00624 4.15769,3.78112 4.15769,-10.66354 z m 94.06974,6.35039 c 2.44813,-7.23866 0.56676,-14.93976 -5.28358,-21.6276 -3.88709,-4.44353 -15.24156,-12.40709 -20.83063,-14.60976 -0.67191,-0.2648 -2.61981,-1.10778 -4.32869,-1.87327 l -3.10704,-1.39182 0.006,12.28627 0.006,12.28626 8.01175,3.9049 c 8.78331,4.28092 15.51132,8.76217 20.03142,13.342 3.41254,3.45764 3.56187,3.39465 5.49355,-2.31698 z m -77.84692,-4.66315 13.58951,-8.6457 -0.33231,-11.85851 c -0.18278,-6.52219 -0.43347,-11.9597 -0.55715,-12.08338 -0.12376,-0.12376 -6.46013,3.7537 -14.08101,8.61639 l -13.85617,8.84123 0.31549,6.75446 c 0.1736,3.71494 0.31648,9.14551 0.31768,12.06792 10e-4,3.06971 0.21593,5.23745 0.50831,5.13338 0.27838,-0.0991 6.6214,-4.07067 14.09565,-8.82579 z m 19.17045,-10.90482 c 5.49618,-1.53854 19.05794,-1.43052 23.26875,0.18523 0.6077,0.23319 0.76512,-1.91246 0.89254,-12.16568 l 0.1546,-12.44881 -2.34036,-0.58881 c -7.43152,-1.86976 -17.69843,-1.63089 -23.51983,0.54717 l -3.04881,1.14072 v 12.44715 c 0,11.64809 0.0607,12.42124 0.94562,12.04321 0.52009,-0.22218 2.16142,-0.74429 3.64738,-1.16026 z m -72.94799,16.20417 c -0.89158,-0.11682 -1.9858,-0.35258 -2.43159,-0.52389 -0.44579,-0.17135 -1.41843,-0.37239 -2.16141,-0.44691 -0.74301,-0.0745 -2.48661,-0.6711 -3.87469,-1.32573 -2.98779,-1.4091 -4.23064,-3.56602 -4.23064,-7.34205 v -2.5548 l -3.37723,0.37329 c -1.85746,0.20531 -4.1067,0.47714 -4.9983,0.60407 -8.62358,1.22766 -21.88438,1.7023 -21.88438,0.78329 0,-0.29721 0.42553,-0.54149 0.94562,-0.54288 3.14784,-0.008 19.4358,-1.17954 22.83002,-1.64159 6.97658,-0.9497 6.3023,-0.27932 6.60505,-6.56683 l 0.26605,-5.52503 2.22533,-1.97481 2.22534,-1.97481 -3.90473,0.22608 c -29.63767,1.7161 -57.6143,7.35722 -77.04334,15.53479 -1.80902,0.76141 -3.84355,1.37362 -4.5212,1.36047 -1.84944,-0.0357 1.80197,-1.82972 9.45586,-4.64555 16.31774,-6.00318 37.27384,-10.31445 59.82844,-12.30842 5.20091,-0.4598 12.73888,-1.13476 16.75101,-1.49992 4.01214,-0.36518 9.60482,-0.65263 12.42819,-0.63883 4.40985,0.0216 21.07488,1.10764 22.08038,1.43896 0.18932,0.0625 2.9469,-1.54636 6.12778,-3.57505 l 5.78342,-3.68853 0.16052,-8.52562 0.16052,-8.52559 -9.18605,-0.60771 c -26.46854,-1.75099 -49.8534,-0.89274 -72.40761,2.65747 -33.83281,5.32555 -59.84056,15.51908 -72.45428,28.3979 -3.35879,3.42937 -3.79962,4.11092 -3.58863,5.5484 0.13234,0.90133 0.51803,1.86386 0.85719,2.13893 1.85254,1.50254 4.89753,2.71937 8.34777,3.33598 2.1376,0.38201 3.89025,0.95957 3.89481,1.28345 0.006,0.38114 0.14827,0.39827 0.40527,0.0486 0.55244,-0.75191 61.18698,-0.42469 61.18698,0.33024 0,0.36898 -10.70523,0.48157 -32.55643,0.34239 -31.45475,-0.20035 -32.67279,-0.24618 -35.99565,-1.35486 -4.35714,-1.45372 -7.83536,-3.69788 -7.41782,-4.786 0.17339,-0.45197 0.0747,-0.6579 -0.22641,-0.47183 -0.7293,0.45074 -0.67414,-1.16077 0.0892,-2.60604 2.95372,-5.5924 14.32845,-14.0606 25.88037,-19.26727 24.86102,-11.20536 55.91176,-17.02721 94.26567,-17.67431 19.01409,-0.32082 37.27691,0.62345 44.56729,2.30431 7.44728,1.71704 10.99004,5.55866 8.44357,9.15587 -0.41499,0.58622 -7.5274,5.41864 -15.80539,10.73872 l -15.05089,9.67285 0.19096,8.84529 c 0.19034,8.82415 0.18748,8.84968 -1.21286,10.68562 -0.93375,1.22423 -2.42344,2.22189 -4.44965,2.97998 -1.67529,0.6268 -3.17398,1.01163 -3.33046,0.85515 -0.15644,-0.15644 -0.55003,-0.0729 -0.87457,0.18564 -0.88199,0.70257 -7.88487,1.33011 -7.88487,0.70657 0,-0.28661 1.39817,-0.67853 3.10706,-0.87093 4.10834,-0.46256 9.79877,-2.27133 11.48254,-3.64987 1.28886,-1.05523 1.36329,-1.43678 1.62106,-8.31126 0.26922,-7.17954 0.26632,-7.20174 -0.81054,-6.22387 -0.59439,0.53975 -1.41849,0.85919 -1.83136,0.70988 -0.41287,-0.1493 -0.60286,-0.0325 -0.4222,0.25992 0.43355,0.70152 -1.44288,1.5193 -5.06855,2.20892 -3.41973,0.65044 -3.72904,0.6774 -8.21309,0.71629 -7.04593,0.0611 -11.43115,-0.8461 -14.65056,-3.03084 l -1.96537,-1.33374 v 5.89245 c 0,3.24085 0.23709,6.51607 0.52689,7.27825 0.95473,2.51112 5.90333,4.65979 12.57672,5.46077 1.70888,0.20511 3.10705,0.58806 3.10705,0.851 0,0.47553 -1.498,0.50935 -4.59302,0.10375 z m 6.48427,-16.32683 c 2.08037,-0.0952 4.45119,-0.20613 5.26847,-0.24653 0.81728,-0.0404 1.48599,-0.20279 1.48599,-0.36077 0,-0.15807 1.06411,-0.60149 2.36468,-0.9855 1.30059,-0.38401 3.18509,-1.38429 4.18777,-2.22283 1.7366,-1.45231 1.79183,-1.60789 1.16466,-3.2814 -0.36214,-0.96627 -0.5552,-1.92384 -0.42904,-2.12795 0.12621,-0.20422 -0.10151,-0.37112 -0.5059,-0.37112 -0.40437,0 -0.61062,0.32476 -0.45829,0.72168 0.5379,1.40177 -0.4153,3.41156 -2.00887,4.23563 -0.88728,0.45884 -1.61325,0.67665 -1.61325,0.48402 0,-0.19259 -0.31388,-0.0897 -0.69752,0.22869 -0.38367,0.3184 -1.53866,0.77371 -2.56671,1.0118 -2.56258,0.59346 -14.58666,0.54753 -15.91839,-0.0609 -1.30372,-0.59556 -1.66232,-0.702 -2.66031,-0.78966 -1.48076,-0.13009 -4.19136,-2.87944 -3.90783,-3.96373 0.15991,-0.61173 0.0245,-0.94719 -0.33445,-0.82758 -0.33189,0.1107 -0.7874,0.88895 -1.01222,1.72958 -0.34367,1.28507 -0.14561,1.77411 1.24349,3.07182 0.90874,0.8489 1.88403,1.54344 2.16734,1.54344 0.2833,0 0.39126,0.20035 0.23991,0.44528 -0.15134,0.24491 0.13826,0.42772 0.64354,0.40625 1.98431,-0.0843 8.75439,1.51653 8.76219,2.07186 0.006,0.40252 0.13398,0.4104 0.40526,0.0249 0.21836,-0.3102 2.09912,-0.64189 4.17948,-0.73706 z m 7.29481,-4.35042 c 1.33737,-0.36755 2.69712,-0.88554 3.02166,-1.1511 0.32454,-0.26556 0.72573,-0.34719 0.89152,-0.18135 0.16584,0.16583 0.48495,0.004 0.70921,-0.35836 0.27718,-0.44847 0.16461,-0.53369 -0.35115,-0.26605 -0.41743,0.21656 -0.28752,0.0122 0.28868,-0.45592 1.02555,-0.83178 1.01607,-0.8826 -0.45023,-2.41309 -3.71067,-3.87312 -18.44658,-4.66571 -24.14638,-1.29875 -1.68436,0.99498 -2.9191,3.17566 -2.08869,3.68886 0.29082,0.17972 0.38518,0.5592 0.20962,0.84322 -0.17543,0.28402 -0.11866,0.46013 0.12621,0.39135 0.245,-0.0688 1.77743,0.32784 3.40538,0.88143 5.33962,1.81573 12.4883,1.94009 18.3841,0.3198 z m -13.77908,-0.78775 c -2.51369,-0.5928 -2.71391,-0.76239 -2.87621,-2.43613 -0.096,-0.98944 0.0286,-2.00209 0.27689,-2.25033 0.24826,-0.24824 2.16885,-0.74587 4.26799,-1.10582 4.89335,-0.83914 10.3349,0.10702 11.00794,1.91383 0.77562,2.08225 -0.14705,3.18689 -3.27142,3.91627 -3.51098,0.81965 -5.80821,0.81042 -9.40519,-0.0378 z m 8.90669,-1.12371 c 1.34748,-0.29595 2.71097,-1.59268 2.71097,-2.57821 0,-0.28651 -0.60503,-0.36708 -5.55263,-0.73943 -4.86594,-0.36622 -7.4159,0.36288 -7.4159,2.12035 0,0.60786 0.13316,0.97215 0.29568,0.80952 0.16257,-0.16257 1.305,0.002 2.53857,0.36653 2.26994,0.67024 4.44014,0.67645 7.42331,0.0212 z m 15.07325,-4.18095 1.95294,-1.20698 -2.15934,-0.38294 c -1.18763,-0.21063 -3.10732,-0.39696 -4.26599,-0.4141 l -2.10666,-0.0312 2.10666,1.58406 c 1.15867,0.87124 2.19955,1.60073 2.31308,1.62107 0.11355,0.0204 1.08521,-0.50612 2.15931,-1.16999 z m 22.93974,-14.72018 c 5.18498,-3.37975 6.84379,-5.24497 5.94728,-6.68725 -1.32322,-2.12876 -5.15633,-3.94054 -10.04379,-4.74734 l -2.02632,-0.33451 v 7.69185 c 0,6.08706 0.14644,7.63565 0.70206,7.42245 0.38614,-0.14827 2.82549,-1.65352 5.42077,-3.3452 z m 108.26129,41.22254 c -0.17257,-0.43106 -0.30054,-0.30301 -0.32646,0.32646 -0.0235,0.56964 0.10416,0.88879 0.2838,0.70923 0.17951,-0.17952 0.19871,-0.64563 0.0427,-1.03569 z m -156.53184,-124.16728 -39.71613,-0.33453 -32.98461,-7.56551 -32.98463,-7.56552 -18.8895,-12.84912 c -10.38922,-7.06701 -19.32415,-13.35479 -19.85537,-13.97286 -0.85053,-0.98959 -0.95446,-2.16199 -0.87046,-9.81967 0.0525,-4.78278 0.36551,-15.50085 0.69568,-23.81794 l 0.60029,-15.12203 2.56669,-1.89818 2.56669,-1.89816 v -12.73334 -12.73337 l 1.48599,-1.36369 c 0.81728,-0.75005 7.68654,-5.33979 15.26502,-10.19946 15.44601,-9.90467 15.29625,-9.84983 23.77564,-8.70672 4.03889,0.54447 4.16478,0.5224 37.01436,-6.49554 l 32.96167,-7.04189 2.26569,-2.51514 2.26572,-2.51518 h 31.43033 31.43034 l 1.56215,1.87084 c 0.85919,1.02894 1.56351,2.12316 1.56519,2.43159 0.002,0.30842 14.59125,3.83186 32.42132,7.82989 20.65336,4.63107 32.41831,7.50271 32.41831,7.9128 0,0.47753 -0.59282,0.51125 -2.29651,0.1305 -37.534,-8.38625 -60.28374,-13.5411 -60.92508,-13.80497 -0.89687,-0.369 -1.41216,-0.52811 -2.03855,-0.62945 -0.22961,-0.0372 -0.86889,-0.90576 -1.4206,-1.93023 -0.596,-1.10669 -1.66548,-2.09359 -2.63512,-2.43161 -1.0647,-0.37114 -11.782,-0.5689 -30.83298,-0.5689 h -29.201 l -2.46425,2.61634 -2.46424,2.61631 -32.96168,7.11256 c -24.16686,5.21475 -33.61049,7.0472 -35.39328,6.86764 -1.33739,-0.13479 -4.37689,-0.4037 -6.75444,-0.5978 l -4.32285,-0.35291 -9.45623,6.06531 c -5.20091,3.33592 -11.94861,7.66132 -14.99486,9.61199 -5.40163,3.45892 -6.54294,4.66052 -4.56803,4.80929 0.53385,0.0402 2.37947,0.69617 4.10142,1.4577 l 3.13079,1.38459 -0.38709,11.49073 c -0.21291,6.3199 -0.5388,13.04148 -0.7242,14.93687 l -0.33708,3.44613 -3.95538,1.44907 c -2.17547,0.797 -3.99917,1.6557 -4.05268,1.90823 -0.15194,0.71735 27.03081,19.07881 28.82974,19.47393 2.25849,0.49604 2.0227,1.51416 -0.28819,1.24437 l -1.89124,-0.22079 v 5.20961 c 0,2.86529 0.15746,8.49092 0.3497,12.5014 l 0.34973,7.29178 1.51023,0.57007 c 0.83062,0.31351 1.6459,0.43437 1.81171,0.26856 0.16584,-0.16583 0.30148,-6.202 0.30148,-13.41373 0,-15.07535 -0.74866,-13.4588 6.48427,-14.00132 4.49097,-0.33685 5.28936,-0.18768 35.93363,6.71201 17.23734,3.88108 31.90304,7.19022 32.59045,7.35366 0.73721,0.17523 1.93386,1.39756 2.91763,2.98009 0.9173,1.47561 1.76738,2.68295 1.8891,2.68295 0.12172,0 0.10804,-0.18237 -0.0302,-0.40527 -0.13826,-0.22289 6.8382,-0.2521 15.50334,-0.0649 26.12771,0.56453 43.26859,0.52354 45.07961,-0.10784 0.91176,-0.31784 2.22465,-1.41116 2.91749,-2.42958 0.69285,-1.01843 1.98921,-2.08361 2.8808,-2.36706 0.89158,-0.28345 15.84593,-3.58944 33.23186,-7.34662 l 31.61079,-6.83127 5.13337,0.3786 c 2.82336,0.20823 5.25495,0.55902 5.40355,0.77948 0.76334,1.13261 6.10146,-1.65574 19.09509,-9.97431 7.89173,-5.05231 14.36174,-9.35311 14.37779,-9.55732 0.0163,-0.20423 -1.78882,-1.04734 -4.01079,-1.87365 -2.22197,-0.82631 -4.12448,-1.75347 -4.22782,-2.06033 -0.47518,-1.41113 0.86317,-28.70103 1.43734,-29.30826 0.33898,-0.35853 2.19689,-1.24492 4.12865,-1.96979 1.93178,-0.72485 3.51233,-1.57117 3.51233,-1.88068 0,-0.55246 -25.32225,-18.07505 -27.6812,-19.15495 -0.82633,-0.37827 -3.10128,-0.35789 -7.25527,0.0649 -5.92909,0.60366 -7.39486,0.49476 -5.88671,-0.43734 1.00928,-0.62376 11.51289,-1.31485 13.27236,-0.87324 1.45458,0.36508 28.87365,18.87366 29.56886,19.95975 0.21836,0.3411 0.40072,6.34335 0.40527,13.33831 l 0.008,12.71808 2.56669,1.91622 2.56669,1.91622 0.17237,5.35882 c 0.20688,6.43276 -1.02824,42.66769 -1.47746,43.34489 -0.42304,0.63771 -39.93721,26.0393 -40.74771,26.19456 -0.3494,0.067 -0.75683,0.26752 -0.90543,0.44573 -0.43546,0.52225 -68.6253,15.1424 -71.31268,15.28969 -1.34524,0.0737 -20.3181,-0.0163 -42.16196,-0.20055 z m 42.14772,-9.19919 v -8.10533 H 404.35342 365.718 v 8.10533 8.10534 h 38.63542 38.63541 z m -79.97261,-0.47374 v -8.03872 l -4.99828,-1.13923 c -2.74906,-0.62655 -13.75205,-3.10476 -24.45109,-5.50713 -10.69904,-2.40234 -23.46493,-5.27721 -28.36865,-6.38858 l -8.91588,-2.02066 0.16257,8.13662 0.16257,8.13664 32.52903,7.36837 c 17.89096,4.05261 32.83297,7.39606 33.20446,7.42988 0.51284,0.0468 0.67545,-1.87365 0.67545,-7.97719 z m 116.85152,0.90608 33.36658,-7.18677 3.7e-4,-7.97026 c 1.8e-4,-4.38363 -0.18197,-7.98145 -0.40493,-7.99515 -0.22289,-0.0143 -15.41984,3.20817 -33.77101,7.15971 l -33.36576,7.18463 -0.001,7.97023 c -5.4e-4,4.38363 0.18115,7.98243 0.40406,7.99732 0.2229,0.0143 15.42024,-3.20697 33.77185,-7.15971 z m 56.52015,-21.77639 18.45348,-11.88781 5.3e-4,-7.95592 4.9e-4,-7.95592 -6.04613,3.90326 c -3.32536,2.14677 -12.13992,7.82354 -19.58788,12.61499 l -13.54176,8.71175 -0.1497,7.92908 -0.1497,7.92908 1.28354,-0.70034 c 0.70596,-0.38519 9.58763,-6.04987 19.73706,-12.58817 z m -241.40489,0.54037 0.30575,3.24213 -0.004,-3.51231 c -0.002,-2.61345 0.1936,-3.55023 0.76696,-3.66051 0.42377,-0.0815 15.91688,3.26194 34.42914,7.4299 25.87655,5.82592 34.53554,7.57808 37.45042,7.57808 h 3.79153 l -0.97618,-1.6843 c -0.53689,-0.92634 -1.4625,-1.8978 -2.05689,-2.15878 -0.59439,-0.26098 -15.18398,-3.65067 -32.42132,-7.53265 -30.63537,-6.89934 -31.44397,-7.05045 -35.93364,-6.71492 -2.52616,0.1887 -5.17334,0.48055 -5.88262,0.64836 l -1.28959,0.3051 1.22801,0.9263 c 0.7815,0.58949 1.01295,1.05921 0.63656,1.29183 -0.5401,0.33381 -5.95786,-3.21207 -29.68037,-19.42553 l -8.24043,-5.63202 0.0264,7.96539 0.0263,7.9654 18.48079,12.52696 18.48079,12.52699 0.27816,-7.66379 c 0.21632,-5.95982 0.34615,-6.94292 0.58391,-4.42163 z m 136.118,-1.08072 v -12.69836 h -26.74758 -26.74761 v 12.41411 12.41409 l 8.24043,0.16441 c 4.53223,0.0905 16.56866,0.21828 26.74759,0.28424 l 18.50717,0.11989 z m -55.11625,-0.17952 v -12.3375 l -1.75615,-0.53949 -1.75616,-0.53947 0.15501,12.45215 c 0.15991,12.84639 0.23762,13.27453 2.41168,13.29357 0.87322,0.008 0.94562,-0.93633 0.94562,-12.32926 z m 60.09474,-0.27981 c -0.10048,-8.05485 0.0419,-12.6123 0.40527,-12.97572 0.38665,-0.38663 0.56549,3.1139 0.57733,11.30065 0.0143,10.54707 0.10518,11.74463 0.81055,10.8119 0.89227,-1.17969 1.02827,-6.57006 0.44125,-17.48763 l -0.35209,-6.54821 -1.58061,1.33 c -0.86934,0.73149 -2.10907,1.32978 -2.75496,1.32953 l -1.17434,-4.5e-4 0.1546,12.44424 0.15461,12.44425 1.7367,-0.11641 1.7367,-0.11661 z m 19.33671,10.44144 c 5.44966,-1.19674 10.53637,-2.25899 11.3038,-2.36056 0.76745,-0.1015 1.76008,-0.32535 2.2059,-0.49731 0.44579,-0.17196 10.65849,-2.40611 22.69492,-4.96477 12.03641,-2.55868 22.41734,-4.94233 23.06875,-5.29704 1.15185,-0.62721 1.65848,-1.68791 0.84198,-1.76278 -0.2229,-0.0204 -2.71529,-0.21615 -5.53865,-0.43488 l -5.13337,-0.39774 -29.98974,6.51014 c -16.49433,3.58058 -31.13205,6.77621 -32.52822,7.10139 -1.86906,0.43531 -2.90944,1.07755 -3.94509,2.43532 l -1.40656,1.84413 h 4.25893 c 2.97279,0 7.2511,-0.65709 14.16735,-2.1759 z m -84.26759,-24.73581 c -0.63991,-1.09728 -0.79888,21.93512 -0.16216,23.49028 0.2229,0.54439 0.47083,-4.31196 0.55097,-10.79192 0.0874,-7.07246 -0.068,-12.14812 -0.38883,-12.69836 z m -3.07062,9.21505 c -0.18524,-6.7612 -0.48801,-12.43296 -0.67292,-12.60392 -0.18482,-0.17094 -13.70998,-3.28892 -30.05572,-6.92879 -16.34576,-3.63986 -30.14509,-6.73826 -30.66518,-6.88529 -0.88096,-0.24905 -0.94562,0.58414 -0.94562,12.18697 v 12.45428 l 1.23129,0.30904 c 3.35121,0.8411 60.19047,13.66167 60.77195,13.70762 0.52789,0.0417 0.60033,-2.5963 0.3362,-12.23991 z m 103.96493,5.78709 c 16.56316,-3.57829 30.54036,-6.63417 31.06045,-6.79085 0.86482,-0.26051 0.94562,-1.3437 0.94562,-12.67663 0,-6.81546 -0.0872,-12.39174 -0.19361,-12.39174 -0.10661,0 -14.22003,3.03949 -31.36332,6.75444 -17.14332,3.71494 -31.28104,6.75444 -31.41714,6.75444 -0.13601,0 -0.24746,5.59268 -0.24746,12.42818 0,8.07553 0.19279,12.42816 0.55036,12.42816 0.30266,0 14.102,-2.92768 30.66516,-6.506 z m 47.17155,-6.48155 c 0.98675,-0.52809 1.04518,-1.25298 1.04518,-12.96853 0,-7.91254 0.19585,-12.40914 0.54035,-12.40914 0.34388,0 0.54037,4.32283 0.54037,11.88781 0,6.5383 0.14194,11.88781 0.31563,11.88781 0.1736,0 6.25263,-3.81418 13.5089,-8.47592 l 13.19322,-8.47595 v -12.33452 -12.33452 l -2.02631,1.27963 c -1.1145,0.7038 -6.61973,4.24392 -12.2339,7.86694 -12.73349,8.21737 -14.56466,9.23906 -16.5592,9.23906 h -1.60191 v 12.69836 c 0,12.47283 0.0204,12.69836 1.11625,12.69836 0.61391,0 1.58655,-0.25174 2.16142,-0.55939 z m -4.35837,-12.33846 v -12.35746 l -2.02634,-0.33493 c -1.11447,-0.18422 -2.8166,-0.33761 -3.78248,-0.34088 l -1.75616,-0.006 v 12.39059 12.3906 l 1.21579,0.23417 c 0.66871,0.12887 2.37081,0.26729 3.7825,0.30775 l 2.56669,0.0735 z m -213.50794,11.4794 1.6886,-0.33772 v -8.22644 c 0,-4.52454 -0.15725,-10.08682 -0.34945,-12.36062 -0.38967,-4.60969 -0.35726,-4.58604 -5.18919,-3.78736 l -2.02632,0.33491 v 12.35748 12.35748 h 2.09388 c 1.15162,0 2.85375,-0.15195 3.78248,-0.33773 z m 2.91481,-25.13052 c -0.22861,-0.22911 -0.29445,5.34675 -0.14622,12.39076 l 0.26933,12.80732 0.14623,-12.39077 c 0.0805,-6.81491 -0.0406,-12.57821 -0.26934,-12.80731 z m -17.385,-1.4592 c -0.88516,-0.69329 -6.60847,-4.65564 -12.71845,-8.80516 l -11.10905,-7.54464 0.0225,12.31749 0.0225,12.31749 12.54088,8.51025 12.5409,8.51028 0.15521,-12.02258 0.15521,-12.02257 -1.60938,-1.26056 z m 218.79208,6.93431 c 0,-2.97196 -0.18237,-5.4041 -0.40527,-5.40474 -0.22289,-5.3e-4 -0.32832,2.43094 -0.23429,5.40355 0.0939,2.97259 0.27642,5.40473 0.40527,5.40473 0.12887,0 0.23429,-2.43161 0.23429,-5.40354 z m 49.24311,-8.13393 c 0.18748,-3.40202 0.49819,-10.11935 0.69037,-14.92741 l 0.34942,-8.74189 -1.88563,-1.43824 -1.88562,-1.43822 -4.61357,1.74125 c -3.795,1.43234 -4.61355,1.94475 -4.61355,2.88808 0,0.90002 0.68837,1.41376 3.19857,2.38711 3.20952,1.24451 5.28299,2.79814 3.75711,2.81515 -0.58139,0.006 -0.56653,0.11886 0.0688,0.51993 0.67161,0.42394 0.84022,2.55758 0.98369,12.44742 l 0.17318,11.93576 1.7181,-1.00172 1.71809,-1.0017 z m -294.2107,-4.74873 c -0.41504,-14.28613 -0.78588,-13.20899 5.40994,-15.71375 5.02296,-2.03063 5.24839,-3.26625 0.89319,-4.89575 -1.7223,-0.64441 -3.38828,-1.38476 -3.70216,-1.64527 -0.34694,-0.28792 -1.46175,0.0578 -2.84341,0.88167 -1.66751,0.99437 -2.27274,1.70246 -2.27274,2.65888 0,0.71697 -0.26434,7.44473 -0.58741,14.95057 l -0.5874,13.64698 1.53302,1.22678 c 0.84316,0.67473 1.75408,1.22799 2.02428,1.22948 0.2909,0.002 0.34502,-5.03071 0.13275,-12.33959 z m 1.12685,3.85139 c -0.10763,-1.71971 -0.19647,-0.452 -0.1977,2.81715 -0.001,3.26916 0.0868,4.67619 0.19566,3.12677 0.10885,-1.54943 0.10987,-4.22419 0.002,-5.94392 z m 288.01156,-10.55665 c -0.10008,-2.45187 -0.18197,-0.44579 -0.18197,4.45793 0,4.90374 0.0819,6.9098 0.18197,4.45793 0.10007,-2.45185 0.10007,-6.46399 0,-8.91586 z m 6.99171,3.81626 c -0.17257,-0.43106 -0.30052,-0.30301 -0.32646,0.32646 -0.0235,0.56964 0.10416,0.88879 0.28382,0.70923 0.17951,-0.17952 0.19871,-0.64563 0.0427,-1.03569 z m -7.93409,-31.35586 c 0,-6.77137 -0.18237,-12.31141 -0.40527,-12.31118 -0.22289,2.4e-4 -1.49949,0.42577 -2.83686,0.94562 l -2.43161,0.94519 0.30653,12.15799 c 0.16849,6.6869 0.35095,12.20714 0.40527,12.26723 0.0543,0.06 1.19296,-0.29634 2.53033,-0.792 l 2.43161,-0.90122 z m -278.72666,8.08681 c 0.0954,-2.74907 0.0882,-8.24276 -0.0163,-12.20823 l -0.18932,-7.20993 -1.81966,-0.76033 c -1.00082,-0.41815 -2.07063,-0.76028 -2.37736,-0.76028 -0.3669,0 -0.55773,4.16882 -0.55773,12.18407 v 12.18409 l 1.75616,0.7633 c 2.95844,1.28585 3.01632,1.2101 3.20378,-4.19269 z m 272.07115,3.27591 c -0.17257,-0.43107 -0.30052,-0.30304 -0.32646,0.32646 -0.0235,0.56961 0.10436,0.88876 0.28382,0.7092 0.17952,-0.17951 0.19871,-0.64561 0.0427,-1.03566 z m 8.6801,-18.67605 c -0.0942,-3.49205 -0.17115,-0.63491 -0.17115,6.34918 0,6.9841 0.077,9.84122 0.17115,6.34917 0.0942,-3.49205 0.0942,-9.20631 0,-12.69835 z m -286.93162,8.93705 c -0.10579,-1.86912 -0.1932,-0.48049 -0.19443,3.08586 -0.001,3.56634 0.0856,5.09563 0.19239,3.3984 0.10681,-1.69722 0.10783,-4.61514 0.002,-6.48426 z m 278.79189,-4.31025 c -0.17257,-0.43107 -0.30054,-0.30301 -0.32646,0.32646 -0.0235,0.56963 0.10416,0.88878 0.2838,0.70923 0.17952,-0.17952 0.19871,-0.64563 0.0427,-1.03569 z m -179.22676,41.4113 c -21.54668,-4.87568 -39.23657,-8.87023 -39.31087,-8.87677 -0.0743,-0.006 -0.1352,-1.91291 -0.1352,-4.23638 v -4.22451 l -9.05095,-2.0464 c -4.97802,-1.12552 -9.19019,-2.2032 -9.36038,-2.39485 -0.45406,-0.51132 1.01727,-35.86229 1.51119,-36.30912 0.23062,-0.20862 18.72291,-4.32933 41.09399,-9.15711 l 40.67466,-8.7778 9.35934,2.12482 9.35934,2.12479 9.62048,-2.07666 9.62053,-2.07666 40.04106,8.99218 c 22.02259,4.94569 40.19881,9.14782 40.39162,9.33808 0.3371,0.33262 -0.89889,36.24732 -1.25637,36.50723 -0.0962,0.0698 -4.28117,1.01275 -9.29993,2.09518 -5.01878,1.08243 -9.20727,2.05027 -9.30775,2.15075 -0.10048,0.10048 -0.34594,1.93903 -0.54546,4.08568 -0.19953,2.14665 -0.55531,4.022 -0.79071,4.16748 -0.9218,0.56971 -80.19898,17.53077 -81.76842,17.49405 -0.91879,-0.0214 -19.29962,-4.02829 -40.8463,-8.90398 z m 81.16551,-0.80399 c 22.02429,-4.76648 40.24903,-8.79297 40.49946,-8.94774 0.25044,-0.1548 0.45535,-1.95483 0.45535,-4.00012 0,-2.23241 0.24985,-3.87312 0.6251,-4.10507 0.34382,-0.21248 4.65991,-1.26205 9.59132,-2.33235 l 8.9662,-1.94604 0.66135,-17.25645 c 0.36376,-9.49105 0.60691,-17.30182 0.54035,-17.35727 -0.32386,-0.26983 -78.07982,-17.62419 -79.03459,-17.63975 -0.60634,-0.0102 -5.22638,0.8735 -10.26677,1.96309 l -9.16432,1.98104 -9.30638,-2.13377 -9.30638,-2.13376 -40.13615,8.66945 c -22.07487,4.7682 -40.23776,8.75817 -40.36197,8.86662 -0.20946,0.18299 -1.67925,34.43312 -1.48352,34.57022 0.0486,0.0339 4.10043,0.96137 9.00414,2.06081 4.90374,1.09943 9.11929,2.19902 9.3679,2.44352 0.24859,0.24452 0.37018,2.17179 0.27017,4.28286 l -0.18176,3.8383 3.78248,0.84726 c 2.08038,0.46599 19.70947,4.45687 39.17577,8.86864 19.46631,4.41177 35.58789,8.04512 35.82576,8.07412 0.23784,0.029 18.45231,-3.84712 40.47658,-8.61361 z m -74.41918,-1.9655 c -19.01606,-4.26699 -35.12477,-8.03998 -35.79713,-8.38443 -1.04218,-0.53392 -1.17199,-0.91117 -0.88008,-2.55774 0.1883,-1.0623 0.49527,-2.09649 0.68212,-2.29823 0.18687,-0.20178 11.95021,2.24927 26.14078,5.4467 l 25.80105,5.81348 9.55643,-2.08882 9.55646,-2.08883 9.38062,2.13769 9.38062,2.13766 26.03576,-5.64147 c 14.31965,-3.10283 26.3454,-5.52266 26.72388,-5.37743 0.76451,0.29337 0.96453,4.38624 0.23635,4.83628 -0.24848,0.15358 -15.74994,3.5882 -34.44766,7.63252 -18.69772,4.0443 -34.85057,7.54172 -35.8952,7.77203 -1.50627,0.33206 -9.05467,-1.18685 -36.474,-7.33941 z m 68.92402,-0.9879 c 18.56338,-4.01328 34.4203,-7.43685 35.23758,-7.60789 1.12614,-0.2357 1.48599,-0.62776 1.48599,-1.61898 0,-0.71938 -0.18238,-1.31135 -0.40527,-1.3155 -0.2229,-0.004 -11.87738,2.46933 -25.89881,5.49659 l -25.49356,5.50413 -8.81901,-1.99078 c -4.85047,-1.09495 -9.30534,-1.99033 -9.89975,-1.98976 -0.59438,5.3e-4 -5.21441,0.87453 -10.26674,1.94214 l -9.18605,1.94107 -25.32817,-5.7181 c -13.93051,-3.14494 -25.41981,-5.7181 -25.53179,-5.7181 -0.11192,0 -0.20362,0.60327 -0.20362,1.3406 0,0.9784 0.36404,1.43197 1.34744,1.67878 5.65851,1.42018 67.24557,15.2515 68.10882,15.29596 0.60573,0.0312 16.28954,-3.22686 34.85294,-7.24016 z m -79.45286,-9.81156 c -13.81959,-3.12572 -25.32018,-5.86721 -25.55689,-6.09218 -0.74776,-0.71072 0.39335,-23.28646 1.20232,-23.78643 1.06646,-0.65911 9.28134,-2.21401 9.84773,-1.86396 0.29382,0.18156 0.34482,4.87037 0.1254,11.52553 l -0.36998,11.21939 2.37744,0.5908 c 1.3076,0.32495 12.83334,2.93826 25.61273,5.80739 12.77941,2.86913 23.28286,5.26232 23.34101,5.3182 0.81428,0.78266 -7.11405,3.10511 -10.25274,3.00335 -0.66025,-0.0215 -12.50738,-2.59634 -26.32698,-5.72209 z m 31.34063,3.60325 c 1.77547,-0.48406 3.28613,-0.0937 -22.9651,-5.93499 -12.18503,-2.71138 -22.72938,-5.2167 -23.43189,-5.56736 l -1.27733,-0.6376 0.39114,-10.95306 c 0.32393,-9.07072 0.26485,-10.94975 -0.34376,-10.9338 -0.89873,0.0235 -6.99702,1.46222 -7.20876,1.70068 -0.0837,0.0942 -0.32601,5.05203 -0.53855,11.01735 l -0.38645,10.84604 8.83282,1.99039 c 4.85805,1.09471 16.2492,3.67289 25.31365,5.72931 16.22743,3.68145 17.55449,3.84988 21.61423,2.74304 z m 27.3324,1.15008 c -2.05593,-0.48791 -3.82423,-1.14558 -3.92953,-1.46151 -0.11743,-0.35233 9.78869,-2.72739 25.62245,-6.14314 14.19764,-3.0628 26.01066,-5.748 26.25116,-5.96709 0.24048,-0.21912 0.65002,-5.29315 0.91007,-11.27564 0.26004,-5.9825 0.60511,-11.09132 0.76679,-11.35296 0.30191,-0.48847 9.43493,1.35422 10.19917,2.05781 0.49728,0.45784 -0.35558,23.10243 -0.89025,23.6371 -0.60799,0.60799 -51.28113,11.47839 -53.30058,11.43403 -1.04018,-0.0229 -3.57337,-0.44072 -5.62928,-0.9286 z m 31.96393,-5.6678 c 14.03826,-3.05647 25.61871,-5.662 25.7343,-5.79005 0.1156,-0.12806 0.38228,-5.12125 0.59261,-11.09596 l 0.38242,-10.86312 -3.34143,-0.65739 c -1.83779,-0.36156 -3.64307,-0.77313 -4.01172,-0.9146 -0.51311,-0.19687 -0.75779,2.3757 -1.04345,10.97061 -0.20523,6.17528 -0.54766,11.37636 -0.76096,11.55792 -0.21329,0.18156 -11.54838,2.73127 -25.18907,5.66598 -24.61292,5.29533 -24.78115,5.34062 -22.15456,5.96442 1.45566,0.34572 3.01142,0.64902 3.45721,0.674 0.44579,0.0249 12.29639,-2.45534 26.33465,-5.51181 z m -70.87814,-3.13724 c -14.24566,-3.21197 -26.05346,-6.02629 -26.23953,-6.25404 -0.46829,-0.57321 0.48805,-23.00622 1.00275,-23.52091 0.22898,-0.22898 12.23839,-2.98201 26.68756,-6.1178 l 26.27124,-5.70146 26.10736,5.87728 26.10739,5.87726 -0.19034,11.58578 c -0.12764,7.76639 -0.39485,11.78743 -0.81054,12.19752 -0.52258,0.51554 -9.88251,2.62289 -48.71174,10.96731 l -4.32285,0.92898 z m 51.83828,-1.05862 c 13.96819,-3.01211 25.55934,-5.62806 25.75809,-5.81321 0.19872,-0.18524 0.53063,-5.19985 0.73751,-11.14377 l 0.37613,-10.8071 -25.05351,-5.56523 c -13.77942,-3.06088 -25.58074,-5.55327 -26.22512,-5.53865 -1.30345,0.0296 -51.06027,10.74119 -51.38015,11.06108 -0.24547,0.24544 -1.19019,21.59035 -0.96554,21.81501 0.2528,0.25279 49.07658,11.32332 50.27518,11.39962 0.59438,0.0378 12.50924,-2.39564 26.47741,-5.40775 z m -111.31321,-3.81584 c -2.37757,-0.58201 -4.49414,-1.22476 -4.70349,-1.42833 -0.67604,-0.65737 0.75334,-31.07511 1.4951,-31.81689 0.36601,-0.366 16.64634,-4.12285 36.17852,-8.34855 l 35.51304,-7.68311 4.37499,0.91977 c 4.14601,0.87162 5.78967,1.59776 5.12382,2.26361 -0.16359,0.16358 -11.81909,2.78852 -25.90104,5.83312 l -25.60353,5.53562 -0.3054,3.91049 c -0.16788,2.15076 -0.53272,4.11713 -0.81053,4.3697 -0.27783,0.25257 -4.3342,1.26753 -9.01417,2.25545 -4.67996,0.98793 -8.75269,1.94683 -9.05052,2.1309 -0.30669,0.18952 -0.73864,5.02775 -0.99611,11.15739 -0.25003,5.95249 -0.62931,11.10541 -0.84285,11.45092 -0.45551,0.73705 -0.0208,0.78085 -5.45783,-0.55009 z m 4.82264,-11.38498 c 0.2125,-6.01821 0.59896,-11.15965 0.8588,-11.42544 0.25986,-0.26578 4.55894,-1.37378 9.5535,-2.46224 l 9.08105,-1.97898 0.27018,-3.96635 c 0.18687,-2.74309 0.52015,-4.10794 1.08072,-4.42543 0.44579,-0.25249 11.02325,-2.64721 23.50545,-5.32159 28.67064,-6.14284 25.97102,-5.39413 22.69493,-6.29415 -2.66891,-0.73322 -3.13657,-0.64855 -38.43422,6.959 l -35.73244,7.70126 -0.34057,7.83763 c -0.18728,4.31072 -0.49017,11.15763 -0.67304,15.21539 l -0.33246,7.37777 3.44378,0.81496 c 1.8941,0.44824 3.7125,0.83643 4.0409,0.86268 0.40617,0.0325 0.72062,-3.45102 0.98342,-10.89451 z m 161.46165,12.20204 c -0.49215,-0.1981 -0.61046,-1.21498 -0.41936,-3.60474 0.14643,-1.83087 0.39943,-6.856 0.56228,-11.16697 l 0.2961,-7.83811 -8.52243,-1.8361 c -4.68734,-1.00985 -8.98107,-2.06823 -9.54164,-2.35194 -0.90487,-0.45797 -0.98532,-0.96384 -0.7171,-4.51009 0.16624,-2.19687 0.15746,-3.99429 -0.0184,-3.99429 -0.43505,0 -45.80753,-10.18558 -48.36227,-10.85676 -3.34521,-0.87884 -2.48363,-1.84688 2.59164,-2.91198 l 4.61799,-0.9691 35.21766,7.92075 c 19.36974,4.35642 35.4182,8.12124 35.66324,8.36629 0.50246,0.50247 -0.60875,31.49584 -1.14801,32.0202 -0.38665,0.37593 -7.96685,2.11843 -8.92403,2.0514 -0.33503,-0.0235 -0.91764,-0.16686 -1.29468,-0.31856 z m 5.69838,-1.81959 3.23106,-0.63569 0.32691,-5.75145 c 0.17972,-3.1633 0.4837,-10.03621 0.67532,-15.27315 l 0.34842,-9.52168 -4.25693,-0.93998 c -2.3413,-0.51699 -18.04502,-4.04257 -34.89713,-7.83461 -30.16211,-6.78705 -30.6891,-6.88459 -33.77222,-6.25087 -2.23724,0.45984 -2.82326,0.74153 -2.05129,0.98598 1.28447,0.40674 46.93168,10.65811 47.45835,10.65811 0.19973,0 0.36311,1.92888 0.36311,4.28641 0,3.62026 0.14705,4.32798 0.94562,4.55373 0.52009,0.14705 4.45644,1.04286 8.74741,1.99078 4.29099,0.94793 8.11904,2.04074 8.50674,2.42845 0.48392,0.48392 0.62576,1.69252 0.45237,3.85445 -0.13887,1.73223 -0.38515,6.64238 -0.54719,10.91148 -0.24908,6.56262 -0.17625,7.71652 0.47191,7.46783 0.42157,-0.16175 2.22046,-0.58018 3.99754,-0.92979 z m -58.7782,-32.71822 c -13.5224,-3.08338 -25.11341,-5.61096 -25.75781,-5.61688 -0.64441,-0.006 -12.43766,2.43083 -26.20724,5.41498 -13.7696,2.98415 -25.59242,5.2871 -26.27295,5.11767 -1.10096,-0.2741 -1.19797,-0.52967 -0.88009,-2.31867 0.19647,-1.10586 0.51015,-2.1615 0.69699,-2.34588 0.42051,-0.41497 51.25942,-11.40307 52.75421,-11.40207 1.24604,8e-4 49.63843,10.83579 51.46885,11.52377 0.83033,0.31211 1.2158,0.90078 1.2158,1.85677 0,1.75059 -0.90882,3.50832 -1.77516,3.43329 -0.36104,-0.0312 -11.72022,-2.57961 -25.2426,-5.66298 z m -50.60713,-1.82828 24.77247,-5.3639 25.06006,5.64548 c 13.78303,3.10501 25.3101,5.64547 25.61568,5.64547 0.30559,0 0.55561,-0.58154 0.55561,-1.2923 0,-0.89207 -0.37656,-1.38418 -1.2158,-1.58892 -0.66868,-0.16318 -12.1656,-2.7541 -25.54872,-5.75772 l -24.3329,-5.46112 -25.92015,5.60984 -25.92013,5.60982 -0.17298,1.45999 c -0.15215,1.28429 -0.0221,1.42372 1.08071,1.15863 0.68948,-0.16563 12.40121,-2.7151 26.02607,-5.66527 z"
       id="path1394"
       inkscape:connector-curvature="0" />
    <path
       inkscape:connector-curvature="0"
       id="path933-8"
       d="m 473.93134,-448.13539 99.40522,-45.45827 h 185.6908"
       style="fill:none;stroke:#ffffff;stroke-width:1.5;stroke-linecap:butt;stroke-linejoin:miter;stroke-miterlimit:4;stroke-dasharray:none;stroke-opacity:1;marker-start:url(#marker964-0)" />
  </g>
</svg>
