<?xml version="1.0" encoding="UTF-8" standalone="no"?>
<!-- Created with Inkscape (http://www.inkscape.org/) -->

<svg
   xmlns:dc="http://purl.org/dc/elements/1.1/"
   xmlns:cc="http://creativecommons.org/ns#"
   xmlns:rdf="http://www.w3.org/1999/02/22-rdf-syntax-ns#"
   xmlns:svg="http://www.w3.org/2000/svg"
   xmlns="http://www.w3.org/2000/svg"
   xmlns:sodipodi="http://sodipodi.sourceforge.net/DTD/sodipodi-0.dtd"
   xmlns:inkscape="http://www.inkscape.org/namespaces/inkscape"
   width="220mm"
   height="220mm"
   viewBox="0 0 220 220"
   version="1.1"
   id="svg829"
   inkscape:version="0.92.5 (2060ec1f9f, 2020-04-08)"
   sodipodi:docname="gear_main.svg">
  <defs
     id="defs823" />
  <sodipodi:namedview
     id="base"
     pagecolor="#ffffff"
     bordercolor="#666666"
     borderopacity="1.0"
     inkscape:pageopacity="0.0"
     inkscape:pageshadow="2"
     inkscape:zoom="0.7"
     inkscape:cx="459.6814"
     inkscape:cy="479.92151"
     inkscape:document-units="mm"
     inkscape:current-layer="layer1"
     showgrid="false"
     inkscape:window-width="1920"
     inkscape:window-height="1017"
     inkscape:window-x="1912"
     inkscape:window-y="-8"
     inkscape:window-maximized="1" />
  <metadata
     id="metadata826">
    <rdf:RDF>
      <cc:Work
         rdf:about="">
        <dc:format>image/svg+xml</dc:format>
        <dc:type
           rdf:resource="http://purl.org/dc/dcmitype/StillImage" />
        <dc:title></dc:title>
      </cc:Work>
    </rdf:RDF>
  </metadata>
  <g
     inkscape:label="Layer 1"
     inkscape:groupmode="layer"
     id="layer1"
     transform="translate(0,-77)">
    <path
       style="fill:#000000;stroke-width:0.26458332"
       d="m 75.557442,286.35723 c -1.08822,-0.49611 -31.21996,-17.82345 -33.0171,-18.98657 -1.17843,-0.7627 -2.03781,-2.0555 -2.0392,-3.06766 -5.3e-4,-0.39611 0.42109,-2.27806 0.93698,-4.18212 0.83929,-3.09771 0.90019,-3.53689 0.57879,-4.17458 -0.75064,-1.4894 -25.40601,-44.11948 -25.69121,-44.42108 -0.16473,-0.17421 -1.82157,-0.72869 -3.68186,-1.23219 -3.7248891,-1.00815 -4.4628591,-1.37955 -5.2310191,-2.63264 -0.50439,-0.8228 -0.51649,-1.3874 -0.45039,-21.01567 l 0.0679,-20.17015 0.92604,-0.91203 c 0.79593,-0.78389 1.42793,-1.04665 4.4979191,-1.87007 1.96453,-0.52692 3.70666,-1.10072 3.87139,-1.27511 0.28534,-0.30207 24.94139,-42.93363 25.69121,-44.42141 0.32139,-0.6377 0.2605,-1.07687 -0.5788,-4.17458 -0.51588,-1.90406 -0.93797,-3.76216 -0.93797,-4.12912 0,-0.84189 0.56191,-1.93388 1.36393,-2.65057 0.87135,-0.77867 33.06594,-19.304464 34.19575,-19.677335 1.66233,-0.548621 2.58972,-0.05812 5.71748,3.024053 l 2.82918,2.787944 h 25.997878 25.99788 l 2.82336,-2.750167 c 3.37285,-3.285407 4.27353,-3.707511 6.14051,-2.87777 1.12979,0.502111 31.10971,17.720165 33.12301,19.023185 1.17843,0.7627 2.03781,2.05549 2.0392,3.06766 5.3e-4,0.39611 -0.4211,2.27806 -0.93698,4.18212 -0.8393,3.09771 -0.90019,3.53688 -0.5788,4.17458 0.75064,1.4894 25.40601,44.11948 25.69121,44.42108 0.16473,0.17421 1.82157,0.72869 3.68187,1.23219 3.72488,1.00815 4.46285,1.37955 5.23101,2.63263 0.50439,0.82281 0.51649,1.3874 0.45039,21.01567 l -0.0679,20.17015 -0.92604,0.91204 c -0.79593,0.78389 -1.42793,1.04665 -4.49792,1.87007 -1.96453,0.52692 -3.70666,1.10072 -3.87139,1.27511 -0.28534,0.30206 -24.94139,42.93363 -25.69121,44.42141 -0.32139,0.63769 -0.2605,1.07687 0.5788,4.17458 0.51588,1.90406 0.93797,3.76216 0.93797,4.12911 0,0.8419 -0.56191,1.93388 -1.36393,2.65058 -0.87136,0.77867 -33.06593,19.30446 -34.19574,19.67734 -1.66234,0.54862 -2.58972,0.0581 -5.71749,-3.02406 l -2.82918,-2.78794 H 110.61589 84.608832 l -2.67488,2.63222 c -2.39985,2.36158 -3.99246,3.46429 -4.97897,3.44739 -0.18658,-0.003 -0.81548,-0.22293 -1.39756,-0.48829 z m 2.86166,-0.59714 c 0.31785,-0.16362 1.78105,-1.47331 3.25154,-2.91042 l 2.67362,-2.61292 h 26.270468 26.27046 l 2.67362,2.61292 c 1.47049,1.43711 2.93369,2.7468 3.25154,2.91042 0.82575,0.42506 2.09105,0.36745 3.07324,-0.13992 2.03132,-1.04933 32.90591,-18.9625 33.3144,-19.32872 0.24919,-0.22341 0.58402,-0.803 0.74409,-1.288 0.24805,-0.75159 0.15184,-1.40639 -0.6515,-4.43407 -0.51839,-1.95375 -0.94252,-3.74375 -0.94252,-3.97778 0,-0.47896 25.47429,-44.75269 26.16998,-45.48282 0.24891,-0.26124 1.93986,-0.8666 3.8214,-1.36806 3.82405,-1.01918 4.55798,-1.4048 5.08801,-2.67334 0.55739,-1.33404 0.55739,-38.85848 0,-40.19251 -0.53003,-1.26854 -1.26396,-1.65416 -5.08801,-2.67334 -1.88154,-0.50146 -3.57249,-1.10682 -3.8214,-1.36807 -0.69569,-0.73013 -26.16998,-45.00385 -26.16998,-45.48281 0,-0.23403 0.42413,-2.02403 0.94252,-3.97778 0.80334,-3.02769 0.89955,-3.68248 0.6515,-4.43407 -0.16007,-0.485 -0.4949,-1.0646 -0.74409,-1.288 -0.40849,-0.36623 -31.28308,-18.279391 -33.3144,-19.328716 -0.98219,-0.507376 -2.24749,-0.564985 -3.07324,-0.139923 -0.31785,0.16362 -1.78105,1.473307 -3.25154,2.910417 l -2.67362,2.612924 H 110.61473 84.344262 l -2.67362,-2.612924 c -1.47049,-1.43711 -2.93369,-2.746797 -3.25154,-2.910417 -0.82575,-0.425062 -2.09105,-0.367453 -3.07324,0.139923 -2.03131,1.049325 -32.90591,18.962486 -33.3144,19.328716 -0.24918,0.2234 -0.58402,0.803 -0.74408,1.288 -0.24805,0.75159 -0.15184,1.40638 0.65149,4.43407 0.51839,1.95375 0.94253,3.74375 0.94253,3.97778 0,0.47896 -25.4743,44.75268 -26.16998,45.48281 -0.24892,0.26125 -1.93987,0.86661 -3.8214,1.36807 -3.8240491,1.01918 -4.5579791,1.4048 -5.0880091,2.67334 -0.5574,1.33403 -0.5574,38.85847 0,40.19251 0.53003,1.26854 1.26396,1.65416 5.0880091,2.67334 1.88153,0.50146 3.57248,1.10682 3.8214,1.36806 0.69568,0.73013 26.16998,45.00386 26.16998,45.48282 0,0.23403 -0.42414,2.02403 -0.94253,3.97778 -0.80333,3.02768 -0.89954,3.68248 -0.65149,4.43407 0.16006,0.485 0.4949,1.06459 0.74408,1.288 0.36765,0.32961 30.47624,17.81562 33.26139,19.31705 0.93378,0.50338 2.31293,0.57025 3.12625,0.15159 z m -23.96218,-57.4884 c -8.84039,-15.33452 -16.07344,-28.02051 -16.07344,-28.19108 0,-0.17057 1.62719,-3.12983 3.61597,-6.57614 1.98879,-3.4463 3.61597,-6.39613 3.61597,-6.55517 0,-0.15904 -1.62718,-3.1023 -3.61597,-6.54059 -1.98878,-3.43828 -3.61597,-6.38772 -3.61597,-6.55431 0,-0.16659 7.23305,-12.84932 16.07344,-28.18384 l 16.07343,-27.88095 32.294738,-0.004 c 25.44655,-0.003 32.38106,0.0666 32.70178,0.32722 0.22387,0.1819 1.98869,3.09893 3.92182,6.48229 l 3.51478,6.15156 7.43969,0.004 c 4.09183,0.002 7.56512,0.0915 7.71841,0.19844 0.26569,0.1853 32.39732,55.74734 32.39732,56.02147 0,0.27413 -32.13163,55.83618 -32.39732,56.02147 -0.15329,0.10692 -3.62173,0.19621 -7.70762,0.19844 l -7.4289,0.004 -3.52661,6.10797 c -1.93964,3.35938 -3.69506,6.27641 -3.90094,6.48229 -0.31866,0.31866 -5.18113,0.3738 -32.70074,0.37081 l -32.326408,-0.004 z m 84.317028,20.93871 c 2.0269,-3.52671 3.81284,-6.49967 3.96875,-6.60658 0.15592,-0.10691 3.62354,-0.19621 7.70584,-0.19844 l 7.42235,-0.004 15.85575,-27.45052 c 8.72066,-15.09779 15.85575,-27.68864 15.85575,-27.97969 0,-0.29104 -7.13509,-12.8819 -15.85575,-27.97968 l -15.85575,-27.45052 -7.42235,-0.004 c -4.0823,-0.002 -7.54992,-0.0915 -7.70584,-0.19844 -0.15591,-0.10691 -1.94185,-3.07987 -3.96875,-6.60658 l -3.68527,-6.41219 -32.04718,-0.004 -32.047178,-0.004 -16.03197,27.77092 -16.03196,27.77092 3.69529,6.3766 c 2.03242,3.50713 3.6953,6.54055 3.6953,6.74093 0,0.20039 -1.66288,3.23381 -3.6953,6.74094 l -3.69529,6.3766 16.03196,27.77092 16.03197,27.77092 32.047178,-0.004 32.04718,-0.004 z m -64.884448,-0.52522 c -2.10812,-3.48292 -27.45327,-47.57208 -27.65772,-48.11198 -0.22609,-0.59704 -0.0239,-1.1006 1.56847,-3.90558 1.07521,-1.89405 1.97327,-3.1917 2.18072,-3.15104 0.19398,0.038 5.0115,8.13561 10.70559,17.99465 l 10.3529,17.92552 h 7.58161 7.58161 l 3.70432,6.41614 3.70431,6.41615 20.727078,0.0678 c 11.3999,0.0373 20.83047,0.17116 20.95684,0.29752 0.12994,0.12995 -0.59725,1.68089 -1.67398,3.57025 l -1.90373,3.3405 H 103.06374 74.409972 Z m 58.997568,-2.44739 c 0.84023,-1.45521 1.5305,-2.73513 1.53392,-2.84427 0.003,-0.10914 -9.13181,-0.20026 -20.30053,-0.20249 -11.16873,-0.002 -20.460148,-0.10136 -20.647608,-0.2203 -0.18746,-0.11893 -1.97953,-3.06391 -3.9824,-6.54438 l -3.64156,-6.32814 -7.56405,-0.0702 c -5.61386,-0.0521 -7.63118,-0.15439 -7.82441,-0.39687 -0.1432,-0.1797 -4.75441,-8.12532 -10.24713,-17.65693 -5.49272,-9.53162 -10.06185,-17.41326 -10.15361,-17.51477 -0.0918,-0.10151 -0.91461,1.12246 -1.82856,2.71994 l -1.66172,2.9045 14.09714,24.46121 14.09714,24.46122 28.297838,-0.0614 28.29784,-0.0614 z m -35.649228,-9.85887 c -0.50029,-0.34893 -3.84623,-6.42277 -3.68334,-6.68632 0.0996,-0.16121 7.789918,-0.25585 20.788928,-0.25585 h 20.63081 l 0.58639,-0.9781 c 0.32251,-0.53795 4.9924,-8.60444 10.37752,-17.92552 5.46781,-9.4642 9.95187,-16.94742 10.15517,-16.94742 0.47256,0 4.07295,6.17803 3.91968,6.72591 -0.0643,0.22981 -4.76234,8.45456 -10.44012,18.27721 l -10.32323,17.85938 -20.8659,0.063 c -11.47624,0.0346 -20.991898,-0.0249 -21.145908,-0.1323 z m 43.803448,-4.29634 c 1.13445,-1.96453 5.7481,-9.95926 10.25256,-17.76607 l 8.18994,-14.19419 -1.60319,-2.80529 c -0.88175,-1.5429 -1.67895,-2.80528 -1.77154,-2.80528 -0.0926,0 -3.45242,5.68523 -7.46629,12.63385 -4.01386,6.94862 -8.60808,14.89604 -10.20938,17.66094 l -2.91144,5.02708 -20.65513,0.13229 -20.655138,0.1323 1.63502,2.84586 1.63502,2.84586 20.748468,-0.0677 20.74847,-0.0677 z m 5.44247,4.26245 c -0.08,-0.12951 4.4538,-8.196 10.0752,-17.92552 5.6214,-9.72953 10.2728,-17.87983 10.33643,-18.11179 0.0636,-0.23195 -1.55524,-3.31331 -3.59751,-6.84745 -3.60897,-6.2453 -3.70266,-6.44614 -3.33693,-7.15337 0.20695,-0.40021 1.87849,-3.31809 3.71452,-6.48418 1.83603,-3.16608 3.28558,-5.94853 3.22122,-6.18322 -0.0644,-0.23469 -4.71633,-8.38723 -10.33773,-18.11676 -5.6214,-9.72952 -10.15524,-17.79601 -10.0752,-17.92552 0.23756,-0.38438 7.67426,-0.29569 7.98691,0.0953 0.87332,1.09204 28.22589,48.84597 28.22589,49.27864 0,0.43267 -27.35257,48.18662 -28.22589,49.27865 -0.31265,0.39094 -7.74935,0.47964 -7.98691,0.0953 z m 7.8952,-1.15359 c 1.16175,-1.79748 27.74604,-47.99876 27.74604,-48.22032 0,-0.22155 -26.58429,-46.42283 -27.74604,-48.22031 -0.36517,-0.56499 -0.5529,-0.59531 -3.68596,-0.59531 -1.81565,0 -3.30119,0.0493 -3.30119,0.10956 0,0.10381 2.992,5.30966 15.13857,26.33992 4.79179,8.29638 5.24029,9.17807 4.97022,9.77079 -0.16327,0.35834 -1.8375,3.30916 -3.72053,6.5574 -1.88302,3.24823 -3.42368,5.97031 -3.42368,6.04907 0,0.0788 1.55885,2.83576 3.46411,6.12668 1.90525,3.29092 3.5795,6.23675 3.72053,6.54628 0.21657,0.47533 -0.56212,1.98 -5.01065,9.68207 -12.14657,21.03026 -15.13857,26.23611 -15.13857,26.33992 0,0.0603 1.48554,0.10956 3.30119,0.10956 3.13306,0 3.32079,-0.0303 3.68596,-0.59531 z M 73.154592,221.16852 c -0.69219,-1.20055 -5.4139,-9.38054 -10.49268,-18.17775 l -9.23416,-15.99494 0.54882,-0.97649 c 0.30186,-0.53708 5.00723,-8.69842 10.4564,-18.13631 l 9.90758,-17.15982 4.01459,-0.0732 c 3.85667,-0.0703 4.00932,-0.0531 3.88078,0.43846 -0.0736,0.28142 -4.69206,8.40663 -10.26326,18.05602 -5.5712,9.64939 -10.12946,17.67138 -10.12946,17.82664 0,0.15527 4.55826,8.17726 10.12946,17.82665 5.5712,9.6494 10.18883,17.77142 10.26141,18.04896 0.12549,0.47988 -0.0628,0.5046 -3.84449,0.5046 h -3.97646 z m 8.35597,1.52811 c 0,-0.069 -4.58391,-8.06391 -10.18646,-17.76638 -5.60255,-9.70247 -10.18646,-17.79216 -10.18646,-17.97708 0,-0.18492 4.58391,-8.27386 10.18646,-17.97542 5.60255,-9.70156 10.18646,-17.69191 10.18646,-17.75634 0,-0.0644 -1.51425,-0.0838 -3.365,-0.0431 l -3.365,0.074 -9.8561,17.06562 c -5.42085,9.38609 -10.05703,17.43705 -10.30263,17.89102 l -0.44653,0.8254 10.29419,17.88179 10.2942,17.88179 3.37343,0.0121 c 1.85539,0.007 3.37344,-0.0444 3.37344,-0.11345 z m -2.31557,-17.32744 c -5.71144,-9.89017 -10.38443,-18.1693 -10.38443,-18.39807 0,-0.22876 4.67299,-8.50789 10.38443,-18.39806 l 10.38444,-17.98214 h 21.035298 21.0353 l 10.38443,17.98214 c 5.71144,9.89017 10.38443,18.1693 10.38443,18.39806 0,0.22877 -4.67299,8.5079 -10.38443,18.39807 l -10.38443,17.98214 h -21.0353 -21.035298 z m 56.638828,9.44933 c 13.89823,-24.03933 16.0559,-27.77869 16.0559,-27.82573 0,-0.0283 -4.63055,-8.08148 -10.29011,-17.89594 l -10.29011,-17.84447 -20.6382,-0.0678 -20.638188,-0.0677 -2.19215,3.77191 c -14.1719,24.38485 -18.52597,32.11225 -18.30067,32.47921 0.13402,0.21828 4.32778,7.48109 9.31946,16.13958 4.99168,8.65849 9.54042,16.54638 10.10831,17.52865 l 1.03251,1.78593 h 20.602988 20.60299 z M 47.842332,177.34843 c -0.98226,-1.7305 -1.78593,-3.31608 -1.78593,-3.52351 0,-0.20742 6.35567,-11.38376 14.12371,-24.8363 l 14.12372,-24.45916 28.706178,-0.0673 28.70617,-0.0673 1.9044,3.34167 c 1.07712,1.89003 1.80459,3.44148 1.67465,3.57142 -0.12637,0.12637 -9.55694,0.26025 -20.95684,0.29752 l -20.727078,0.0678 -3.70431,6.41614 -3.70432,6.41615 h -7.58226 -7.58227 l -10.34976,17.92552 c -5.69237,9.85903 -10.50959,17.95663 -10.70494,17.99465 -0.21013,0.0409 -1.08453,-1.2158 -2.14112,-3.07724 z m 12.50605,-15.59697 10.19095,-17.64283 7.64056,-0.1323 7.64055,-0.13229 3.77085,-6.48229 3.77085,-6.48229 20.532548,-0.0678 c 11.29289,-0.0373 20.52973,-0.15634 20.5263,-0.26459 -0.003,-0.10824 -0.69369,-1.38744 -1.53392,-2.84264 l -1.5277,-2.64584 -28.29784,-0.0593 -28.297838,-0.0593 -4.51905,7.86452 c -2.48547,4.32548 -8.83121,15.32473 -14.10165,24.44277 l -9.58262,16.57825 1.66624,2.90403 c 0.91644,1.59721 1.72578,2.85018 1.79854,2.78437 0.0728,-0.0658 4.71821,-8.05893 10.32323,-17.76249 z m 95.321388,18.41545 c -0.14748,-0.18674 -4.5904,-7.84047 -9.87317,-17.00829 -5.28278,-9.16781 -9.88445,-17.11523 -10.22594,-17.66093 l -0.62091,-0.99219 h -20.61856 c -12.99112,0 -20.677058,-0.0947 -20.776688,-0.25585 -0.16289,-0.26355 3.18305,-6.33739 3.68334,-6.68633 0.15401,-0.10741 9.669668,-0.16694 21.145908,-0.13229 l 20.8659,0.063 10.32323,17.85938 c 5.67778,9.82265 10.37583,18.0474 10.44012,18.27721 0.12372,0.44224 -3.34967,6.63402 -3.80699,6.78645 -0.14746,0.0492 -0.38877,-0.0634 -0.53624,-0.25017 z m 2.23408,-3.53973 1.61054,-2.80333 -2.02324,-3.48053 c -1.11278,-1.91429 -5.73415,-9.9099 -10.26972,-17.76803 l -8.24647,-14.2875 -20.7367,-0.0677 -20.736708,-0.0677 -1.6426,2.84586 -1.6426,2.84586 20.659348,0.13229 20.65936,0.1323 1.91735,3.30729 c 1.05454,1.81901 5.63996,9.76643 10.18982,17.66093 4.54986,7.89451 8.35765,14.35365 8.46177,14.35365 0.10412,0 0.91405,-1.2615 1.79985,-2.80332 z"
       id="path1385"
       inkscape:connector-curvature="0" />
  </g>
</svg>
